<?xml version="1.0" encoding="utf-8"?>
<!-- Generator: Adobe Illustrator 26.0.0, SVG Export Plug-In . SVG Version: 6.00 Build 0)  -->
<svg version="1.1" xmlns="http://www.w3.org/2000/svg" xmlns:xlink="http://www.w3.org/1999/xlink" x="0px" y="0px"
	 viewBox="0 0 1600 1600" style="enable-background:new 0 0 1600 1600;" xml:space="preserve">
<style type="text/css">
	.st0{display:none;}
	.st1{display:inline;fill:#D89F55;}
	.st2{display:inline;fill:#FFFFFF;}
	.st3{display:inline;fill:#0A0A3D;}
	.st4{display:inline;}
	.st5{font-family:'GalleryModernRegular';}
	.st6{font-size:201.9435px;}
	.st7{fill:#FFFFFF;}
	.st8{fill:#0A0A3D;}
	.st9{fill:#D89F55;}
	.st10{opacity:0.26;}
	.st11{font-size:169.0367px;}
	.st12{font-size:197.9799px;}
</style>
<g id="Layer_3" class="st0">
</g>
<g id="Layer_1" class="st0">
</g>
<g id="Layer_2" class="st0">
	<rect x="1150.2" y="1697" class="st1" width="128" height="128"/>
	<rect x="995.8" y="1697" class="st2" width="128" height="128"/>
	<rect x="1304.6" y="1697" class="st3" width="128" height="128"/>
	<rect x="1459" y="1697" class="st4" width="128" height="128"/>
</g>
<g id="Logo">
	<g class="st0">
		<path class="st2" d="M370.5,310c286.8,0,571.8,0,859.1,0c-11,7.8-20.2,14.3-29.3,21c-25.8,18.8-49.6,39.8-71.2,63.3
			c-2.8,3-8,5.5-12.1,5.5c-147,0.3-294,0.3-441,0.4c-62.9,0-125.8,0-188.7,0.2c-6.7,0-11.2-2.1-15.7-7.1
			C442.4,360.9,408.7,334.1,370.5,310z"/>
		<g class="st4">
			<defs>
				<path id="SVGID_1_" d="M500.7,430.2c199.5,0,397.5,0,597.1,0c-1.8,3.4-2.9,5.9-4.3,8.2c-13.6,23.1-23.7,47.5-26.1,74.4
					c-0.6,7.1-4.8,6.9-9.8,6.9c-41.1-0.1-82.3,0-123.4,0c-47.8,0-95.5,0-143.3,0c-83,0-166,0-248.9,0.3c-7.3,0-10.2-1.9-10.9-9.4
					c-2.2-24.5-11.4-46.7-23.4-67.9C505.7,438.9,503.5,435,500.7,430.2z"/>
			</defs>
			<use xlink:href="#SVGID_1_"  style="overflow:visible;fill:#FFFFFF;"/>
			<clipPath id="SVGID_00000005254036860980598610000016550531257300107424_">
				<use xlink:href="#SVGID_1_"  style="overflow:visible;"/>
			</clipPath>
		</g>
		<g class="st4">
			<g>
				<defs>
					<path id="SVGID_00000092444732011342548440000014270937891348114604_" d="M933,762.6h-55.5c-2.4,0-4.3-1.9-4.3-4.3V546.1
						c0-2.4,1.9-4.3,4.3-4.3H933c2.4,0,4.3,1.9,4.3,4.3v212.2C937.3,760.7,935.4,762.6,933,762.6z"/>
				</defs>
				<use xlink:href="#SVGID_00000092444732011342548440000014270937891348114604_"  style="overflow:visible;fill:#FFFFFF;"/>
				<clipPath id="SVGID_00000093876068242938367300000009595266205012873090_">
					<use xlink:href="#SVGID_00000092444732011342548440000014270937891348114604_"  style="overflow:visible;"/>
				</clipPath>
			</g>
			<g>
				<defs>
					<path id="SVGID_00000026124129583087075320000017452964561079696547_" d="M1038.3,762.6h-55.5c-2.4,0-4.3-1.9-4.3-4.3V546.1
						c0-2.4,1.9-4.3,4.3-4.3h55.5c2.4,0,4.3,1.9,4.3,4.3v212.2C1042.5,760.7,1040.6,762.6,1038.3,762.6z"/>
				</defs>
				<use xlink:href="#SVGID_00000026124129583087075320000017452964561079696547_"  style="overflow:visible;fill:#FFFFFF;"/>
				<clipPath id="SVGID_00000030469038634026631850000011350200843599236517_">
					<use xlink:href="#SVGID_00000026124129583087075320000017452964561079696547_"  style="overflow:visible;"/>
				</clipPath>
			</g>
			<g>
				<defs>
					<path id="SVGID_00000054233529276132751590000001198613921366931367_" d="M617.3,762.6h-55.5c-2.4,0-4.3-1.9-4.3-4.3V546.1
						c0-2.4,1.9-4.3,4.3-4.3h55.5c2.4,0,4.3,1.9,4.3,4.3v212.2C621.5,760.7,619.6,762.6,617.3,762.6z"/>
				</defs>
				<use xlink:href="#SVGID_00000054233529276132751590000001198613921366931367_"  style="overflow:visible;fill:#FFFFFF;"/>
				<clipPath id="SVGID_00000167380499723583114220000016438555008749433743_">
					<use xlink:href="#SVGID_00000054233529276132751590000001198613921366931367_"  style="overflow:visible;"/>
				</clipPath>
			</g>
			<g>
				<defs>
					<path id="SVGID_00000009555206351123619530000015091791809969370541_" d="M722.5,762.6H667c-2.4,0-4.3-1.9-4.3-4.3V546.1
						c0-2.4,1.9-4.3,4.3-4.3h55.5c2.4,0,4.3,1.9,4.3,4.3v212.2C726.8,760.7,724.9,762.6,722.5,762.6z"/>
				</defs>
				<use xlink:href="#SVGID_00000009555206351123619530000015091791809969370541_"  style="overflow:visible;fill:#FFFFFF;"/>
				<clipPath id="SVGID_00000066488991087942522530000017459977964254218369_">
					<use xlink:href="#SVGID_00000009555206351123619530000015091791809969370541_"  style="overflow:visible;"/>
				</clipPath>
			</g>
			<g>
				<defs>
					<path id="SVGID_00000160191263040928809710000017526728945037493182_" d="M827.8,762.6h-55.5c-2.4,0-4.3-1.9-4.3-4.3V546.1
						c0-2.4,1.9-4.3,4.3-4.3h55.5c2.4,0,4.3,1.9,4.3,4.3v212.2C832,760.7,830.1,762.6,827.8,762.6z"/>
				</defs>
				<use xlink:href="#SVGID_00000160191263040928809710000017526728945037493182_"  style="overflow:visible;fill:#FFFFFF;"/>
				<clipPath id="SVGID_00000080190758472172691950000014092532490468279998_">
					<use xlink:href="#SVGID_00000160191263040928809710000017526728945037493182_"  style="overflow:visible;"/>
				</clipPath>
			</g>
		</g>
		<text transform="matrix(1 0 0 1 413.084 946.9688)" class="st2 st5 st6">5pillars</text>
		<g class="st4">
			<g>
				<path class="st7" d="M586.2,998.1l-19.6,47.7c-0.2,0.7-0.6,1.2-1.2,1.6s-1.1,0.6-1.8,0.6c-1.1,0-1.8-0.3-2.3-0.9
					c-0.5-0.6-0.8-1.3-0.8-2c0-0.4,0.1-0.8,0.2-1.2l21.6-52.4c0.3-0.8,0.8-1.4,1.4-1.8c0.6-0.4,1.2-0.6,2-0.5c0.7,0,1.4,0.2,2,0.6
					c0.6,0.4,1,0.9,1.2,1.7l21.5,51.9c0.2,0.4,0.2,0.9,0.2,1.3c0,1-0.3,1.8-1,2.4c-0.7,0.6-1.4,0.9-2.3,0.9c-0.7,0-1.4-0.2-1.9-0.6
					c-0.6-0.4-1-1-1.3-1.7L584.3,998L586.2,998.1z M570.8,1032.2l2.8-6.5h24.8l1.3,6.5H570.8z"/>
				<path class="st7" d="M678.3,993.3c0.9,0.5,1.5,1.2,1.7,2.3c0.2,1-0.1,1.9-0.8,2.8c-0.5,0.7-1.1,1-1.9,1.1
					c-0.8,0.1-1.6-0.1-2.3-0.5c-1.8-1.1-3.8-2-5.9-2.6c-2.1-0.6-4.3-1-6.7-1c-3.3,0-6.3,0.6-9,1.7c-2.7,1.1-5.1,2.7-7.1,4.8
					c-2,2.1-3.6,4.5-4.7,7.4c-1.1,2.8-1.7,5.9-1.7,9.3c0,3.7,0.6,6.9,1.8,9.8s2.8,5.3,4.8,7.4c2,2,4.4,3.6,7.1,4.6
					c2.7,1.1,5.6,1.6,8.8,1.6c2.3,0,4.5-0.3,6.6-0.9c2.1-0.6,4.1-1.5,5.9-2.7c0.8-0.4,1.6-0.5,2.4-0.4c0.8,0.1,1.5,0.5,2,1.2
					c0.7,0.9,1,1.8,0.8,2.8c-0.2,1-0.7,1.7-1.6,2.2c-1.4,0.8-3,1.6-4.8,2.3c-1.8,0.7-3.6,1.2-5.5,1.6c-1.9,0.4-3.8,0.6-5.7,0.6
					c-4,0-7.8-0.7-11.3-2.1c-3.6-1.4-6.7-3.4-9.5-6s-4.9-5.7-6.5-9.4c-1.6-3.7-2.3-7.9-2.3-12.5c0-4.3,0.8-8.2,2.3-11.9
					c1.5-3.6,3.6-6.8,6.3-9.5c2.7-2.7,5.8-4.7,9.4-6.2c3.6-1.5,7.5-2.2,11.7-2.2c2.9,0,5.7,0.4,8.4,1.1
					C673.5,990.8,676,991.9,678.3,993.3z"/>
				<path class="st7" d="M726.9,998.1l-19.6,47.7c-0.2,0.7-0.6,1.2-1.2,1.6s-1.1,0.6-1.8,0.6c-1.1,0-1.8-0.3-2.3-0.9
					c-0.5-0.6-0.8-1.3-0.8-2c0-0.4,0.1-0.8,0.2-1.2l21.6-52.4c0.3-0.8,0.8-1.4,1.4-1.8c0.6-0.4,1.2-0.6,2-0.5c0.7,0,1.4,0.2,2,0.6
					c0.6,0.4,1,0.9,1.2,1.7l21.5,51.9c0.2,0.4,0.2,0.9,0.2,1.3c0,1-0.3,1.8-1,2.4c-0.7,0.6-1.4,0.9-2.3,0.9c-0.7,0-1.4-0.2-1.9-0.6
					c-0.6-0.4-1-1-1.3-1.7L725,998L726.9,998.1z M711.5,1032.2l2.8-6.5h24.8l1.3,6.5H711.5z"/>
				<path class="st7" d="M801.2,989.5c4.1,0,7.7,0.8,10.8,2.3c3.1,1.5,5.7,3.7,7.7,6.4c2.1,2.7,3.6,5.8,4.6,9.4
					c1,3.5,1.5,7.2,1.5,11.1c0,5.4-0.9,10.3-2.8,14.7c-1.8,4.4-4.6,7.9-8.2,10.5c-3.6,2.6-8.2,3.9-13.7,3.9h-20.8
					c-0.9,0-1.8-0.3-2.4-1s-1-1.5-1-2.4v-51.5c0-0.9,0.3-1.8,1-2.4s1.5-1,2.4-1H801.2z M800.3,1041.3c4.3,0,7.8-1,10.5-3.1
					c2.7-2.1,4.6-4.8,5.9-8.3c1.2-3.4,1.9-7.2,1.9-11.3c0-3-0.3-5.9-1-8.6c-0.7-2.7-1.8-5.1-3.3-7.3c-1.5-2.1-3.4-3.8-5.7-5
					c-2.3-1.2-5.1-1.8-8.3-1.8h-17l0.7-0.8v46.9l-0.5-0.8H800.3z"/>
				<path class="st7" d="M856.9,989.5h29.7c0.9,0,1.8,0.3,2.4,1c0.7,0.6,1,1.4,1,2.4c0,0.9-0.3,1.7-1,2.3c-0.7,0.6-1.5,0.9-2.4,0.9
					h-26.8l0.8-1.4v21l-0.8-0.9h23.2c0.9,0,1.8,0.3,2.4,0.9c0.7,0.6,1,1.4,1,2.4c0,0.9-0.3,1.7-1,2.3c-0.7,0.6-1.5,0.9-2.4,0.9
					h-22.9l0.6-0.8v21.6l-0.5-0.6h26.6c0.9,0,1.8,0.3,2.4,1s1,1.4,1,2.3c0,0.9-0.3,1.7-1,2.3c-0.7,0.6-1.5,0.9-2.4,0.9h-29.7
					c-0.9,0-1.8-0.3-2.4-1s-1-1.5-1-2.4v-51.5c0-0.9,0.3-1.8,1-2.4S855.9,989.5,856.9,989.5z"/>
				<path class="st7" d="M921.1,989.4c0.5,0,1,0.1,1.6,0.4c0.6,0.3,1,0.7,1.4,1.2l22.1,33.3l-3-0.1l22.3-33.3
					c0.8-1.1,1.7-1.6,2.8-1.6c0.9,0.1,1.7,0.4,2.4,1c0.7,0.6,1,1.4,1,2.4v51.6c0,0.9-0.3,1.8-1,2.4s-1.5,1-2.5,1
					c-1.1,0-1.9-0.3-2.5-1c-0.6-0.7-1-1.5-1-2.4v-45.2l2.1,0.3l-19.7,29.9c-0.3,0.4-0.7,0.8-1.2,1.1c-0.5,0.3-1,0.4-1.5,0.3
					c-0.5,0.1-1-0.1-1.5-0.3c-0.5-0.3-0.9-0.6-1.2-1.1l-19.4-29.8l1.8-2.3v47c0,0.9-0.3,1.8-0.9,2.4c-0.6,0.7-1.4,1-2.3,1
					c-0.9,0-1.7-0.3-2.3-1c-0.6-0.7-0.9-1.5-0.9-2.4v-51.6c0-0.9,0.3-1.7,1-2.4C919.3,989.7,920.1,989.4,921.1,989.4z"/>
				<path class="st7" d="M1038.6,989.2c0.9,0,1.7,0.3,2.4,1c0.6,0.7,1,1.4,1,2.3c0,0.4,0,0.8-0.1,1.1c-0.1,0.3-0.2,0.7-0.5,1
					l-19.3,27l1.1-4.1v26.8c0,0.9-0.3,1.8-1,2.4c-0.6,0.7-1.4,1-2.3,1c-1,0-1.8-0.3-2.5-1c-0.6-0.7-1-1.5-1-2.4v-26.3l0.5,2.3
					L998.2,995c-0.3-0.4-0.6-0.9-0.8-1.3c-0.2-0.4-0.2-0.8-0.2-1.2c0-1,0.4-1.8,1.2-2.4c0.8-0.6,1.6-0.9,2.4-0.9
					c1.1,0,2,0.5,2.8,1.5l17.3,23.7l-1.6-0.2l16.5-23.3C1036.5,989.7,1037.5,989.2,1038.6,989.2z"/>
			</g>
		</g>
		<path class="st2" d="M621.5,1167.1v-82.3c0-2.4-1.9-4.3-4.3-4.3h-55.5c-2.4,0-4.3,1.9-4.3,4.3v89.5
			C578.5,1170.9,599.9,1168.5,621.5,1167.1z"/>
		<path class="st2" d="M726.8,1169.1v-84.2c0-2.4-1.9-4.3-4.3-4.3H667c-2.4,0-4.3,1.9-4.3,4.3v81
			C684.3,1165.9,705.7,1167,726.8,1169.1z"/>
		<path class="st2" d="M832,1188.5v-103.6c0-2.4-1.9-4.3-4.3-4.3h-55.5c-2.4,0-4.3,1.9-4.3,4.3v89.7
			C789.7,1178.1,811.1,1182.8,832,1188.5z"/>
		<path class="st2" d="M937.3,1227.4v-142.5c0-2.4-1.9-4.3-4.3-4.3h-55.5c-2.4,0-4.3,1.9-4.3,4.3v116.4
			C895.1,1208.8,916.5,1217.5,937.3,1227.4z"/>
		<path class="st2" d="M1042.5,1290v-205.2c0-2.4-1.9-4.3-4.3-4.3h-55.5c-2.4,0-4.3,1.9-4.3,4.3v163.8
			C1000.7,1261.2,1022.1,1275,1042.5,1290z"/>
	</g>
	<g>
		<path class="st8" d="M370.5,310c286.8,0,571.8,0,859.1,0c-11,7.8-20.2,14.3-29.3,21c-25.8,18.8-49.6,39.8-71.2,63.3
			c-2.8,3-8,5.5-12.1,5.5c-147,0.3-294,0.3-441,0.4c-62.9,0-125.8,0-188.7,0.2c-6.7,0-11.2-2.1-15.7-7.1
			C442.4,360.9,408.7,334.1,370.5,310z"/>
		<g>
			<defs>
				<path id="SVGID_00000172431305378806875790000015372733145039665080_" d="M500.7,430.2c199.5,0,397.5,0,597.1,0
					c-1.8,3.4-2.9,5.9-4.3,8.2c-13.6,23.1-23.7,47.5-26.1,74.4c-0.6,7.1-4.8,6.9-9.8,6.9c-41.1-0.1-82.3,0-123.4,0
					c-47.8,0-95.5,0-143.3,0c-83,0-166,0-248.9,0.3c-7.3,0-10.2-1.9-10.9-9.4c-2.2-24.5-11.4-46.7-23.4-67.9
					C505.7,438.9,503.5,435,500.7,430.2z"/>
			</defs>
			<use xlink:href="#SVGID_00000172431305378806875790000015372733145039665080_"  style="overflow:visible;fill:#0A0A3D;"/>
			<clipPath id="SVGID_00000133505222859493678530000012667302244108185262_">
				<use xlink:href="#SVGID_00000172431305378806875790000015372733145039665080_"  style="overflow:visible;"/>
			</clipPath>
		</g>
		<g>
			<g>
				<defs>
					<path id="SVGID_00000088823899478123837970000005466224593290981557_" d="M933,762.6h-55.5c-2.4,0-4.3-1.9-4.3-4.3V546.1
						c0-2.4,1.9-4.3,4.3-4.3H933c2.4,0,4.3,1.9,4.3,4.3v212.2C937.3,760.7,935.4,762.6,933,762.6z"/>
				</defs>
				<use xlink:href="#SVGID_00000088823899478123837970000005466224593290981557_"  style="overflow:visible;fill:#D89F55;"/>
				<clipPath id="SVGID_00000038397299471436873450000001890373047737713809_">
					<use xlink:href="#SVGID_00000088823899478123837970000005466224593290981557_"  style="overflow:visible;"/>
				</clipPath>
			</g>
			<g>
				<defs>
					<path id="SVGID_00000093863878322438180740000005929965087387848590_" d="M1038.3,762.6h-55.5c-2.4,0-4.3-1.9-4.3-4.3V546.1
						c0-2.4,1.9-4.3,4.3-4.3h55.5c2.4,0,4.3,1.9,4.3,4.3v212.2C1042.5,760.7,1040.6,762.6,1038.3,762.6z"/>
				</defs>
				<use xlink:href="#SVGID_00000093863878322438180740000005929965087387848590_"  style="overflow:visible;fill:#D89F55;"/>
				<clipPath id="SVGID_00000180347842356104681180000002529303052186751108_">
					<use xlink:href="#SVGID_00000093863878322438180740000005929965087387848590_"  style="overflow:visible;"/>
				</clipPath>
			</g>
			<g>
				<defs>
					<path id="SVGID_00000011018040450232418350000011668718413353720471_" d="M617.3,762.6h-55.5c-2.4,0-4.3-1.9-4.3-4.3V546.1
						c0-2.4,1.9-4.3,4.3-4.3h55.5c2.4,0,4.3,1.9,4.3,4.3v212.2C621.5,760.7,619.6,762.6,617.3,762.6z"/>
				</defs>
				<use xlink:href="#SVGID_00000011018040450232418350000011668718413353720471_"  style="overflow:visible;fill:#D89F55;"/>
				<clipPath id="SVGID_00000107558091453956561630000017372084152540512918_">
					<use xlink:href="#SVGID_00000011018040450232418350000011668718413353720471_"  style="overflow:visible;"/>
				</clipPath>
			</g>
			<g>
				<defs>
					<path id="SVGID_00000004522773620636330440000012846037004466534047_" d="M722.5,762.6H667c-2.4,0-4.3-1.9-4.3-4.3V546.1
						c0-2.4,1.9-4.3,4.3-4.3h55.5c2.4,0,4.3,1.9,4.3,4.3v212.2C726.8,760.7,724.9,762.6,722.5,762.6z"/>
				</defs>
				<use xlink:href="#SVGID_00000004522773620636330440000012846037004466534047_"  style="overflow:visible;fill:#D89F55;"/>
				<clipPath id="SVGID_00000107556092556516708020000010035242097553577095_">
					<use xlink:href="#SVGID_00000004522773620636330440000012846037004466534047_"  style="overflow:visible;"/>
				</clipPath>
			</g>
			<g>
				<defs>
					<path id="SVGID_00000075129637588161509620000011100899702783396239_" d="M827.8,762.6h-55.5c-2.4,0-4.3-1.9-4.3-4.3V546.1
						c0-2.4,1.9-4.3,4.3-4.3h55.5c2.4,0,4.3,1.9,4.3,4.3v212.2C832,760.7,830.1,762.6,827.8,762.6z"/>
				</defs>
				<use xlink:href="#SVGID_00000075129637588161509620000011100899702783396239_"  style="overflow:visible;fill:#D89F55;"/>
				<clipPath id="SVGID_00000075847086349080912980000015046368001778091668_">
					<use xlink:href="#SVGID_00000075129637588161509620000011100899702783396239_"  style="overflow:visible;"/>
				</clipPath>
			</g>
		</g>
		<text transform="matrix(1 0 0 1 413.084 946.9688)" class="st9 st5 st6">5pillars</text>
		<g>
			<g>
				<path class="st8" d="M586.2,998.1l-19.6,47.7c-0.2,0.7-0.6,1.2-1.2,1.6s-1.1,0.6-1.8,0.6c-1.1,0-1.8-0.3-2.3-0.9
					c-0.5-0.6-0.8-1.3-0.8-2c0-0.4,0.1-0.8,0.2-1.2l21.6-52.4c0.3-0.8,0.8-1.4,1.4-1.8c0.6-0.4,1.2-0.6,2-0.5c0.7,0,1.4,0.2,2,0.6
					c0.6,0.4,1,0.9,1.2,1.7l21.5,51.9c0.2,0.4,0.2,0.9,0.2,1.3c0,1-0.3,1.8-1,2.4c-0.7,0.6-1.4,0.9-2.3,0.9c-0.7,0-1.4-0.2-1.9-0.6
					c-0.6-0.4-1-1-1.3-1.7L584.3,998L586.2,998.1z M570.8,1032.2l2.8-6.5h24.8l1.3,6.5H570.8z"/>
				<path class="st8" d="M678.3,993.3c0.9,0.5,1.5,1.2,1.7,2.3c0.2,1-0.1,1.9-0.8,2.8c-0.5,0.7-1.1,1-1.9,1.1
					c-0.8,0.1-1.6-0.1-2.3-0.5c-1.8-1.1-3.8-2-5.9-2.6c-2.1-0.6-4.3-1-6.7-1c-3.3,0-6.3,0.6-9,1.7c-2.7,1.1-5.1,2.7-7.1,4.8
					c-2,2.1-3.6,4.5-4.7,7.4c-1.1,2.8-1.7,5.9-1.7,9.3c0,3.7,0.6,6.9,1.8,9.8s2.8,5.3,4.8,7.4c2,2,4.4,3.6,7.1,4.6
					c2.7,1.1,5.6,1.6,8.8,1.6c2.3,0,4.5-0.3,6.6-0.9c2.1-0.6,4.1-1.5,5.9-2.7c0.8-0.4,1.6-0.5,2.4-0.4c0.8,0.1,1.5,0.5,2,1.2
					c0.7,0.9,1,1.8,0.8,2.8c-0.2,1-0.7,1.7-1.6,2.2c-1.4,0.8-3,1.6-4.8,2.3c-1.8,0.7-3.6,1.2-5.5,1.6c-1.9,0.4-3.8,0.6-5.7,0.6
					c-4,0-7.8-0.7-11.3-2.1c-3.6-1.4-6.7-3.4-9.5-6s-4.9-5.7-6.5-9.4c-1.6-3.7-2.3-7.9-2.3-12.5c0-4.3,0.8-8.2,2.3-11.9
					c1.5-3.6,3.6-6.8,6.3-9.5c2.7-2.7,5.8-4.7,9.4-6.2c3.6-1.5,7.5-2.2,11.7-2.2c2.9,0,5.7,0.4,8.4,1.1
					C673.5,990.8,676,991.9,678.3,993.3z"/>
				<path class="st8" d="M726.9,998.1l-19.6,47.7c-0.2,0.7-0.6,1.2-1.2,1.6s-1.1,0.6-1.8,0.6c-1.1,0-1.8-0.3-2.3-0.9
					c-0.5-0.6-0.8-1.3-0.8-2c0-0.4,0.1-0.8,0.2-1.2l21.6-52.4c0.3-0.8,0.8-1.4,1.4-1.8c0.6-0.4,1.2-0.6,2-0.5c0.7,0,1.4,0.2,2,0.6
					c0.6,0.4,1,0.9,1.2,1.7l21.5,51.9c0.2,0.4,0.2,0.9,0.2,1.3c0,1-0.3,1.8-1,2.4c-0.7,0.6-1.4,0.9-2.3,0.9c-0.7,0-1.4-0.2-1.9-0.6
					c-0.6-0.4-1-1-1.3-1.7L725,998L726.9,998.1z M711.5,1032.2l2.8-6.5h24.8l1.3,6.5H711.5z"/>
				<path class="st8" d="M801.2,989.5c4.1,0,7.7,0.8,10.8,2.3c3.1,1.5,5.7,3.7,7.7,6.4c2.1,2.7,3.6,5.8,4.6,9.4
					c1,3.5,1.5,7.2,1.5,11.1c0,5.4-0.9,10.3-2.8,14.7c-1.8,4.4-4.6,7.9-8.2,10.5c-3.6,2.6-8.2,3.9-13.7,3.9h-20.8
					c-0.9,0-1.8-0.3-2.4-1s-1-1.5-1-2.4v-51.5c0-0.9,0.3-1.8,1-2.4s1.5-1,2.4-1H801.2z M800.3,1041.3c4.3,0,7.8-1,10.5-3.1
					c2.7-2.1,4.6-4.8,5.9-8.3c1.2-3.4,1.9-7.2,1.9-11.3c0-3-0.3-5.9-1-8.6c-0.7-2.7-1.8-5.1-3.3-7.3c-1.5-2.1-3.4-3.8-5.7-5
					c-2.3-1.2-5.1-1.8-8.3-1.8h-17l0.7-0.8v46.9l-0.5-0.8H800.3z"/>
				<path class="st8" d="M856.9,989.5h29.7c0.9,0,1.8,0.3,2.4,1c0.7,0.6,1,1.4,1,2.4c0,0.9-0.3,1.7-1,2.3c-0.7,0.6-1.5,0.9-2.4,0.9
					h-26.8l0.8-1.4v21l-0.8-0.9h23.2c0.9,0,1.8,0.3,2.4,0.9c0.7,0.6,1,1.4,1,2.4c0,0.9-0.3,1.7-1,2.3c-0.7,0.6-1.5,0.9-2.4,0.9
					h-22.9l0.6-0.8v21.6l-0.5-0.6h26.6c0.9,0,1.8,0.3,2.4,1s1,1.4,1,2.3c0,0.9-0.3,1.7-1,2.3c-0.7,0.6-1.5,0.9-2.4,0.9h-29.7
					c-0.9,0-1.8-0.3-2.4-1s-1-1.5-1-2.4v-51.5c0-0.9,0.3-1.8,1-2.4S855.9,989.5,856.9,989.5z"/>
				<path class="st8" d="M921.1,989.4c0.5,0,1,0.1,1.6,0.4c0.6,0.3,1,0.7,1.4,1.2l22.1,33.3l-3-0.1l22.3-33.3
					c0.8-1.1,1.7-1.6,2.8-1.6c0.9,0.1,1.7,0.4,2.4,1c0.7,0.6,1,1.4,1,2.4v51.6c0,0.9-0.3,1.8-1,2.4s-1.5,1-2.5,1
					c-1.1,0-1.9-0.3-2.5-1c-0.6-0.7-1-1.5-1-2.4v-45.2l2.1,0.3l-19.7,29.9c-0.3,0.4-0.7,0.8-1.2,1.1c-0.5,0.3-1,0.4-1.5,0.3
					c-0.5,0.1-1-0.1-1.5-0.3c-0.5-0.3-0.9-0.6-1.2-1.1l-19.4-29.8l1.8-2.3v47c0,0.9-0.3,1.8-0.9,2.4c-0.6,0.7-1.4,1-2.3,1
					c-0.9,0-1.7-0.3-2.3-1c-0.6-0.7-0.9-1.5-0.9-2.4v-51.6c0-0.9,0.3-1.7,1-2.4C919.3,989.7,920.1,989.4,921.1,989.4z"/>
				<path class="st8" d="M1038.6,989.2c0.9,0,1.7,0.3,2.4,1c0.6,0.7,1,1.4,1,2.3c0,0.4,0,0.8-0.1,1.1c-0.1,0.3-0.2,0.7-0.5,1
					l-19.3,27l1.1-4.1v26.8c0,0.9-0.3,1.8-1,2.4c-0.6,0.7-1.4,1-2.3,1c-1,0-1.8-0.3-2.5-1c-0.6-0.7-1-1.5-1-2.4v-26.3l0.5,2.3
					L998.2,995c-0.3-0.4-0.6-0.9-0.8-1.3c-0.2-0.4-0.2-0.8-0.2-1.2c0-1,0.4-1.8,1.2-2.4c0.8-0.6,1.6-0.9,2.4-0.9
					c1.1,0,2,0.5,2.8,1.5l17.3,23.7l-1.6-0.2l16.5-23.3C1036.5,989.7,1037.5,989.2,1038.6,989.2z"/>
			</g>
		</g>
		<g>
			<path class="st9" d="M621.5,1167.1v-82.3c0-2.4-1.9-4.3-4.3-4.3h-55.5c-2.4,0-4.3,1.9-4.3,4.3v89.5
				C578.5,1170.9,599.9,1168.5,621.5,1167.1z"/>
		</g>
		<g>
			<path class="st9" d="M726.8,1169.1v-84.2c0-2.4-1.9-4.3-4.3-4.3H667c-2.4,0-4.3,1.9-4.3,4.3v81
				C684.3,1165.9,705.7,1167,726.8,1169.1z"/>
		</g>
		<g>
			<path class="st9" d="M832,1188.5v-103.6c0-2.4-1.9-4.3-4.3-4.3h-55.5c-2.4,0-4.3,1.9-4.3,4.3v89.7
				C789.7,1178.1,811.1,1182.8,832,1188.5z"/>
		</g>
		<g>
			<path class="st9" d="M937.3,1227.4v-142.5c0-2.4-1.9-4.3-4.3-4.3h-55.5c-2.4,0-4.3,1.9-4.3,4.3v116.4
				C895.1,1208.8,916.5,1217.5,937.3,1227.4z"/>
		</g>
		<g>
			<path class="st9" d="M1042.5,1290v-205.2c0-2.4-1.9-4.3-4.3-4.3h-55.5c-2.4,0-4.3,1.9-4.3,4.3v163.8
				C1000.7,1261.2,1022.1,1275,1042.5,1290z"/>
		</g>
	</g>
	<g class="st0">
		<path class="st3" d="M370.5,310c286.8,0,571.8,0,859.1,0c-11,7.8-20.2,14.3-29.3,21c-25.8,18.8-49.6,39.8-71.2,63.3
			c-2.8,3-8,5.5-12.1,5.5c-147,0.3-294,0.3-441,0.4c-62.9,0-125.8,0-188.7,0.2c-6.7,0-11.2-2.1-15.7-7.1
			C442.4,360.9,408.7,334.1,370.5,310z"/>
		<g class="st4">
			<defs>
				<path id="SVGID_00000008120318147936554400000016013120829390386588_" d="M500.7,430.2c199.5,0,397.5,0,597.1,0
					c-1.8,3.4-2.9,5.9-4.3,8.2c-13.6,23.1-23.7,47.5-26.1,74.4c-0.6,7.1-4.8,6.9-9.8,6.9c-41.1-0.1-82.3,0-123.4,0
					c-47.8,0-95.5,0-143.3,0c-83,0-166,0-248.9,0.3c-7.3,0-10.2-1.9-10.9-9.4c-2.2-24.5-11.4-46.7-23.4-67.9
					C505.7,438.9,503.5,435,500.7,430.2z"/>
			</defs>
			<use xlink:href="#SVGID_00000008120318147936554400000016013120829390386588_"  style="overflow:visible;fill:#0A0A3D;"/>
			<clipPath id="SVGID_00000083771845273366466780000003859234440969904301_">
				<use xlink:href="#SVGID_00000008120318147936554400000016013120829390386588_"  style="overflow:visible;"/>
			</clipPath>
		</g>
		<g class="st4">
			<g>
				<defs>
					<path id="SVGID_00000161620704876871835890000005314471901119693705_" d="M933,762.6h-55.5c-2.4,0-4.3-1.9-4.3-4.3V546.1
						c0-2.4,1.9-4.3,4.3-4.3H933c2.4,0,4.3,1.9,4.3,4.3v212.2C937.3,760.7,935.4,762.6,933,762.6z"/>
				</defs>
				<use xlink:href="#SVGID_00000161620704876871835890000005314471901119693705_"  style="overflow:visible;fill:#0A0A3D;"/>
				<clipPath id="SVGID_00000110472514433685547380000003465290571877334685_">
					<use xlink:href="#SVGID_00000161620704876871835890000005314471901119693705_"  style="overflow:visible;"/>
				</clipPath>
			</g>
			<g>
				<defs>
					<path id="SVGID_00000164492590730833571360000002904453232844897963_" d="M1038.3,762.6h-55.5c-2.4,0-4.3-1.9-4.3-4.3V546.1
						c0-2.4,1.9-4.3,4.3-4.3h55.5c2.4,0,4.3,1.9,4.3,4.3v212.2C1042.5,760.7,1040.6,762.6,1038.3,762.6z"/>
				</defs>
				<use xlink:href="#SVGID_00000164492590730833571360000002904453232844897963_"  style="overflow:visible;fill:#0A0A3D;"/>
				<clipPath id="SVGID_00000138550926590138376590000011109605882912547005_">
					<use xlink:href="#SVGID_00000164492590730833571360000002904453232844897963_"  style="overflow:visible;"/>
				</clipPath>
			</g>
			<g>
				<defs>
					<path id="SVGID_00000103239657729941141100000017519772720261050276_" d="M617.3,762.6h-55.5c-2.4,0-4.3-1.9-4.3-4.3V546.1
						c0-2.4,1.9-4.3,4.3-4.3h55.5c2.4,0,4.3,1.9,4.3,4.3v212.2C621.5,760.7,619.6,762.6,617.3,762.6z"/>
				</defs>
				<use xlink:href="#SVGID_00000103239657729941141100000017519772720261050276_"  style="overflow:visible;fill:#0A0A3D;"/>
				<clipPath id="SVGID_00000046315964901629864270000008941382108426467474_">
					<use xlink:href="#SVGID_00000103239657729941141100000017519772720261050276_"  style="overflow:visible;"/>
				</clipPath>
			</g>
			<g>
				<defs>
					<path id="SVGID_00000054978132074587184730000005660777885979456172_" d="M722.5,762.6H667c-2.4,0-4.3-1.9-4.3-4.3V546.1
						c0-2.4,1.9-4.3,4.3-4.3h55.5c2.4,0,4.3,1.9,4.3,4.3v212.2C726.8,760.7,724.9,762.6,722.5,762.6z"/>
				</defs>
				<use xlink:href="#SVGID_00000054978132074587184730000005660777885979456172_"  style="overflow:visible;fill:#0A0A3D;"/>
				<clipPath id="SVGID_00000171720533322456111740000004186425468526409881_">
					<use xlink:href="#SVGID_00000054978132074587184730000005660777885979456172_"  style="overflow:visible;"/>
				</clipPath>
			</g>
			<g>
				<defs>
					<path id="SVGID_00000077291663659144518130000004366720689172929460_" d="M827.8,762.6h-55.5c-2.4,0-4.3-1.9-4.3-4.3V546.1
						c0-2.4,1.9-4.3,4.3-4.3h55.5c2.4,0,4.3,1.9,4.3,4.3v212.2C832,760.7,830.1,762.6,827.8,762.6z"/>
				</defs>
				<use xlink:href="#SVGID_00000077291663659144518130000004366720689172929460_"  style="overflow:visible;fill:#0A0A3D;"/>
				<clipPath id="SVGID_00000147195086001786710340000016649351251118942108_">
					<use xlink:href="#SVGID_00000077291663659144518130000004366720689172929460_"  style="overflow:visible;"/>
				</clipPath>
			</g>
		</g>
		<text transform="matrix(1 0 0 1 413.084 946.9688)" class="st3 st5 st6">5pillars</text>
		<g class="st4">
			<g>
				<path class="st8" d="M586.2,998.1l-19.6,47.7c-0.2,0.7-0.6,1.2-1.2,1.6s-1.1,0.6-1.8,0.6c-1.1,0-1.8-0.3-2.3-0.9
					c-0.5-0.6-0.8-1.3-0.8-2c0-0.4,0.1-0.8,0.2-1.2l21.6-52.4c0.3-0.8,0.8-1.4,1.4-1.8c0.6-0.4,1.2-0.6,2-0.5c0.7,0,1.4,0.2,2,0.6
					c0.6,0.4,1,0.9,1.2,1.7l21.5,51.9c0.2,0.4,0.2,0.9,0.2,1.3c0,1-0.3,1.8-1,2.4c-0.7,0.6-1.4,0.9-2.3,0.9c-0.7,0-1.4-0.2-1.9-0.6
					c-0.6-0.4-1-1-1.3-1.7L584.3,998L586.2,998.1z M570.8,1032.2l2.8-6.5h24.8l1.3,6.5H570.8z"/>
				<path class="st8" d="M678.3,993.3c0.9,0.5,1.5,1.2,1.7,2.3c0.2,1-0.1,1.9-0.8,2.8c-0.5,0.7-1.1,1-1.9,1.1
					c-0.8,0.1-1.6-0.1-2.3-0.5c-1.8-1.1-3.8-2-5.9-2.6c-2.1-0.6-4.3-1-6.7-1c-3.3,0-6.3,0.6-9,1.7c-2.7,1.1-5.1,2.7-7.1,4.8
					c-2,2.1-3.6,4.5-4.7,7.4c-1.1,2.8-1.7,5.9-1.7,9.3c0,3.7,0.6,6.9,1.8,9.8s2.8,5.3,4.8,7.4c2,2,4.4,3.6,7.1,4.6
					c2.7,1.1,5.6,1.6,8.8,1.6c2.3,0,4.5-0.3,6.6-0.9c2.1-0.6,4.1-1.5,5.9-2.7c0.8-0.4,1.6-0.5,2.4-0.4c0.8,0.1,1.5,0.5,2,1.2
					c0.7,0.9,1,1.8,0.8,2.8c-0.2,1-0.7,1.7-1.6,2.2c-1.4,0.8-3,1.6-4.8,2.3c-1.8,0.7-3.6,1.2-5.5,1.6c-1.9,0.4-3.8,0.6-5.7,0.6
					c-4,0-7.8-0.7-11.3-2.1c-3.6-1.4-6.7-3.4-9.5-6s-4.9-5.7-6.5-9.4c-1.6-3.7-2.3-7.9-2.3-12.5c0-4.3,0.8-8.2,2.3-11.9
					c1.5-3.6,3.6-6.8,6.3-9.5c2.7-2.7,5.8-4.7,9.4-6.2c3.6-1.5,7.5-2.2,11.7-2.2c2.9,0,5.7,0.4,8.4,1.1
					C673.5,990.8,676,991.9,678.3,993.3z"/>
				<path class="st8" d="M726.9,998.1l-19.6,47.7c-0.2,0.7-0.6,1.2-1.2,1.6s-1.1,0.6-1.8,0.6c-1.1,0-1.8-0.3-2.3-0.9
					c-0.5-0.6-0.8-1.3-0.8-2c0-0.4,0.1-0.8,0.2-1.2l21.6-52.4c0.3-0.8,0.8-1.4,1.4-1.8c0.6-0.4,1.2-0.6,2-0.5c0.7,0,1.4,0.2,2,0.6
					c0.6,0.4,1,0.9,1.2,1.7l21.5,51.9c0.2,0.4,0.2,0.9,0.2,1.3c0,1-0.3,1.8-1,2.4c-0.7,0.6-1.4,0.9-2.3,0.9c-0.7,0-1.4-0.2-1.9-0.6
					c-0.6-0.4-1-1-1.3-1.7L725,998L726.9,998.1z M711.5,1032.2l2.8-6.5h24.8l1.3,6.5H711.5z"/>
				<path class="st8" d="M801.2,989.5c4.1,0,7.7,0.8,10.8,2.3c3.1,1.5,5.7,3.7,7.7,6.4c2.1,2.7,3.6,5.8,4.6,9.4
					c1,3.5,1.5,7.2,1.5,11.1c0,5.4-0.9,10.3-2.8,14.7c-1.8,4.4-4.6,7.9-8.2,10.5c-3.6,2.6-8.2,3.9-13.7,3.9h-20.8
					c-0.9,0-1.8-0.3-2.4-1s-1-1.5-1-2.4v-51.5c0-0.9,0.3-1.8,1-2.4s1.5-1,2.4-1H801.2z M800.3,1041.3c4.3,0,7.8-1,10.5-3.1
					c2.7-2.1,4.6-4.8,5.9-8.3c1.2-3.4,1.9-7.2,1.9-11.3c0-3-0.3-5.9-1-8.6c-0.7-2.7-1.8-5.1-3.3-7.3c-1.5-2.1-3.4-3.8-5.7-5
					c-2.3-1.2-5.1-1.8-8.3-1.8h-17l0.7-0.8v46.9l-0.5-0.8H800.3z"/>
				<path class="st8" d="M856.9,989.5h29.7c0.9,0,1.8,0.3,2.4,1c0.7,0.6,1,1.4,1,2.4c0,0.9-0.3,1.7-1,2.3c-0.7,0.6-1.5,0.9-2.4,0.9
					h-26.8l0.8-1.4v21l-0.8-0.9h23.2c0.9,0,1.8,0.3,2.4,0.9c0.7,0.6,1,1.4,1,2.4c0,0.9-0.3,1.7-1,2.3c-0.7,0.6-1.5,0.9-2.4,0.9
					h-22.9l0.6-0.8v21.6l-0.5-0.6h26.6c0.9,0,1.8,0.3,2.4,1s1,1.4,1,2.3c0,0.9-0.3,1.7-1,2.3c-0.7,0.6-1.5,0.9-2.4,0.9h-29.7
					c-0.9,0-1.8-0.3-2.4-1s-1-1.5-1-2.4v-51.5c0-0.9,0.3-1.8,1-2.4S855.9,989.5,856.9,989.5z"/>
				<path class="st8" d="M921.1,989.4c0.5,0,1,0.1,1.6,0.4c0.6,0.3,1,0.7,1.4,1.2l22.1,33.3l-3-0.1l22.3-33.3
					c0.8-1.1,1.7-1.6,2.8-1.6c0.9,0.1,1.7,0.4,2.4,1c0.7,0.6,1,1.4,1,2.4v51.6c0,0.9-0.3,1.8-1,2.4s-1.5,1-2.5,1
					c-1.1,0-1.9-0.3-2.5-1c-0.6-0.7-1-1.5-1-2.4v-45.2l2.1,0.3l-19.7,29.9c-0.3,0.4-0.7,0.8-1.2,1.1c-0.5,0.3-1,0.4-1.5,0.3
					c-0.5,0.1-1-0.1-1.5-0.3c-0.5-0.3-0.9-0.6-1.2-1.1l-19.4-29.8l1.8-2.3v47c0,0.9-0.3,1.8-0.9,2.4c-0.6,0.7-1.4,1-2.3,1
					c-0.9,0-1.7-0.3-2.3-1c-0.6-0.7-0.9-1.5-0.9-2.4v-51.6c0-0.9,0.3-1.7,1-2.4C919.3,989.7,920.1,989.4,921.1,989.4z"/>
				<path class="st8" d="M1038.6,989.2c0.9,0,1.7,0.3,2.4,1c0.6,0.7,1,1.4,1,2.3c0,0.4,0,0.8-0.1,1.1c-0.1,0.3-0.2,0.7-0.5,1
					l-19.3,27l1.1-4.1v26.8c0,0.9-0.3,1.8-1,2.4c-0.6,0.7-1.4,1-2.3,1c-1,0-1.8-0.3-2.5-1c-0.6-0.7-1-1.5-1-2.4v-26.3l0.5,2.3
					L998.2,995c-0.3-0.4-0.6-0.9-0.8-1.3c-0.2-0.4-0.2-0.8-0.2-1.2c0-1,0.4-1.8,1.2-2.4c0.8-0.6,1.6-0.9,2.4-0.9
					c1.1,0,2,0.5,2.8,1.5l17.3,23.7l-1.6-0.2l16.5-23.3C1036.5,989.7,1037.5,989.2,1038.6,989.2z"/>
			</g>
		</g>
		<path class="st3" d="M621.5,1167.1v-82.3c0-2.4-1.9-4.3-4.3-4.3h-55.5c-2.4,0-4.3,1.9-4.3,4.3v89.5
			C578.5,1170.9,599.9,1168.5,621.5,1167.1z"/>
		<path class="st3" d="M726.8,1169.1v-84.2c0-2.4-1.9-4.3-4.3-4.3H667c-2.4,0-4.3,1.9-4.3,4.3v81
			C684.3,1165.9,705.7,1167,726.8,1169.1z"/>
		<path class="st3" d="M832,1188.5v-103.6c0-2.4-1.9-4.3-4.3-4.3h-55.5c-2.4,0-4.3,1.9-4.3,4.3v89.7
			C789.7,1178.1,811.1,1182.8,832,1188.5z"/>
		<path class="st3" d="M937.3,1227.4v-142.5c0-2.4-1.9-4.3-4.3-4.3h-55.5c-2.4,0-4.3,1.9-4.3,4.3v116.4
			C895.1,1208.8,916.5,1217.5,937.3,1227.4z"/>
		<path class="st3" d="M1042.5,1290v-205.2c0-2.4-1.9-4.3-4.3-4.3h-55.5c-2.4,0-4.3,1.9-4.3,4.3v163.8
			C1000.7,1261.2,1022.1,1275,1042.5,1290z"/>
	</g>
	<g class="st0">
		<path class="st4" d="M370.5,310c286.8,0,571.8,0,859.1,0c-11,7.8-20.2,14.3-29.3,21c-25.8,18.8-49.6,39.8-71.2,63.3
			c-2.8,3-8,5.5-12.1,5.5c-147,0.3-294,0.3-441,0.4c-62.9,0-125.8,0-188.7,0.2c-6.7,0-11.2-2.1-15.7-7.1
			C442.4,360.9,408.7,334.1,370.5,310z"/>
		<g class="st4">
			<defs>
				<path id="SVGID_00000102527730018520000000000000215352902252538515_" d="M500.7,430.2c199.5,0,397.5,0,597.1,0
					c-1.8,3.4-2.9,5.9-4.3,8.2c-13.6,23.1-23.7,47.5-26.1,74.4c-0.6,7.1-4.8,6.9-9.8,6.9c-41.1-0.1-82.3,0-123.4,0
					c-47.8,0-95.5,0-143.3,0c-83,0-166,0-248.9,0.3c-7.3,0-10.2-1.9-10.9-9.4c-2.2-24.5-11.4-46.7-23.4-67.9
					C505.7,438.9,503.5,435,500.7,430.2z"/>
			</defs>
			<use xlink:href="#SVGID_00000102527730018520000000000000215352902252538515_"  style="overflow:visible;"/>
			<clipPath id="SVGID_00000080887710289931342570000002421463101825046964_">
				<use xlink:href="#SVGID_00000102527730018520000000000000215352902252538515_"  style="overflow:visible;"/>
			</clipPath>
		</g>
		<g class="st4">
			<g>
				<defs>
					<path id="SVGID_00000104686215743212364870000018424762961369728398_" d="M933,762.6h-55.5c-2.4,0-4.3-1.9-4.3-4.3V546.1
						c0-2.4,1.9-4.3,4.3-4.3H933c2.4,0,4.3,1.9,4.3,4.3v212.2C937.3,760.7,935.4,762.6,933,762.6z"/>
				</defs>
				<use xlink:href="#SVGID_00000104686215743212364870000018424762961369728398_"  style="overflow:visible;"/>
				<clipPath id="SVGID_00000018955751604766889790000002448444709041417344_">
					<use xlink:href="#SVGID_00000104686215743212364870000018424762961369728398_"  style="overflow:visible;"/>
				</clipPath>
			</g>
			<g>
				<defs>
					<path id="SVGID_00000139285648089772659930000016669734169295787967_" d="M1038.3,762.6h-55.5c-2.4,0-4.3-1.9-4.3-4.3V546.1
						c0-2.4,1.9-4.3,4.3-4.3h55.5c2.4,0,4.3,1.9,4.3,4.3v212.2C1042.5,760.7,1040.6,762.6,1038.3,762.6z"/>
				</defs>
				<use xlink:href="#SVGID_00000139285648089772659930000016669734169295787967_"  style="overflow:visible;"/>
				<clipPath id="SVGID_00000092427657030210039660000008824359477459404439_">
					<use xlink:href="#SVGID_00000139285648089772659930000016669734169295787967_"  style="overflow:visible;"/>
				</clipPath>
			</g>
			<g>
				<defs>
					<path id="SVGID_00000173150318120418159370000014693485066112212636_" d="M617.3,762.6h-55.5c-2.4,0-4.3-1.9-4.3-4.3V546.1
						c0-2.4,1.9-4.3,4.3-4.3h55.5c2.4,0,4.3,1.9,4.3,4.3v212.2C621.5,760.7,619.6,762.6,617.3,762.6z"/>
				</defs>
				<use xlink:href="#SVGID_00000173150318120418159370000014693485066112212636_"  style="overflow:visible;"/>
				<clipPath id="SVGID_00000013883138581301766830000016595942498723075996_">
					<use xlink:href="#SVGID_00000173150318120418159370000014693485066112212636_"  style="overflow:visible;"/>
				</clipPath>
			</g>
			<g>
				<defs>
					<path id="SVGID_00000178926599454764088710000000919095275755353219_" d="M722.5,762.6H667c-2.4,0-4.3-1.9-4.3-4.3V546.1
						c0-2.4,1.9-4.3,4.3-4.3h55.5c2.4,0,4.3,1.9,4.3,4.3v212.2C726.8,760.7,724.9,762.6,722.5,762.6z"/>
				</defs>
				<use xlink:href="#SVGID_00000178926599454764088710000000919095275755353219_"  style="overflow:visible;"/>
				<clipPath id="SVGID_00000097495042267957141910000010972016867472233142_">
					<use xlink:href="#SVGID_00000178926599454764088710000000919095275755353219_"  style="overflow:visible;"/>
				</clipPath>
			</g>
			<g>
				<defs>
					<path id="SVGID_00000114794921206143732960000010170296063699865776_" d="M827.8,762.6h-55.5c-2.4,0-4.3-1.9-4.3-4.3V546.1
						c0-2.4,1.9-4.3,4.3-4.3h55.5c2.4,0,4.3,1.9,4.3,4.3v212.2C832,760.7,830.1,762.6,827.8,762.6z"/>
				</defs>
				<use xlink:href="#SVGID_00000114794921206143732960000010170296063699865776_"  style="overflow:visible;"/>
				<clipPath id="SVGID_00000047751693754144211930000014690593875799569048_">
					<use xlink:href="#SVGID_00000114794921206143732960000010170296063699865776_"  style="overflow:visible;"/>
				</clipPath>
			</g>
		</g>
		<text transform="matrix(1 0 0 1 413.084 946.9688)" class="st4 st5 st6">5pillars</text>
		<g class="st4">
			<g>
				<path d="M586.2,998.1l-19.6,47.7c-0.2,0.7-0.6,1.2-1.2,1.6s-1.1,0.6-1.8,0.6c-1.1,0-1.8-0.3-2.3-0.9c-0.5-0.6-0.8-1.3-0.8-2
					c0-0.4,0.1-0.8,0.2-1.2l21.6-52.4c0.3-0.8,0.8-1.4,1.4-1.8c0.6-0.4,1.2-0.6,2-0.5c0.7,0,1.4,0.2,2,0.6c0.6,0.4,1,0.9,1.2,1.7
					l21.5,51.9c0.2,0.4,0.2,0.9,0.2,1.3c0,1-0.3,1.8-1,2.4c-0.7,0.6-1.4,0.9-2.3,0.9c-0.7,0-1.4-0.2-1.9-0.6c-0.6-0.4-1-1-1.3-1.7
					L584.3,998L586.2,998.1z M570.8,1032.2l2.8-6.5h24.8l1.3,6.5H570.8z"/>
				<path d="M678.3,993.3c0.9,0.5,1.5,1.2,1.7,2.3c0.2,1-0.1,1.9-0.8,2.8c-0.5,0.7-1.1,1-1.9,1.1c-0.8,0.1-1.6-0.1-2.3-0.5
					c-1.8-1.1-3.8-2-5.9-2.6c-2.1-0.6-4.3-1-6.7-1c-3.3,0-6.3,0.6-9,1.7c-2.7,1.1-5.1,2.7-7.1,4.8c-2,2.1-3.6,4.5-4.7,7.4
					c-1.1,2.8-1.7,5.9-1.7,9.3c0,3.7,0.6,6.9,1.8,9.8s2.8,5.3,4.8,7.4c2,2,4.4,3.6,7.1,4.6c2.7,1.1,5.6,1.6,8.8,1.6
					c2.3,0,4.5-0.3,6.6-0.9c2.1-0.6,4.1-1.5,5.9-2.7c0.8-0.4,1.6-0.5,2.4-0.4c0.8,0.1,1.5,0.5,2,1.2c0.7,0.9,1,1.8,0.8,2.8
					c-0.2,1-0.7,1.7-1.6,2.2c-1.4,0.8-3,1.6-4.8,2.3c-1.8,0.7-3.6,1.2-5.5,1.6c-1.9,0.4-3.8,0.6-5.7,0.6c-4,0-7.8-0.7-11.3-2.1
					c-3.6-1.4-6.7-3.4-9.5-6s-4.9-5.7-6.5-9.4c-1.6-3.7-2.3-7.9-2.3-12.5c0-4.3,0.8-8.2,2.3-11.9c1.5-3.6,3.6-6.8,6.3-9.5
					c2.7-2.7,5.8-4.7,9.4-6.2c3.6-1.5,7.5-2.2,11.7-2.2c2.9,0,5.7,0.4,8.4,1.1C673.5,990.8,676,991.9,678.3,993.3z"/>
				<path d="M726.9,998.1l-19.6,47.7c-0.2,0.7-0.6,1.2-1.2,1.6s-1.1,0.6-1.8,0.6c-1.1,0-1.8-0.3-2.3-0.9c-0.5-0.6-0.8-1.3-0.8-2
					c0-0.4,0.1-0.8,0.2-1.2l21.6-52.4c0.3-0.8,0.8-1.4,1.4-1.8c0.6-0.4,1.2-0.6,2-0.5c0.7,0,1.4,0.2,2,0.6c0.6,0.4,1,0.9,1.2,1.7
					l21.5,51.9c0.2,0.4,0.2,0.9,0.2,1.3c0,1-0.3,1.8-1,2.4c-0.7,0.6-1.4,0.9-2.3,0.9c-0.7,0-1.4-0.2-1.9-0.6c-0.6-0.4-1-1-1.3-1.7
					L725,998L726.9,998.1z M711.5,1032.2l2.8-6.5h24.8l1.3,6.5H711.5z"/>
				<path d="M801.2,989.5c4.1,0,7.7,0.8,10.8,2.3c3.1,1.5,5.7,3.7,7.7,6.4c2.1,2.7,3.6,5.8,4.6,9.4c1,3.5,1.5,7.2,1.5,11.1
					c0,5.4-0.9,10.3-2.8,14.7c-1.8,4.4-4.6,7.9-8.2,10.5c-3.6,2.6-8.2,3.9-13.7,3.9h-20.8c-0.9,0-1.8-0.3-2.4-1s-1-1.5-1-2.4v-51.5
					c0-0.9,0.3-1.8,1-2.4s1.5-1,2.4-1H801.2z M800.3,1041.3c4.3,0,7.8-1,10.5-3.1c2.7-2.1,4.6-4.8,5.9-8.3c1.2-3.4,1.9-7.2,1.9-11.3
					c0-3-0.3-5.9-1-8.6c-0.7-2.7-1.8-5.1-3.3-7.3c-1.5-2.1-3.4-3.8-5.7-5c-2.3-1.2-5.1-1.8-8.3-1.8h-17l0.7-0.8v46.9l-0.5-0.8H800.3
					z"/>
				<path d="M856.9,989.5h29.7c0.9,0,1.8,0.3,2.4,1c0.7,0.6,1,1.4,1,2.4c0,0.9-0.3,1.7-1,2.3c-0.7,0.6-1.5,0.9-2.4,0.9h-26.8
					l0.8-1.4v21l-0.8-0.9h23.2c0.9,0,1.8,0.3,2.4,0.9c0.7,0.6,1,1.4,1,2.4c0,0.9-0.3,1.7-1,2.3c-0.7,0.6-1.5,0.9-2.4,0.9h-22.9
					l0.6-0.8v21.6l-0.5-0.6h26.6c0.9,0,1.8,0.3,2.4,1s1,1.4,1,2.3c0,0.9-0.3,1.7-1,2.3c-0.7,0.6-1.5,0.9-2.4,0.9h-29.7
					c-0.9,0-1.8-0.3-2.4-1s-1-1.5-1-2.4v-51.5c0-0.9,0.3-1.8,1-2.4S855.9,989.5,856.9,989.5z"/>
				<path d="M921.1,989.4c0.5,0,1,0.1,1.6,0.4c0.6,0.3,1,0.7,1.4,1.2l22.1,33.3l-3-0.1l22.3-33.3c0.8-1.1,1.7-1.6,2.8-1.6
					c0.9,0.1,1.7,0.4,2.4,1c0.7,0.6,1,1.4,1,2.4v51.6c0,0.9-0.3,1.8-1,2.4s-1.5,1-2.5,1c-1.1,0-1.9-0.3-2.5-1c-0.6-0.7-1-1.5-1-2.4
					v-45.2l2.1,0.3l-19.7,29.9c-0.3,0.4-0.7,0.8-1.2,1.1c-0.5,0.3-1,0.4-1.5,0.3c-0.5,0.1-1-0.1-1.5-0.3c-0.5-0.3-0.9-0.6-1.2-1.1
					l-19.4-29.8l1.8-2.3v47c0,0.9-0.3,1.8-0.9,2.4c-0.6,0.7-1.4,1-2.3,1c-0.9,0-1.7-0.3-2.3-1c-0.6-0.7-0.9-1.5-0.9-2.4v-51.6
					c0-0.9,0.3-1.7,1-2.4C919.3,989.7,920.1,989.4,921.1,989.4z"/>
				<path d="M1038.6,989.2c0.9,0,1.7,0.3,2.4,1c0.6,0.7,1,1.4,1,2.3c0,0.4,0,0.8-0.1,1.1c-0.1,0.3-0.2,0.7-0.5,1l-19.3,27l1.1-4.1
					v26.8c0,0.9-0.3,1.8-1,2.4c-0.6,0.7-1.4,1-2.3,1c-1,0-1.8-0.3-2.5-1c-0.6-0.7-1-1.5-1-2.4v-26.3l0.5,2.3L998.2,995
					c-0.3-0.4-0.6-0.9-0.8-1.3c-0.2-0.4-0.2-0.8-0.2-1.2c0-1,0.4-1.8,1.2-2.4c0.8-0.6,1.6-0.9,2.4-0.9c1.1,0,2,0.5,2.8,1.5
					l17.3,23.7l-1.6-0.2l16.5-23.3C1036.5,989.7,1037.5,989.2,1038.6,989.2z"/>
			</g>
		</g>
		<path class="st4" d="M621.5,1167.1v-82.3c0-2.4-1.9-4.3-4.3-4.3h-55.5c-2.4,0-4.3,1.9-4.3,4.3v89.5
			C578.5,1170.9,599.9,1168.5,621.5,1167.1z"/>
		<path class="st4" d="M726.8,1169.1v-84.2c0-2.4-1.9-4.3-4.3-4.3H667c-2.4,0-4.3,1.9-4.3,4.3v81
			C684.3,1165.9,705.7,1167,726.8,1169.1z"/>
		<path class="st4" d="M832,1188.5v-103.6c0-2.4-1.9-4.3-4.3-4.3h-55.5c-2.4,0-4.3,1.9-4.3,4.3v89.7
			C789.7,1178.1,811.1,1182.8,832,1188.5z"/>
		<path class="st4" d="M937.3,1227.4v-142.5c0-2.4-1.9-4.3-4.3-4.3h-55.5c-2.4,0-4.3,1.9-4.3,4.3v116.4
			C895.1,1208.8,916.5,1217.5,937.3,1227.4z"/>
		<path class="st4" d="M1042.5,1290v-205.2c0-2.4-1.9-4.3-4.3-4.3h-55.5c-2.4,0-4.3,1.9-4.3,4.3v163.8
			C1000.7,1261.2,1022.1,1275,1042.5,1290z"/>
	</g>
</g>
<g id="Website" class="st0">
	<g>
		<g class="st4">
			<g>
				
					<image style="display:none;overflow:visible;" width="225" height="225" xlink:href="9E552F5B.jpg"  transform="matrix(2.037 0 0 2.037 274.4884 470.2624)">
				</image>
				<g class="st10">
					
						<image style="display:none;overflow:visible;" width="225" height="225" xlink:href="9E552F59.jpg"  transform="matrix(2.037 0 0 2.037 274.4884 470.2624)">
					</image>
				</g>
				<g class="st10">
					
						<image style="display:none;overflow:visible;" width="225" height="225" xlink:href="9E552F5F.jpg"  transform="matrix(2.037 0 0 2.037 274.4884 470.2624)">
					</image>
				</g>
				<g class="st10">
					
						<image style="display:none;overflow:visible;" width="225" height="225" xlink:href="9E552F58.jpg"  transform="matrix(2.037 0 0 2.037 274.4884 470.2624)">
					</image>
				</g>
				<g class="st10">
					
						<image style="display:none;overflow:visible;" width="225" height="225" xlink:href="9E552F56.jpg"  transform="matrix(2.037 0 0 2.037 274.4884 470.2624)">
					</image>
				</g>
				<g class="st10">
					
						<image style="display:none;overflow:visible;" width="225" height="225" xlink:href="9E552F57.jpg"  transform="matrix(2.037 0 0 2.037 274.4884 470.2624)">
					</image>
				</g>
			</g>
			<g>
				<g class="st10">
					
						<image style="display:none;overflow:visible;" width="225" height="225" xlink:href="9E552F67.jpg"  transform="matrix(2.037 0 0 2.037 245.1071 671.4183)">
					</image>
				</g>
				<g class="st10">
					
						<image style="display:none;overflow:visible;" width="225" height="225" xlink:href="9E552F69.jpg"  transform="matrix(2.037 0 0 2.037 245.1071 671.4183)">
					</image>
				</g>
				<g class="st10">
					
						<image style="display:none;overflow:visible;" width="225" height="225" xlink:href="9E552F6B.jpg"  transform="matrix(2.037 0 0 2.037 245.1071 671.4183)">
					</image>
				</g>
				<g class="st10">
					
						<image style="display:none;overflow:visible;" width="225" height="225" xlink:href="E24FD838.jpg"  transform="matrix(2.037 0 0 2.037 245.1071 671.4183)">
					</image>
				</g>
				<g class="st10">
					
						<image style="display:none;overflow:visible;" width="225" height="225" xlink:href="E24FD83F.jpg"  transform="matrix(2.037 0 0 2.037 245.1071 671.4183)">
					</image>
				</g>
			</g>
		</g>
		<text transform="matrix(1 0 0 1 707.1587 873.9782)" class="st2 st5 st11">5pillars</text>
		<g class="st4">
			<g>
				<path class="st7" d="M736,916.8l-16.4,39.9c-0.2,0.6-0.5,1-1,1.4c-0.5,0.3-1,0.5-1.5,0.5c-0.9,0-1.5-0.2-2-0.7s-0.7-1.1-0.7-1.7
					c0-0.3,0-0.7,0.1-1l18.1-43.9c0.3-0.7,0.7-1.1,1.2-1.5c0.5-0.3,1-0.5,1.6-0.4c0.6,0,1.2,0.2,1.6,0.5c0.5,0.3,0.8,0.8,1,1.4
					l18,43.5c0.1,0.4,0.2,0.7,0.2,1.1c0,0.8-0.3,1.5-0.8,2c-0.6,0.5-1.2,0.8-1.9,0.8c-0.6,0-1.1-0.2-1.6-0.5c-0.5-0.3-0.8-0.8-1-1.4
					l-16.6-39.9L736,916.8z M723.1,945.3l2.4-5.4h20.7l1,5.4H723.1z"/>
				<path class="st7" d="M813.1,912.8c0.8,0.4,1.3,1,1.4,1.9c0.1,0.8-0.1,1.6-0.6,2.4c-0.4,0.6-1,0.9-1.6,0.9
					c-0.7,0.1-1.3-0.1-2-0.4c-1.5-0.9-3.2-1.7-5-2.2c-1.8-0.5-3.6-0.8-5.6-0.8c-2.7,0-5.3,0.5-7.5,1.4c-2.3,0.9-4.3,2.3-5.9,4
					c-1.7,1.7-3,3.8-3.9,6.2c-0.9,2.4-1.4,5-1.4,7.8c0,3.1,0.5,5.8,1.5,8.2s2.3,4.5,4,6.2c1.7,1.7,3.7,3,5.9,3.9
					c2.3,0.9,4.7,1.3,7.4,1.3c1.9,0,3.7-0.3,5.5-0.8s3.4-1.3,5-2.2c0.7-0.3,1.3-0.4,2-0.3c0.7,0.1,1.2,0.4,1.6,1
					c0.6,0.7,0.8,1.5,0.7,2.3c-0.2,0.8-0.6,1.4-1.4,1.8c-1.2,0.7-2.5,1.3-4,1.9c-1.5,0.6-3,1-4.6,1.3c-1.6,0.3-3.2,0.5-4.8,0.5
					c-3.3,0-6.5-0.6-9.5-1.7s-5.6-2.8-7.9-5s-4.1-4.8-5.4-7.9c-1.3-3.1-2-6.6-2-10.5c0-3.6,0.6-6.9,1.9-9.9c1.3-3,3-5.7,5.2-7.9
					s4.8-4,7.8-5.2c3-1.2,6.3-1.8,9.8-1.8c2.4,0,4.8,0.3,7,0.9S811.2,911.5,813.1,912.8z"/>
				<path class="st7" d="M853.8,916.8l-16.4,39.9c-0.2,0.6-0.5,1-1,1.4c-0.5,0.3-1,0.5-1.5,0.5c-0.9,0-1.5-0.2-2-0.7
					s-0.7-1.1-0.7-1.7c0-0.3,0-0.7,0.1-1l18.1-43.9c0.3-0.7,0.7-1.1,1.2-1.5c0.5-0.3,1-0.5,1.6-0.4c0.6,0,1.2,0.2,1.6,0.5
					c0.5,0.3,0.8,0.8,1,1.4l18,43.5c0.1,0.4,0.2,0.7,0.2,1.1c0,0.8-0.3,1.5-0.8,2c-0.6,0.5-1.2,0.8-1.9,0.8c-0.6,0-1.1-0.2-1.6-0.5
					c-0.5-0.3-0.8-0.8-1-1.4l-16.6-39.9L853.8,916.8z M840.9,945.3l2.4-5.4H864l1,5.4H840.9z"/>
				<path class="st7" d="M915.9,909.5c3.4,0,6.5,0.6,9,1.9c2.6,1.3,4.7,3.1,6.5,5.3s3,4.9,3.9,7.8c0.9,3,1.3,6.1,1.3,9.3
					c0,4.5-0.8,8.6-2.3,12.3s-3.8,6.6-6.9,8.8s-6.9,3.3-11.5,3.3h-17.4c-0.8,0-1.5-0.3-2-0.8c-0.6-0.6-0.8-1.2-0.8-2v-43.1
					c0-0.8,0.3-1.5,0.8-2c0.6-0.6,1.2-0.8,2-0.8H915.9z M915.2,952.9c3.6,0,6.6-0.9,8.8-2.6c2.2-1.7,3.9-4,4.9-6.9
					c1-2.9,1.6-6,1.6-9.5c0-2.5-0.3-4.9-0.9-7.2c-0.6-2.3-1.5-4.3-2.7-6.1c-1.2-1.8-2.8-3.2-4.7-4.2s-4.2-1.5-6.9-1.5H901l0.6-0.6
					v39.3l-0.4-0.7H915.2z"/>
				<path class="st7" d="M962.5,909.5h24.8c0.8,0,1.5,0.3,2,0.8c0.6,0.5,0.8,1.2,0.8,2c0,0.8-0.3,1.4-0.8,1.9
					c-0.6,0.5-1.2,0.7-2,0.7h-22.5l0.6-1.2v17.6l-0.7-0.8h19.4c0.8,0,1.5,0.3,2,0.8c0.6,0.5,0.8,1.2,0.8,2c0,0.8-0.3,1.4-0.8,1.9
					c-0.6,0.5-1.2,0.7-2,0.7h-19.2l0.5-0.7v18.1l-0.4-0.5h22.3c0.8,0,1.5,0.3,2,0.8s0.8,1.2,0.8,1.9c0,0.8-0.3,1.4-0.8,2
					c-0.6,0.5-1.2,0.8-2,0.8h-24.8c-0.8,0-1.5-0.3-2-0.8c-0.6-0.6-0.8-1.2-0.8-2v-43.1c0-0.8,0.3-1.5,0.8-2
					C961.1,909.8,961.8,909.5,962.5,909.5z"/>
				<path class="st7" d="M1016.3,909.5c0.4,0,0.9,0.1,1.4,0.3c0.5,0.2,0.9,0.6,1.2,1l18.5,27.9l-2.5-0.1l18.7-27.8
					c0.7-0.9,1.4-1.3,2.4-1.3c0.7,0,1.4,0.3,2,0.9c0.6,0.5,0.9,1.2,0.9,2v43.2c0,0.8-0.3,1.5-0.8,2c-0.6,0.6-1.3,0.8-2.1,0.8
					c-0.9,0-1.6-0.3-2.1-0.8c-0.5-0.6-0.8-1.2-0.8-2v-37.8l1.7,0.3l-16.5,25.1c-0.3,0.4-0.6,0.7-1,0.9c-0.4,0.2-0.8,0.3-1.3,0.3
					c-0.4,0-0.8,0-1.3-0.3c-0.4-0.2-0.7-0.5-1-0.9l-16.3-25l1.5-1.9v39.4c0,0.8-0.3,1.5-0.8,2c-0.5,0.6-1.2,0.8-2,0.8
					s-1.4-0.3-2-0.8c-0.5-0.6-0.8-1.2-0.8-2v-43.2c0-0.7,0.3-1.4,0.8-2C1014.8,909.8,1015.5,909.5,1016.3,909.5z"/>
				<path class="st7" d="M1114.7,909.3c0.8,0,1.5,0.3,2,0.8c0.5,0.6,0.8,1.2,0.8,2c0,0.3,0,0.6-0.1,0.9s-0.2,0.6-0.4,0.8l-16.2,22.6
					l0.9-3.4v22.5c0,0.8-0.3,1.5-0.8,2c-0.5,0.6-1.2,0.8-1.9,0.8c-0.8,0-1.5-0.3-2.1-0.8c-0.5-0.6-0.8-1.2-0.8-2v-22l0.4,1.9
					l-15.6-21.2c-0.3-0.4-0.5-0.7-0.6-1.1s-0.2-0.7-0.2-1c0-0.8,0.3-1.5,1-2c0.7-0.5,1.3-0.8,2-0.8c0.9,0,1.7,0.4,2.3,1.3l14.4,19.8
					l-1.3-0.2l13.8-19.5C1112.9,909.8,1113.7,909.3,1114.7,909.3z"/>
			</g>
		</g>
		<g class="st4">
			<path class="st7" d="M251.4,669.4c153,0,305.1,0,458.3,0c-5.8,4.2-10.8,7.7-15.6,11.2c-13.8,10-26.5,21.2-38,33.8
				c-1.5,1.6-4.3,2.9-6.5,2.9c-78.4,0.2-156.8,0.2-235.3,0.2c-33.5,0-67.1,0-100.6,0.1c-3.6,0-6-1.1-8.4-3.8
				C289.7,696.5,271.8,682.2,251.4,669.4z"/>
			<g>
				<defs>
					<path id="SVGID_00000150070069353290511460000015505336991124277649_" d="M320.9,733.5c106.4,0,212.1,0,318.5,0
						c-0.9,1.8-1.6,3.1-2.3,4.4c-7.2,12.3-12.7,25.3-13.9,39.7c-0.3,3.8-2.6,3.7-5.2,3.7c-21.9,0-43.9,0-65.8,0c-25.5,0-51,0-76.4,0
						c-44.3,0-88.5,0-132.8,0.1c-3.9,0-5.4-1-5.8-5c-1.2-13.1-6.1-24.9-12.5-36.2C323.5,738.1,322.3,736.1,320.9,733.5z"/>
				</defs>
				<use xlink:href="#SVGID_00000150070069353290511460000015505336991124277649_"  style="overflow:visible;fill:#FFFFFF;"/>
				<clipPath id="SVGID_00000101100722361379871900000013960242718185745321_">
					<use xlink:href="#SVGID_00000150070069353290511460000015505336991124277649_"  style="overflow:visible;"/>
				</clipPath>
			</g>
			<g>
				<g>
					<g>
						<defs>
							<path id="SVGID_00000054256615039952822780000015857507400944712104_" d="M551.5,910.8h-29.6c-1.3,0-2.3-1-2.3-2.3V795.3
								c0-1.3,1-2.3,2.3-2.3h29.6c1.3,0,2.3,1,2.3,2.3v113.2C553.7,909.8,552.7,910.8,551.5,910.8z"/>
						</defs>
						<use xlink:href="#SVGID_00000054256615039952822780000015857507400944712104_"  style="overflow:visible;fill:#FFFFFF;"/>
						<clipPath id="SVGID_00000143578711498948475320000017673382291331055769_">
							<use xlink:href="#SVGID_00000054256615039952822780000015857507400944712104_"  style="overflow:visible;"/>
						</clipPath>
					</g>
					<g>
						<defs>
							<path id="SVGID_00000155107625976252118860000007663566924266861462_" d="M607.6,910.8H578c-1.3,0-2.3-1-2.3-2.3V795.3
								c0-1.3,1-2.3,2.3-2.3h29.6c1.3,0,2.3,1,2.3,2.3v113.2C609.9,909.8,608.9,910.8,607.6,910.8z"/>
						</defs>
						<use xlink:href="#SVGID_00000155107625976252118860000007663566924266861462_"  style="overflow:visible;fill:#FFFFFF;"/>
						<clipPath id="SVGID_00000029021728103903124960000002325359114085861547_">
							<use xlink:href="#SVGID_00000155107625976252118860000007663566924266861462_"  style="overflow:visible;"/>
						</clipPath>
					</g>
					<g>
						<defs>
							<path id="SVGID_00000034080742007237192980000001953634029100927159_" d="M383,910.8h-29.6c-1.3,0-2.3-1-2.3-2.3V795.3
								c0-1.3,1-2.3,2.3-2.3H383c1.3,0,2.3,1,2.3,2.3v113.2C385.3,909.8,384.3,910.8,383,910.8z"/>
						</defs>
						<use xlink:href="#SVGID_00000034080742007237192980000001953634029100927159_"  style="overflow:visible;fill:#FFFFFF;"/>
						<clipPath id="SVGID_00000119087253718327197360000017575977294507695488_">
							<use xlink:href="#SVGID_00000034080742007237192980000001953634029100927159_"  style="overflow:visible;"/>
						</clipPath>
					</g>
					<g>
						<defs>
							<path id="SVGID_00000142899064190725612400000002500188547853704596_" d="M439.2,910.8h-29.6c-1.3,0-2.3-1-2.3-2.3V795.3
								c0-1.3,1-2.3,2.3-2.3h29.6c1.3,0,2.3,1,2.3,2.3v113.2C441.4,909.8,440.4,910.8,439.2,910.8z"/>
						</defs>
						<use xlink:href="#SVGID_00000142899064190725612400000002500188547853704596_"  style="overflow:visible;fill:#FFFFFF;"/>
						<clipPath id="SVGID_00000001648665745809348490000010052436260117755571_">
							<use xlink:href="#SVGID_00000142899064190725612400000002500188547853704596_"  style="overflow:visible;"/>
						</clipPath>
					</g>
					<g>
						<defs>
							<path id="SVGID_00000062166408100294580890000015794494201773432252_" d="M495.3,910.8h-29.6c-1.3,0-2.3-1-2.3-2.3V795.3
								c0-1.3,1-2.3,2.3-2.3h29.6c1.3,0,2.3,1,2.3,2.3v113.2C497.6,909.8,496.6,910.8,495.3,910.8z"/>
						</defs>
						<use xlink:href="#SVGID_00000062166408100294580890000015794494201773432252_"  style="overflow:visible;fill:#FFFFFF;"/>
						<clipPath id="SVGID_00000069376909490685220070000012625999617561470102_">
							<use xlink:href="#SVGID_00000062166408100294580890000015794494201773432252_"  style="overflow:visible;"/>
						</clipPath>
					</g>
				</g>
				<path class="st7" d="M385.3,952.7v-43.9c0-1.3-1-2.3-2.3-2.3h-29.6c-1.3,0-2.3,1-2.3,2.3v47.7
					C362.3,954.7,373.7,953.4,385.3,952.7z"/>
				<path class="st7" d="M441.4,953.8v-44.9c0-1.3-1-2.3-2.3-2.3h-29.6c-1.3,0-2.3,1-2.3,2.3V952C418.8,952,430.2,952.6,441.4,953.8
					z"/>
				<path class="st7" d="M497.6,964.1v-55.3c0-1.3-1-2.3-2.3-2.3h-29.6c-1.3,0-2.3,1-2.3,2.3v47.8
					C475,958.6,486.4,961.1,497.6,964.1z"/>
				<path class="st7" d="M553.7,984.8v-76c0-1.3-1-2.3-2.3-2.3h-29.6c-1.3,0-2.3,1-2.3,2.3v62.1
					C531.2,974.9,542.7,979.6,553.7,984.8z"/>
				<path class="st7" d="M609.9,1018.3V908.8c0-1.3-1-2.3-2.3-2.3H578c-1.3,0-2.3,1-2.3,2.3v87.4
					C587.6,1002.9,599,1010.3,609.9,1018.3z"/>
			</g>
		</g>
	</g>
	<g class="st4">
		<g>
			
				<image style="display:none;overflow:visible;" width="225" height="225" xlink:href="E24FD839.jpg"  transform="matrix(2.037 0 0 2.037 274.4884 470.2624)">
			</image>
			<g class="st10">
				
					<image style="display:none;overflow:visible;" width="225" height="225" xlink:href="E24FD83B.jpg"  transform="matrix(2.037 0 0 2.037 274.4884 470.2624)">
				</image>
			</g>
			<g class="st10">
				
					<image style="display:none;overflow:visible;" width="225" height="225" xlink:href="E24FD826.jpg"  transform="matrix(2.037 0 0 2.037 274.4884 470.2624)">
				</image>
			</g>
			<g class="st10">
				
					<image style="display:none;overflow:visible;" width="225" height="225" xlink:href="E24FD827.jpg"  transform="matrix(2.037 0 0 2.037 274.4884 470.2624)">
				</image>
			</g>
			<g class="st10">
				
					<image style="display:none;overflow:visible;" width="225" height="225" xlink:href="E24FD828.jpg"  transform="matrix(2.037 0 0 2.037 274.4884 470.2624)">
				</image>
			</g>
			<g class="st10">
				
					<image style="display:none;overflow:visible;" width="225" height="225" xlink:href="E24FD82B.jpg"  transform="matrix(2.037 0 0 2.037 274.4884 470.2624)">
				</image>
			</g>
		</g>
		<g>
			<g class="st10">
				
					<image style="display:none;overflow:visible;" width="225" height="225" xlink:href="E24FD829.jpg"  transform="matrix(2.037 0 0 2.037 245.1071 671.4183)">
				</image>
			</g>
			<g class="st10">
				
					<image style="display:none;overflow:visible;" width="225" height="225" xlink:href="E24FD82F.jpg"  transform="matrix(2.037 0 0 2.037 245.1071 671.4183)">
				</image>
			</g>
			<g class="st10">
				
					<image style="display:none;overflow:visible;" width="225" height="225" xlink:href="E24FD843.jpg"  transform="matrix(2.037 0 0 2.037 245.1071 671.4183)">
				</image>
			</g>
			<g class="st10">
				
					<image style="display:none;overflow:visible;" width="225" height="225" xlink:href="E24FD84D.jpg"  transform="matrix(2.037 0 0 2.037 245.1071 671.4183)">
				</image>
			</g>
			<g class="st10">
				
					<image style="display:none;overflow:visible;" width="225" height="225" xlink:href="E24FD84F.jpg"  transform="matrix(2.037 0 0 2.037 245.1071 671.4183)">
				</image>
			</g>
		</g>
	</g>
	<g class="st4">
		<text transform="matrix(1 0 0 1 687.6046 835.3235)" class="st9 st5 st12">5pillars</text>
		<g>
			<g>
				<path class="st8" d="M721.4,885.5l-19.2,46.7c-0.2,0.7-0.6,1.2-1.1,1.6c-0.5,0.4-1.1,0.6-1.7,0.6c-1,0-1.8-0.3-2.3-0.9
					c-0.5-0.6-0.8-1.2-0.8-2c0-0.4,0.1-0.8,0.2-1.2l21.2-51.4c0.3-0.8,0.8-1.3,1.3-1.7c0.6-0.4,1.2-0.5,1.9-0.5
					c0.7,0,1.3,0.2,1.9,0.6c0.6,0.4,1,0.9,1.2,1.6l21.1,50.9c0.2,0.4,0.2,0.9,0.2,1.3c0,1-0.3,1.8-1,2.4c-0.7,0.6-1.4,0.9-2.2,0.9
					c-0.7,0-1.3-0.2-1.9-0.6c-0.5-0.4-1-1-1.2-1.7l-19.5-46.7L721.4,885.5z M706.2,918.9l2.8-6.4h24.3l1.2,6.4H706.2z"/>
				<path class="st8" d="M811.7,880.7c0.9,0.5,1.5,1.2,1.6,2.2c0.2,1-0.1,1.9-0.7,2.8c-0.5,0.7-1.1,1-1.9,1.1
					c-0.8,0.1-1.5-0.1-2.3-0.5c-1.8-1.1-3.7-1.9-5.8-2.6c-2.1-0.6-4.2-0.9-6.5-0.9c-3.2,0-6.2,0.5-8.8,1.6c-2.7,1.1-5,2.7-6.9,4.7
					c-2,2-3.5,4.5-4.6,7.2c-1.1,2.8-1.6,5.8-1.6,9.2c0,3.6,0.6,6.8,1.7,9.6c1.1,2.8,2.7,5.2,4.7,7.2c2,2,4.3,3.5,6.9,4.5
					c2.6,1,5.5,1.6,8.6,1.6c2.2,0,4.4-0.3,6.5-0.9c2.1-0.6,4-1.5,5.8-2.6c0.8-0.4,1.5-0.5,2.3-0.4c0.8,0.1,1.4,0.5,1.9,1.1
					c0.7,0.9,1,1.8,0.8,2.7c-0.2,1-0.7,1.7-1.6,2.2c-1.4,0.8-2.9,1.6-4.7,2.2c-1.7,0.7-3.6,1.2-5.4,1.6s-3.7,0.6-5.6,0.6
					c-3.9,0-7.6-0.7-11.1-2c-3.5-1.4-6.6-3.3-9.3-5.8s-4.8-5.6-6.3-9.2c-1.5-3.6-2.3-7.7-2.3-12.3c0-4.2,0.7-8.1,2.2-11.6
					c1.5-3.6,3.5-6.7,6.1-9.3s5.7-4.6,9.2-6.1c3.5-1.4,7.3-2.2,11.5-2.2c2.8,0,5.6,0.4,8.3,1.1C807,878.2,809.4,879.3,811.7,880.7z"
					/>
				<path class="st8" d="M859.3,885.5l-19.2,46.7c-0.2,0.7-0.6,1.2-1.1,1.6c-0.5,0.4-1.1,0.6-1.7,0.6c-1,0-1.8-0.3-2.3-0.9
					c-0.5-0.6-0.8-1.2-0.8-2c0-0.4,0.1-0.8,0.2-1.2l21.2-51.4c0.3-0.8,0.8-1.3,1.3-1.7c0.6-0.4,1.2-0.5,1.9-0.5
					c0.7,0,1.3,0.2,1.9,0.6c0.6,0.4,1,0.9,1.2,1.6l21.1,50.9c0.2,0.4,0.2,0.9,0.2,1.3c0,1-0.3,1.8-1,2.4c-0.7,0.6-1.4,0.9-2.2,0.9
					c-0.7,0-1.3-0.2-1.9-0.6c-0.5-0.4-1-1-1.2-1.7l-19.5-46.7L859.3,885.5z M844.2,918.9l2.8-6.4h24.3l1.2,6.4H844.2z"/>
				<path class="st8" d="M932.1,877c4,0,7.6,0.8,10.6,2.2c3,1.5,5.5,3.6,7.6,6.3c2,2.7,3.5,5.7,4.5,9.2c1,3.5,1.5,7.1,1.5,10.9
					c0,5.3-0.9,10.1-2.7,14.4c-1.8,4.3-4.5,7.8-8.1,10.3c-3.6,2.6-8,3.8-13.4,3.8h-20.4c-0.9,0-1.7-0.3-2.4-1c-0.7-0.7-1-1.4-1-2.4
					v-50.5c0-0.9,0.3-1.7,1-2.4c0.7-0.7,1.4-1,2.4-1H932.1z M931.3,927.8c4.2,0,7.7-1,10.3-3c2.6-2,4.5-4.7,5.8-8.1
					c1.2-3.4,1.8-7.1,1.8-11.1c0-2.9-0.3-5.7-1-8.4c-0.7-2.7-1.7-5-3.2-7.1c-1.4-2.1-3.3-3.7-5.6-4.9c-2.3-1.2-5-1.8-8.1-1.8h-16.7
					l0.7-0.7v46l-0.5-0.8H931.3z"/>
				<path class="st8" d="M986.7,877h29.1c0.9,0,1.7,0.3,2.4,0.9c0.7,0.6,1,1.4,1,2.3c0,0.9-0.3,1.7-1,2.2c-0.7,0.6-1.4,0.9-2.4,0.9
					h-26.3l0.7-1.4v20.6l-0.8-0.9h22.7c0.9,0,1.7,0.3,2.4,0.9c0.7,0.6,1,1.4,1,2.4c0,0.9-0.3,1.7-1,2.2c-0.7,0.6-1.4,0.9-2.4,0.9
					h-22.5l0.6-0.8v21.2l-0.5-0.6h26.1c0.9,0,1.7,0.3,2.4,1c0.7,0.7,1,1.4,1,2.2c0,0.9-0.3,1.7-1,2.3c-0.7,0.6-1.4,0.9-2.4,0.9
					h-29.1c-0.9,0-1.7-0.3-2.4-1c-0.7-0.7-1-1.4-1-2.4v-50.5c0-0.9,0.3-1.7,1-2.4C985,877.3,985.8,877,986.7,877z"/>
				<path class="st8" d="M1049.7,876.9c0.5,0,1,0.1,1.6,0.4c0.6,0.3,1,0.7,1.3,1.1l21.7,32.7l-2.9-0.1l21.9-32.6
					c0.8-1,1.7-1.6,2.8-1.6c0.9,0.1,1.6,0.4,2.3,1c0.7,0.6,1,1.4,1,2.3v50.6c0,0.9-0.3,1.7-1,2.4c-0.7,0.7-1.5,1-2.5,1
					c-1,0-1.9-0.3-2.5-1c-0.6-0.7-0.9-1.4-0.9-2.4v-44.3l2,0.3l-19.3,29.3c-0.3,0.4-0.7,0.8-1.2,1.1c-0.5,0.3-1,0.4-1.5,0.3
					c-0.5,0.1-1-0.1-1.5-0.3c-0.5-0.3-0.9-0.6-1.1-1.1l-19-29.3l1.7-2.2v46.1c0,0.9-0.3,1.7-0.9,2.4c-0.6,0.7-1.4,1-2.3,1
					c-0.9,0-1.7-0.3-2.3-1c-0.6-0.7-0.9-1.4-0.9-2.4v-50.6c0-0.9,0.3-1.6,1-2.3C1047.9,877.2,1048.8,876.9,1049.7,876.9z"/>
				<path class="st8" d="M1164.9,876.7c0.9,0,1.7,0.3,2.3,1c0.6,0.7,0.9,1.4,0.9,2.3c0,0.4,0,0.7-0.1,1.1c-0.1,0.3-0.2,0.7-0.4,1
					l-19,26.5l1.1-4v26.3c0,0.9-0.3,1.7-0.9,2.4c-0.6,0.7-1.4,1-2.2,1c-1,0-1.8-0.3-2.4-1c-0.6-0.7-0.9-1.4-0.9-2.4v-25.7l0.5,2.2
					l-18.3-24.8c-0.3-0.4-0.6-0.9-0.7-1.3c-0.2-0.4-0.2-0.8-0.2-1.2c0-1,0.4-1.8,1.2-2.4c0.8-0.6,1.6-0.9,2.3-0.9
					c1.1,0,2,0.5,2.7,1.5l16.9,23.2l-1.6-0.2l16.2-22.9C1162.9,877.3,1163.8,876.7,1164.9,876.7z"/>
			</g>
		</g>
		<path class="st8" d="M153.8,595.7c179.2,0,357.3,0,536.8,0c-6.8,4.9-12.6,9-18.3,13.1c-16.1,11.7-31,24.9-44.5,39.6
			c-1.7,1.9-5,3.4-7.6,3.4c-91.8,0.2-183.7,0.2-275.5,0.2c-39.3,0-78.6,0-117.9,0.1c-4.2,0-7-1.3-9.8-4.4
			C198.7,627.5,177.6,610.7,153.8,595.7z"/>
		<g>
			<defs>
				<path id="SVGID_00000079460884077641704060000016498974821526179729_" d="M235.2,670.8c124.6,0,248.4,0,373.1,0
					c-1.1,2.1-1.8,3.7-2.7,5.1c-8.5,14.4-14.8,29.7-16.3,46.5c-0.4,4.5-3,4.3-6.1,4.3c-25.7,0-51.4,0-77.1,0c-29.8,0-59.7,0-89.5,0
					c-51.8,0-103.7,0-155.5,0.2c-4.6,0-6.4-1.2-6.8-5.9c-1.4-15.3-7.1-29.2-14.6-42.5C238.2,676.2,236.9,673.8,235.2,670.8z"/>
			</defs>
			<use xlink:href="#SVGID_00000079460884077641704060000016498974821526179729_"  style="overflow:visible;fill:#0A0A3D;"/>
			<clipPath id="SVGID_00000135663425716058883090000009529030499536631228_">
				<use xlink:href="#SVGID_00000079460884077641704060000016498974821526179729_"  style="overflow:visible;"/>
			</clipPath>
		</g>
		<g>
			<g>
				<g>
					<defs>
						<path id="SVGID_00000122702690789134203940000015670252294786492083_" d="M505.2,878.5h-34.7c-1.5,0-2.7-1.2-2.7-2.7V743.2
							c0-1.5,1.2-2.7,2.7-2.7h34.7c1.5,0,2.7,1.2,2.7,2.7v132.6C507.9,877.3,506.7,878.5,505.2,878.5z"/>
					</defs>
					<use xlink:href="#SVGID_00000122702690789134203940000015670252294786492083_"  style="overflow:visible;fill:#D89F55;"/>
					<clipPath id="SVGID_00000158005086682182263710000007727461721485716374_">
						<use xlink:href="#SVGID_00000122702690789134203940000015670252294786492083_"  style="overflow:visible;"/>
					</clipPath>
				</g>
				<g>
					<defs>
						<path id="SVGID_00000064347244709306256580000012610688140468453023_" d="M571,878.5h-34.7c-1.5,0-2.7-1.2-2.7-2.7V743.2
							c0-1.5,1.2-2.7,2.7-2.7H571c1.5,0,2.7,1.2,2.7,2.7v132.6C573.7,877.3,572.5,878.5,571,878.5z"/>
					</defs>
					<use xlink:href="#SVGID_00000064347244709306256580000012610688140468453023_"  style="overflow:visible;fill:#D89F55;"/>
					<clipPath id="SVGID_00000116200016835745953310000000003555570537946800_">
						<use xlink:href="#SVGID_00000064347244709306256580000012610688140468453023_"  style="overflow:visible;"/>
					</clipPath>
				</g>
				<g>
					<defs>
						<path id="SVGID_00000101081986463402665450000000327891094191158928_" d="M308,878.5h-34.7c-1.5,0-2.7-1.2-2.7-2.7V743.2
							c0-1.5,1.2-2.7,2.7-2.7H308c1.5,0,2.7,1.2,2.7,2.7v132.6C310.6,877.3,309.4,878.5,308,878.5z"/>
					</defs>
					<use xlink:href="#SVGID_00000101081986463402665450000000327891094191158928_"  style="overflow:visible;fill:#D89F55;"/>
					<clipPath id="SVGID_00000011711565816365915980000017848397841285004169_">
						<use xlink:href="#SVGID_00000101081986463402665450000000327891094191158928_"  style="overflow:visible;"/>
					</clipPath>
				</g>
				<g>
					<defs>
						<path id="SVGID_00000172411455968987697980000002371750066283049113_" d="M373.7,878.5H339c-1.5,0-2.7-1.2-2.7-2.7V743.2
							c0-1.5,1.2-2.7,2.7-2.7h34.7c1.5,0,2.7,1.2,2.7,2.7v132.6C376.4,877.3,375.2,878.5,373.7,878.5z"/>
					</defs>
					<use xlink:href="#SVGID_00000172411455968987697980000002371750066283049113_"  style="overflow:visible;fill:#D89F55;"/>
					<clipPath id="SVGID_00000049222357483177975550000014435412071463031971_">
						<use xlink:href="#SVGID_00000172411455968987697980000002371750066283049113_"  style="overflow:visible;"/>
					</clipPath>
				</g>
				<g>
					<defs>
						<path id="SVGID_00000052063215754417609620000009860623856704968378_" d="M439.5,878.5h-34.7c-1.5,0-2.7-1.2-2.7-2.7V743.2
							c0-1.5,1.2-2.7,2.7-2.7h34.7c1.5,0,2.7,1.2,2.7,2.7v132.6C442.2,877.3,441,878.5,439.5,878.5z"/>
					</defs>
					<use xlink:href="#SVGID_00000052063215754417609620000009860623856704968378_"  style="overflow:visible;fill:#D89F55;"/>
					<clipPath id="SVGID_00000071521332019583691560000001651762980685393822_">
						<use xlink:href="#SVGID_00000052063215754417609620000009860623856704968378_"  style="overflow:visible;"/>
					</clipPath>
				</g>
			</g>
			<path class="st9" d="M310.6,927.5v-51.4c0-1.5-1.2-2.7-2.7-2.7h-34.7c-1.5,0-2.7,1.2-2.7,2.7V932
				C283.7,929.9,297.1,928.4,310.6,927.5z"/>
			<path class="st9" d="M376.4,928.8v-52.6c0-1.5-1.2-2.7-2.7-2.7H339c-1.5,0-2.7,1.2-2.7,2.7v50.6
				C349.9,926.8,363.2,927.4,376.4,928.8z"/>
			<path class="st9" d="M442.2,940.9v-64.8c0-1.5-1.2-2.7-2.7-2.7h-34.7c-1.5,0-2.7,1.2-2.7,2.7v56
				C415.7,934.4,429.1,937.3,442.2,940.9z"/>
			<path class="st9" d="M507.9,965.2v-89c0-1.5-1.2-2.7-2.7-2.7h-34.7c-1.5,0-2.7,1.2-2.7,2.7v72.7
				C481.6,953.6,494.9,959,507.9,965.2z"/>
			<path class="st9" d="M573.7,1004.3V876.1c0-1.5-1.2-2.7-2.7-2.7h-34.7c-1.5,0-2.7,1.2-2.7,2.7v102.4
				C547.5,986.3,560.9,994.9,573.7,1004.3z"/>
		</g>
	</g>
	<g>
		<text transform="matrix(1 0 0 1 707.1587 1155.9783)" class="st3 st5 st11">5pillars</text>
		<g class="st4">
			<g>
				<g>
					<path class="st9" d="M736,1198.8l-16.4,39.9c-0.2,0.6-0.5,1-1,1.4c-0.5,0.3-1,0.5-1.5,0.5c-0.9,0-1.5-0.2-2-0.7
						s-0.7-1.1-0.7-1.7c0-0.3,0-0.7,0.1-1l18.1-43.9c0.3-0.7,0.7-1.1,1.2-1.5c0.5-0.3,1-0.5,1.6-0.4c0.6,0,1.2,0.2,1.6,0.5
						c0.5,0.3,0.8,0.8,1,1.4l18,43.5c0.1,0.4,0.2,0.7,0.2,1.1c0,0.8-0.3,1.5-0.8,2c-0.6,0.5-1.2,0.8-1.9,0.8c-0.6,0-1.1-0.2-1.6-0.5
						c-0.5-0.3-0.8-0.8-1-1.4l-16.6-39.9L736,1198.8z M723.1,1227.3l2.4-5.4h20.7l1,5.4H723.1z"/>
					<path class="st9" d="M813.1,1194.8c0.8,0.4,1.3,1,1.4,1.9c0.1,0.8-0.1,1.6-0.6,2.4c-0.4,0.6-1,0.9-1.6,0.9
						c-0.7,0.1-1.3-0.1-2-0.4c-1.5-0.9-3.2-1.7-5-2.2c-1.8-0.5-3.6-0.8-5.6-0.8c-2.7,0-5.3,0.5-7.5,1.4c-2.3,0.9-4.3,2.3-5.9,4
						c-1.7,1.7-3,3.8-3.9,6.2c-0.9,2.4-1.4,5-1.4,7.8c0,3.1,0.5,5.8,1.5,8.2s2.3,4.5,4,6.2c1.7,1.7,3.7,3,5.9,3.9
						c2.3,0.9,4.7,1.3,7.4,1.3c1.9,0,3.7-0.3,5.5-0.8s3.4-1.3,5-2.2c0.7-0.3,1.3-0.4,2-0.3c0.7,0.1,1.2,0.4,1.6,1
						c0.6,0.7,0.8,1.5,0.7,2.3c-0.2,0.8-0.6,1.4-1.4,1.8c-1.2,0.7-2.5,1.3-4,1.9c-1.5,0.6-3,1-4.6,1.3c-1.6,0.3-3.2,0.5-4.8,0.5
						c-3.3,0-6.5-0.6-9.5-1.7s-5.6-2.8-7.9-5s-4.1-4.8-5.4-7.9c-1.3-3.1-2-6.6-2-10.5c0-3.6,0.6-6.9,1.9-9.9c1.3-3,3-5.7,5.2-7.9
						s4.8-4,7.8-5.2c3-1.2,6.3-1.8,9.8-1.8c2.4,0,4.8,0.3,7,0.9S811.2,1193.5,813.1,1194.8z"/>
					<path class="st9" d="M853.8,1198.8l-16.4,39.9c-0.2,0.6-0.5,1-1,1.4c-0.5,0.3-1,0.5-1.5,0.5c-0.9,0-1.5-0.2-2-0.7
						s-0.7-1.1-0.7-1.7c0-0.3,0-0.7,0.1-1l18.1-43.9c0.3-0.7,0.7-1.1,1.2-1.5c0.5-0.3,1-0.5,1.6-0.4c0.6,0,1.2,0.2,1.6,0.5
						c0.5,0.3,0.8,0.8,1,1.4l18,43.5c0.1,0.4,0.2,0.7,0.2,1.1c0,0.8-0.3,1.5-0.8,2c-0.6,0.5-1.2,0.8-1.9,0.8c-0.6,0-1.1-0.2-1.6-0.5
						c-0.5-0.3-0.8-0.8-1-1.4l-16.6-39.9L853.8,1198.8z M840.9,1227.3l2.4-5.4H864l1,5.4H840.9z"/>
					<path class="st9" d="M915.9,1191.5c3.4,0,6.5,0.6,9,1.9c2.6,1.3,4.7,3.1,6.5,5.3s3,4.9,3.9,7.8c0.9,3,1.3,6.1,1.3,9.3
						c0,4.5-0.8,8.6-2.3,12.3s-3.8,6.6-6.9,8.8s-6.9,3.3-11.5,3.3h-17.4c-0.8,0-1.5-0.3-2-0.8c-0.6-0.6-0.8-1.2-0.8-2v-43.1
						c0-0.8,0.3-1.5,0.8-2c0.6-0.6,1.2-0.8,2-0.8H915.9z M915.2,1234.9c3.6,0,6.6-0.9,8.8-2.6c2.2-1.7,3.9-4,4.9-6.9
						c1-2.9,1.6-6,1.6-9.5c0-2.5-0.3-4.9-0.9-7.2c-0.6-2.3-1.5-4.3-2.7-6.1c-1.2-1.8-2.8-3.2-4.7-4.2s-4.2-1.5-6.9-1.5H901l0.6-0.6
						v39.3l-0.4-0.7H915.2z"/>
					<path class="st9" d="M962.5,1191.5h24.8c0.8,0,1.5,0.3,2,0.8c0.6,0.5,0.8,1.2,0.8,2c0,0.8-0.3,1.4-0.8,1.9
						c-0.6,0.5-1.2,0.7-2,0.7h-22.5l0.6-1.2v17.6l-0.7-0.8h19.4c0.8,0,1.5,0.3,2,0.8c0.6,0.5,0.8,1.2,0.8,2c0,0.8-0.3,1.4-0.8,1.9
						c-0.6,0.5-1.2,0.7-2,0.7h-19.2l0.5-0.7v18.1l-0.4-0.5h22.3c0.8,0,1.5,0.3,2,0.8s0.8,1.2,0.8,1.9c0,0.8-0.3,1.4-0.8,2
						c-0.6,0.5-1.2,0.8-2,0.8h-24.8c-0.8,0-1.5-0.3-2-0.8c-0.6-0.6-0.8-1.2-0.8-2v-43.1c0-0.8,0.3-1.5,0.8-2
						C961.1,1191.8,961.8,1191.5,962.5,1191.5z"/>
					<path class="st9" d="M1016.3,1191.5c0.4,0,0.9,0.1,1.4,0.3c0.5,0.2,0.9,0.6,1.2,1l18.5,27.9l-2.5-0.1l18.7-27.8
						c0.7-0.9,1.4-1.3,2.4-1.3c0.7,0,1.4,0.3,2,0.9c0.6,0.5,0.9,1.2,0.9,2v43.2c0,0.8-0.3,1.5-0.8,2c-0.6,0.6-1.3,0.8-2.1,0.8
						c-0.9,0-1.6-0.3-2.1-0.8c-0.5-0.6-0.8-1.2-0.8-2v-37.8l1.7,0.3l-16.5,25.1c-0.3,0.4-0.6,0.7-1,0.9c-0.4,0.2-0.8,0.3-1.3,0.3
						c-0.4,0-0.8,0-1.3-0.3c-0.4-0.2-0.7-0.5-1-0.9l-16.3-25l1.5-1.9v39.4c0,0.8-0.3,1.5-0.8,2c-0.5,0.6-1.2,0.8-2,0.8
						s-1.4-0.3-2-0.8c-0.5-0.6-0.8-1.2-0.8-2v-43.2c0-0.7,0.3-1.4,0.8-2C1014.8,1191.8,1015.5,1191.5,1016.3,1191.5z"/>
					<path class="st9" d="M1114.7,1191.3c0.8,0,1.5,0.3,2,0.8c0.5,0.6,0.8,1.2,0.8,2c0,0.3,0,0.6-0.1,0.9s-0.2,0.6-0.4,0.8
						l-16.2,22.6l0.9-3.4v22.5c0,0.8-0.3,1.5-0.8,2c-0.5,0.6-1.2,0.8-1.9,0.8c-0.8,0-1.5-0.3-2.1-0.8c-0.5-0.6-0.8-1.2-0.8-2v-22
						l0.4,1.9l-15.6-21.2c-0.3-0.4-0.5-0.7-0.6-1.1s-0.2-0.7-0.2-1c0-0.8,0.3-1.5,1-2c0.7-0.5,1.3-0.8,2-0.8c0.9,0,1.7,0.4,2.3,1.3
						l14.4,19.8l-1.3-0.2l13.8-19.5C1112.9,1191.8,1113.7,1191.3,1114.7,1191.3z"/>
				</g>
			</g>
		</g>
		<path class="st1" d="M251.4,951.4c153,0,305.1,0,458.3,0c-5.8,4.2-10.8,7.7-15.6,11.2c-13.8,10-26.5,21.2-38,33.8
			c-1.5,1.6-4.3,2.9-6.5,2.9c-78.4,0.2-156.8,0.2-235.3,0.2c-33.5,0-67.1,0-100.6,0.1c-3.6,0-6-1.1-8.4-3.8
			C289.7,978.5,271.8,964.2,251.4,951.4z"/>
		<g class="st4">
			<defs>
				<path id="SVGID_00000176025897947582342310000005411941424589274010_" d="M320.9,1015.5c106.4,0,212.1,0,318.5,0
					c-0.9,1.8-1.6,3.1-2.3,4.4c-7.2,12.3-12.7,25.3-13.9,39.7c-0.3,3.8-2.6,3.7-5.2,3.7c-21.9,0-43.9,0-65.8,0c-25.5,0-51,0-76.4,0
					c-44.3,0-88.5,0-132.8,0.1c-3.9,0-5.4-1-5.8-5c-1.2-13.1-6.1-24.9-12.5-36.2C323.5,1020.1,322.3,1018.1,320.9,1015.5z"/>
			</defs>
			<use xlink:href="#SVGID_00000176025897947582342310000005411941424589274010_"  style="overflow:visible;fill:#D89F55;"/>
			<clipPath id="SVGID_00000166634169440119654050000003821391527407697288_">
				<use xlink:href="#SVGID_00000176025897947582342310000005411941424589274010_"  style="overflow:visible;"/>
			</clipPath>
		</g>
		<g class="st4">
			<g>
				<g>
					<defs>
						<path id="SVGID_00000089533445783139282410000017172040074032468898_" d="M551.5,1192.8h-29.6c-1.3,0-2.3-1-2.3-2.3v-113.2
							c0-1.3,1-2.3,2.3-2.3h29.6c1.3,0,2.3,1,2.3,2.3v113.2C553.7,1191.8,552.7,1192.8,551.5,1192.8z"/>
					</defs>
					<use xlink:href="#SVGID_00000089533445783139282410000017172040074032468898_"  style="overflow:visible;fill:#0A0A3D;"/>
					<clipPath id="SVGID_00000069378857180482714040000011883685769328321157_">
						<use xlink:href="#SVGID_00000089533445783139282410000017172040074032468898_"  style="overflow:visible;"/>
					</clipPath>
				</g>
				<g>
					<defs>
						<path id="SVGID_00000052097922999498049550000009185591829342484869_" d="M607.6,1192.8H578c-1.3,0-2.3-1-2.3-2.3v-113.2
							c0-1.3,1-2.3,2.3-2.3h29.6c1.3,0,2.3,1,2.3,2.3v113.2C609.9,1191.8,608.9,1192.8,607.6,1192.8z"/>
					</defs>
					<use xlink:href="#SVGID_00000052097922999498049550000009185591829342484869_"  style="overflow:visible;fill:#0A0A3D;"/>
					<clipPath id="SVGID_00000101810095745994462810000011404717406671532682_">
						<use xlink:href="#SVGID_00000052097922999498049550000009185591829342484869_"  style="overflow:visible;"/>
					</clipPath>
				</g>
				<g>
					<defs>
						<path id="SVGID_00000151533577784637158250000005596641650570774192_" d="M383,1192.8h-29.6c-1.3,0-2.3-1-2.3-2.3v-113.2
							c0-1.3,1-2.3,2.3-2.3H383c1.3,0,2.3,1,2.3,2.3v113.2C385.3,1191.8,384.3,1192.8,383,1192.8z"/>
					</defs>
					<use xlink:href="#SVGID_00000151533577784637158250000005596641650570774192_"  style="overflow:visible;fill:#0A0A3D;"/>
					<clipPath id="SVGID_00000065768772574755135250000006898295404629282955_">
						<use xlink:href="#SVGID_00000151533577784637158250000005596641650570774192_"  style="overflow:visible;"/>
					</clipPath>
				</g>
				<g>
					<defs>
						<path id="SVGID_00000120534914242542358340000009528500004534139578_" d="M439.2,1192.8h-29.6c-1.3,0-2.3-1-2.3-2.3v-113.2
							c0-1.3,1-2.3,2.3-2.3h29.6c1.3,0,2.3,1,2.3,2.3v113.2C441.4,1191.8,440.4,1192.8,439.2,1192.8z"/>
					</defs>
					<use xlink:href="#SVGID_00000120534914242542358340000009528500004534139578_"  style="overflow:visible;fill:#0A0A3D;"/>
					<clipPath id="SVGID_00000096765491530960717430000016481789391575718034_">
						<use xlink:href="#SVGID_00000120534914242542358340000009528500004534139578_"  style="overflow:visible;"/>
					</clipPath>
				</g>
				<g>
					<defs>
						<path id="SVGID_00000066475854278571022350000012972174697848808876_" d="M495.3,1192.8h-29.6c-1.3,0-2.3-1-2.3-2.3v-113.2
							c0-1.3,1-2.3,2.3-2.3h29.6c1.3,0,2.3,1,2.3,2.3v113.2C497.6,1191.8,496.6,1192.8,495.3,1192.8z"/>
					</defs>
					<use xlink:href="#SVGID_00000066475854278571022350000012972174697848808876_"  style="overflow:visible;fill:#0A0A3D;"/>
					<clipPath id="SVGID_00000073713418047165035140000010858423813845650355_">
						<use xlink:href="#SVGID_00000066475854278571022350000012972174697848808876_"  style="overflow:visible;"/>
					</clipPath>
				</g>
			</g>
			<path class="st8" d="M385.3,1234.7v-43.9c0-1.3-1-2.3-2.3-2.3h-29.6c-1.3,0-2.3,1-2.3,2.3v47.7
				C362.3,1236.7,373.7,1235.4,385.3,1234.7z"/>
			<path class="st8" d="M441.4,1235.8v-44.9c0-1.3-1-2.3-2.3-2.3h-29.6c-1.3,0-2.3,1-2.3,2.3v43.2
				C418.8,1234,430.2,1234.6,441.4,1235.8z"/>
			<path class="st8" d="M497.6,1246.1v-55.3c0-1.3-1-2.3-2.3-2.3h-29.6c-1.3,0-2.3,1-2.3,2.3v47.8
				C475,1240.6,486.4,1243.1,497.6,1246.1z"/>
			<path class="st8" d="M553.7,1266.8v-76c0-1.3-1-2.3-2.3-2.3h-29.6c-1.3,0-2.3,1-2.3,2.3v62.1
				C531.2,1256.9,542.7,1261.6,553.7,1266.8z"/>
			<path class="st8" d="M609.9,1300.3v-109.4c0-1.3-1-2.3-2.3-2.3H578c-1.3,0-2.3,1-2.3,2.3v87.4
				C587.6,1284.9,599,1292.3,609.9,1300.3z"/>
		</g>
	</g>
	<g>
		<g class="st4">
			<g>
				
					<image style="display:none;overflow:visible;" width="225" height="225" xlink:href="E24FD842.jpg"  transform="matrix(2.037 0 0 2.037 274.4884 470.2624)">
				</image>
				<g class="st10">
					
						<image style="display:none;overflow:visible;" width="225" height="225" xlink:href="E24FD841.jpg"  transform="matrix(2.037 0 0 2.037 274.4884 470.2624)">
					</image>
				</g>
				<g class="st10">
					
						<image style="display:none;overflow:visible;" width="225" height="225" xlink:href="E24FD845.jpg"  transform="matrix(2.037 0 0 2.037 274.4884 470.2624)">
					</image>
				</g>
				<g class="st10">
					
						<image style="display:none;overflow:visible;" width="225" height="225" xlink:href="E24FD847.jpg"  transform="matrix(2.037 0 0 2.037 274.4884 470.2624)">
					</image>
				</g>
				<g class="st10">
					
						<image style="display:none;overflow:visible;" width="225" height="225" xlink:href="E24FD840.jpg"  transform="matrix(2.037 0 0 2.037 274.4884 470.2624)">
					</image>
				</g>
				<g class="st10">
					
						<image style="display:none;overflow:visible;" width="225" height="225" xlink:href="E24FD87F.jpg"  transform="matrix(2.037 0 0 2.037 274.4884 470.2624)">
					</image>
				</g>
			</g>
			<g>
				<g class="st10">
					
						<image style="display:none;overflow:visible;" width="225" height="225" xlink:href="E24FD87D.jpg"  transform="matrix(2.037 0 0 2.037 245.1071 671.4183)">
					</image>
				</g>
				<g class="st10">
					
						<image style="display:none;overflow:visible;" width="225" height="225" xlink:href="E24FD862.jpg"  transform="matrix(2.037 0 0 2.037 245.1071 671.4183)">
					</image>
				</g>
				<g class="st10">
					
						<image style="display:none;overflow:visible;" width="225" height="225" xlink:href="E24FD85D.jpg"  transform="matrix(2.037 0 0 2.037 245.1071 671.4183)">
					</image>
				</g>
				<g class="st10">
					
						<image style="display:none;overflow:visible;" width="225" height="225" xlink:href="E24FD85E.jpg"  transform="matrix(2.037 0 0 2.037 245.1071 671.4183)">
					</image>
				</g>
				<g class="st10">
					
						<image style="display:none;overflow:visible;" width="225" height="225" xlink:href="E24FD85C.jpg"  transform="matrix(2.037 0 0 2.037 245.1071 671.4183)">
					</image>
				</g>
			</g>
		</g>
		<text transform="matrix(1 0 0 1 707.1587 873.9782)" class="st3 st5 st11">5pillars</text>
		<g class="st4">
			<g>
				<path class="st8" d="M736,916.8l-16.4,39.9c-0.2,0.6-0.5,1-1,1.4c-0.5,0.3-1,0.5-1.5,0.5c-0.9,0-1.5-0.2-2-0.7s-0.7-1.1-0.7-1.7
					c0-0.3,0-0.7,0.1-1l18.1-43.9c0.3-0.7,0.7-1.1,1.2-1.5c0.5-0.3,1-0.5,1.6-0.4c0.6,0,1.2,0.2,1.6,0.5c0.5,0.3,0.8,0.8,1,1.4
					l18,43.5c0.1,0.4,0.2,0.7,0.2,1.1c0,0.8-0.3,1.5-0.8,2c-0.6,0.5-1.2,0.8-1.9,0.8c-0.6,0-1.1-0.2-1.6-0.5c-0.5-0.3-0.8-0.8-1-1.4
					l-16.6-39.9L736,916.8z M723.1,945.3l2.4-5.4h20.7l1,5.4H723.1z"/>
				<path class="st8" d="M813.1,912.8c0.8,0.4,1.3,1,1.4,1.9c0.1,0.8-0.1,1.6-0.6,2.4c-0.4,0.6-1,0.9-1.6,0.9
					c-0.7,0.1-1.3-0.1-2-0.4c-1.5-0.9-3.2-1.7-5-2.2c-1.8-0.5-3.6-0.8-5.6-0.8c-2.7,0-5.3,0.5-7.5,1.4c-2.3,0.9-4.3,2.3-5.9,4
					c-1.7,1.7-3,3.8-3.9,6.2c-0.9,2.4-1.4,5-1.4,7.8c0,3.1,0.5,5.8,1.5,8.2s2.3,4.5,4,6.2c1.7,1.7,3.7,3,5.9,3.9
					c2.3,0.9,4.7,1.3,7.4,1.3c1.9,0,3.7-0.3,5.5-0.8s3.4-1.3,5-2.2c0.7-0.3,1.3-0.4,2-0.3c0.7,0.1,1.2,0.4,1.6,1
					c0.6,0.7,0.8,1.5,0.7,2.3c-0.2,0.8-0.6,1.4-1.4,1.8c-1.2,0.7-2.5,1.3-4,1.9c-1.5,0.6-3,1-4.6,1.3c-1.6,0.3-3.2,0.5-4.8,0.5
					c-3.3,0-6.5-0.6-9.5-1.7s-5.6-2.8-7.9-5s-4.1-4.8-5.4-7.9c-1.3-3.1-2-6.6-2-10.5c0-3.6,0.6-6.9,1.9-9.9c1.3-3,3-5.7,5.2-7.9
					s4.8-4,7.8-5.2c3-1.2,6.3-1.8,9.8-1.8c2.4,0,4.8,0.3,7,0.9S811.2,911.5,813.1,912.8z"/>
				<path class="st8" d="M853.8,916.8l-16.4,39.9c-0.2,0.6-0.5,1-1,1.4c-0.5,0.3-1,0.5-1.5,0.5c-0.9,0-1.5-0.2-2-0.7
					s-0.7-1.1-0.7-1.7c0-0.3,0-0.7,0.1-1l18.1-43.9c0.3-0.7,0.7-1.1,1.2-1.5c0.5-0.3,1-0.5,1.6-0.4c0.6,0,1.2,0.2,1.6,0.5
					c0.5,0.3,0.8,0.8,1,1.4l18,43.5c0.1,0.4,0.2,0.7,0.2,1.1c0,0.8-0.3,1.5-0.8,2c-0.6,0.5-1.2,0.8-1.9,0.8c-0.6,0-1.1-0.2-1.6-0.5
					c-0.5-0.3-0.8-0.8-1-1.4l-16.6-39.9L853.8,916.8z M840.9,945.3l2.4-5.4H864l1,5.4H840.9z"/>
				<path class="st8" d="M915.9,909.5c3.4,0,6.5,0.6,9,1.9c2.6,1.3,4.7,3.1,6.5,5.3s3,4.9,3.9,7.8c0.9,3,1.3,6.1,1.3,9.3
					c0,4.5-0.8,8.6-2.3,12.3s-3.8,6.6-6.9,8.8s-6.9,3.3-11.5,3.3h-17.4c-0.8,0-1.5-0.3-2-0.8c-0.6-0.6-0.8-1.2-0.8-2v-43.1
					c0-0.8,0.3-1.5,0.8-2c0.6-0.6,1.2-0.8,2-0.8H915.9z M915.2,952.9c3.6,0,6.6-0.9,8.8-2.6c2.2-1.7,3.9-4,4.9-6.9
					c1-2.9,1.6-6,1.6-9.5c0-2.5-0.3-4.9-0.9-7.2c-0.6-2.3-1.5-4.3-2.7-6.1c-1.2-1.8-2.8-3.2-4.7-4.2s-4.2-1.5-6.9-1.5H901l0.6-0.6
					v39.3l-0.4-0.7H915.2z"/>
				<path class="st8" d="M962.5,909.5h24.8c0.8,0,1.5,0.3,2,0.8c0.6,0.5,0.8,1.2,0.8,2c0,0.8-0.3,1.4-0.8,1.9
					c-0.6,0.5-1.2,0.7-2,0.7h-22.5l0.6-1.2v17.6l-0.7-0.8h19.4c0.8,0,1.5,0.3,2,0.8c0.6,0.5,0.8,1.2,0.8,2c0,0.8-0.3,1.4-0.8,1.9
					c-0.6,0.5-1.2,0.7-2,0.7h-19.2l0.5-0.7v18.1l-0.4-0.5h22.3c0.8,0,1.5,0.3,2,0.8s0.8,1.2,0.8,1.9c0,0.8-0.3,1.4-0.8,2
					c-0.6,0.5-1.2,0.8-2,0.8h-24.8c-0.8,0-1.5-0.3-2-0.8c-0.6-0.6-0.8-1.2-0.8-2v-43.1c0-0.8,0.3-1.5,0.8-2
					C961.1,909.8,961.8,909.5,962.5,909.5z"/>
				<path class="st8" d="M1016.3,909.5c0.4,0,0.9,0.1,1.4,0.3c0.5,0.2,0.9,0.6,1.2,1l18.5,27.9l-2.5-0.1l18.7-27.8
					c0.7-0.9,1.4-1.3,2.4-1.3c0.7,0,1.4,0.3,2,0.9c0.6,0.5,0.9,1.2,0.9,2v43.2c0,0.8-0.3,1.5-0.8,2c-0.6,0.6-1.3,0.8-2.1,0.8
					c-0.9,0-1.6-0.3-2.1-0.8c-0.5-0.6-0.8-1.2-0.8-2v-37.8l1.7,0.3l-16.5,25.1c-0.3,0.4-0.6,0.7-1,0.9c-0.4,0.2-0.8,0.3-1.3,0.3
					c-0.4,0-0.8,0-1.3-0.3c-0.4-0.2-0.7-0.5-1-0.9l-16.3-25l1.5-1.9v39.4c0,0.8-0.3,1.5-0.8,2c-0.5,0.6-1.2,0.8-2,0.8
					s-1.4-0.3-2-0.8c-0.5-0.6-0.8-1.2-0.8-2v-43.2c0-0.7,0.3-1.4,0.8-2C1014.8,909.8,1015.5,909.5,1016.3,909.5z"/>
				<path class="st8" d="M1114.7,909.3c0.8,0,1.5,0.3,2,0.8c0.5,0.6,0.8,1.2,0.8,2c0,0.3,0,0.6-0.1,0.9s-0.2,0.6-0.4,0.8l-16.2,22.6
					l0.9-3.4v22.5c0,0.8-0.3,1.5-0.8,2c-0.5,0.6-1.2,0.8-1.9,0.8c-0.8,0-1.5-0.3-2.1-0.8c-0.5-0.6-0.8-1.2-0.8-2v-22l0.4,1.9
					l-15.6-21.2c-0.3-0.4-0.5-0.7-0.6-1.1s-0.2-0.7-0.2-1c0-0.8,0.3-1.5,1-2c0.7-0.5,1.3-0.8,2-0.8c0.9,0,1.7,0.4,2.3,1.3l14.4,19.8
					l-1.3-0.2l13.8-19.5C1112.9,909.8,1113.7,909.3,1114.7,909.3z"/>
			</g>
		</g>
		<g class="st4">
			<path class="st8" d="M251.4,669.4c153,0,305.1,0,458.3,0c-5.8,4.2-10.8,7.7-15.6,11.2c-13.8,10-26.5,21.2-38,33.8
				c-1.5,1.6-4.3,2.9-6.5,2.9c-78.4,0.2-156.8,0.2-235.3,0.2c-33.5,0-67.1,0-100.6,0.1c-3.6,0-6-1.1-8.4-3.8
				C289.7,696.5,271.8,682.2,251.4,669.4z"/>
			<g>
				<defs>
					<path id="SVGID_00000078731745180826199350000005157685229013982121_" d="M320.9,733.5c106.4,0,212.1,0,318.5,0
						c-0.9,1.8-1.6,3.1-2.3,4.4c-7.2,12.3-12.7,25.3-13.9,39.7c-0.3,3.8-2.6,3.7-5.2,3.7c-21.9,0-43.9,0-65.8,0c-25.5,0-51,0-76.4,0
						c-44.3,0-88.5,0-132.8,0.1c-3.9,0-5.4-1-5.8-5c-1.2-13.1-6.1-24.9-12.5-36.2C323.5,738.1,322.3,736.1,320.9,733.5z"/>
				</defs>
				<use xlink:href="#SVGID_00000078731745180826199350000005157685229013982121_"  style="overflow:visible;fill:#0A0A3D;"/>
				<clipPath id="SVGID_00000066504755679975620300000006406288951252040862_">
					<use xlink:href="#SVGID_00000078731745180826199350000005157685229013982121_"  style="overflow:visible;"/>
				</clipPath>
			</g>
			<g>
				<g>
					<g>
						<defs>
							<path id="SVGID_00000061456993711066242330000007013513252901617573_" d="M551.5,910.8h-29.6c-1.3,0-2.3-1-2.3-2.3V795.3
								c0-1.3,1-2.3,2.3-2.3h29.6c1.3,0,2.3,1,2.3,2.3v113.2C553.7,909.8,552.7,910.8,551.5,910.8z"/>
						</defs>
						<use xlink:href="#SVGID_00000061456993711066242330000007013513252901617573_"  style="overflow:visible;fill:#0A0A3D;"/>
						<clipPath id="SVGID_00000145041720894917495460000003757356287790783415_">
							<use xlink:href="#SVGID_00000061456993711066242330000007013513252901617573_"  style="overflow:visible;"/>
						</clipPath>
					</g>
					<g>
						<defs>
							<path id="SVGID_00000131359154801198380580000008780948658139490738_" d="M607.6,910.8H578c-1.3,0-2.3-1-2.3-2.3V795.3
								c0-1.3,1-2.3,2.3-2.3h29.6c1.3,0,2.3,1,2.3,2.3v113.2C609.9,909.8,608.9,910.8,607.6,910.8z"/>
						</defs>
						<use xlink:href="#SVGID_00000131359154801198380580000008780948658139490738_"  style="overflow:visible;fill:#0A0A3D;"/>
						<clipPath id="SVGID_00000164480300786548445900000007109941442922920600_">
							<use xlink:href="#SVGID_00000131359154801198380580000008780948658139490738_"  style="overflow:visible;"/>
						</clipPath>
					</g>
					<g>
						<defs>
							<path id="SVGID_00000111170758744744535990000009344089534787032217_" d="M383,910.8h-29.6c-1.3,0-2.3-1-2.3-2.3V795.3
								c0-1.3,1-2.3,2.3-2.3H383c1.3,0,2.3,1,2.3,2.3v113.2C385.3,909.8,384.3,910.8,383,910.8z"/>
						</defs>
						<use xlink:href="#SVGID_00000111170758744744535990000009344089534787032217_"  style="overflow:visible;fill:#0A0A3D;"/>
						<clipPath id="SVGID_00000151522309242284691410000008872623724918943114_">
							<use xlink:href="#SVGID_00000111170758744744535990000009344089534787032217_"  style="overflow:visible;"/>
						</clipPath>
					</g>
					<g>
						<defs>
							<path id="SVGID_00000046299215370595413860000016752059077928799917_" d="M439.2,910.8h-29.6c-1.3,0-2.3-1-2.3-2.3V795.3
								c0-1.3,1-2.3,2.3-2.3h29.6c1.3,0,2.3,1,2.3,2.3v113.2C441.4,909.8,440.4,910.8,439.2,910.8z"/>
						</defs>
						<use xlink:href="#SVGID_00000046299215370595413860000016752059077928799917_"  style="overflow:visible;fill:#0A0A3D;"/>
						<clipPath id="SVGID_00000157292048221371091970000010797832422294969504_">
							<use xlink:href="#SVGID_00000046299215370595413860000016752059077928799917_"  style="overflow:visible;"/>
						</clipPath>
					</g>
					<g>
						<defs>
							<path id="SVGID_00000122699440003635004250000013438163746230811580_" d="M495.3,910.8h-29.6c-1.3,0-2.3-1-2.3-2.3V795.3
								c0-1.3,1-2.3,2.3-2.3h29.6c1.3,0,2.3,1,2.3,2.3v113.2C497.6,909.8,496.6,910.8,495.3,910.8z"/>
						</defs>
						<use xlink:href="#SVGID_00000122699440003635004250000013438163746230811580_"  style="overflow:visible;fill:#0A0A3D;"/>
						<clipPath id="SVGID_00000076592742912950526100000002119983752252494251_">
							<use xlink:href="#SVGID_00000122699440003635004250000013438163746230811580_"  style="overflow:visible;"/>
						</clipPath>
					</g>
				</g>
				<path class="st8" d="M385.3,952.7v-43.9c0-1.3-1-2.3-2.3-2.3h-29.6c-1.3,0-2.3,1-2.3,2.3v47.7
					C362.3,954.7,373.7,953.4,385.3,952.7z"/>
				<path class="st8" d="M441.4,953.8v-44.9c0-1.3-1-2.3-2.3-2.3h-29.6c-1.3,0-2.3,1-2.3,2.3V952C418.8,952,430.2,952.6,441.4,953.8
					z"/>
				<path class="st8" d="M497.6,964.1v-55.3c0-1.3-1-2.3-2.3-2.3h-29.6c-1.3,0-2.3,1-2.3,2.3v47.8
					C475,958.6,486.4,961.1,497.6,964.1z"/>
				<path class="st8" d="M553.7,984.8v-76c0-1.3-1-2.3-2.3-2.3h-29.6c-1.3,0-2.3,1-2.3,2.3v62.1
					C531.2,974.9,542.7,979.6,553.7,984.8z"/>
				<path class="st8" d="M609.9,1018.3V908.8c0-1.3-1-2.3-2.3-2.3H578c-1.3,0-2.3,1-2.3,2.3v87.4
					C587.6,1002.9,599,1010.3,609.9,1018.3z"/>
			</g>
		</g>
	</g>
	<g>
		<g class="st4">
			<g>
				
					<image style="display:none;overflow:visible;" width="225" height="225" xlink:href="E24FD8A2.jpg"  transform="matrix(2.037 0 0 2.037 274.4884 470.2624)">
				</image>
				<g class="st10">
					
						<image style="display:none;overflow:visible;" width="225" height="225" xlink:href="E24FD8A5.jpg"  transform="matrix(2.037 0 0 2.037 274.4884 470.2624)">
					</image>
				</g>
				<g class="st10">
					
						<image style="display:none;overflow:visible;" width="225" height="225" xlink:href="E24FD8A6.jpg"  transform="matrix(2.037 0 0 2.037 274.4884 470.2624)">
					</image>
				</g>
				<g class="st10">
					
						<image style="display:none;overflow:visible;" width="225" height="225" xlink:href="E24FD8A4.jpg"  transform="matrix(2.037 0 0 2.037 274.4884 470.2624)">
					</image>
				</g>
				<g class="st10">
					
						<image style="display:none;overflow:visible;" width="225" height="225" xlink:href="E24FD8A3.jpg"  transform="matrix(2.037 0 0 2.037 274.4884 470.2624)">
					</image>
				</g>
				<g class="st10">
					
						<image style="display:none;overflow:visible;" width="225" height="225" xlink:href="E24FD8AD.jpg"  transform="matrix(2.037 0 0 2.037 274.4884 470.2624)">
					</image>
				</g>
			</g>
			<g>
				<g class="st10">
					
						<image style="display:none;overflow:visible;" width="225" height="225" xlink:href="E24FD889.jpg"  transform="matrix(2.037 0 0 2.037 245.1071 671.4183)">
					</image>
				</g>
				<g class="st10">
					
						<image style="display:none;overflow:visible;" width="225" height="225" xlink:href="E24FD88B.jpg"  transform="matrix(2.037 0 0 2.037 245.1071 671.4183)">
					</image>
				</g>
				<g class="st10">
					
						<image style="display:none;overflow:visible;" width="225" height="225" xlink:href="E24FD888.jpg"  transform="matrix(2.037 0 0 2.037 245.1071 671.4183)">
					</image>
				</g>
				<g class="st10">
					
						<image style="display:none;overflow:visible;" width="225" height="225" xlink:href="E24FD88F.jpg"  transform="matrix(2.037 0 0 2.037 245.1071 671.4183)">
					</image>
				</g>
				<g class="st10">
					
						<image style="display:none;overflow:visible;" width="225" height="225" xlink:href="E24FD88A.jpg"  transform="matrix(2.037 0 0 2.037 245.1071 671.4183)">
					</image>
				</g>
			</g>
		</g>
		<text transform="matrix(1 0 0 1 707.1587 873.9782)" class="st4 st5 st11">5pillars</text>
		<g class="st4">
			<g>
				<path d="M736,916.8l-16.4,39.9c-0.2,0.6-0.5,1-1,1.4c-0.5,0.3-1,0.5-1.5,0.5c-0.9,0-1.5-0.2-2-0.7s-0.7-1.1-0.7-1.7
					c0-0.3,0-0.7,0.1-1l18.1-43.9c0.3-0.7,0.7-1.1,1.2-1.5c0.5-0.3,1-0.5,1.6-0.4c0.6,0,1.2,0.2,1.6,0.5c0.5,0.3,0.8,0.8,1,1.4
					l18,43.5c0.1,0.4,0.2,0.7,0.2,1.1c0,0.8-0.3,1.5-0.8,2c-0.6,0.5-1.2,0.8-1.9,0.8c-0.6,0-1.1-0.2-1.6-0.5c-0.5-0.3-0.8-0.8-1-1.4
					l-16.6-39.9L736,916.8z M723.1,945.3l2.4-5.4h20.7l1,5.4H723.1z"/>
				<path d="M813.1,912.8c0.8,0.4,1.3,1,1.4,1.9c0.1,0.8-0.1,1.6-0.6,2.4c-0.4,0.6-1,0.9-1.6,0.9c-0.7,0.1-1.3-0.1-2-0.4
					c-1.5-0.9-3.2-1.7-5-2.2c-1.8-0.5-3.6-0.8-5.6-0.8c-2.7,0-5.3,0.5-7.5,1.4c-2.3,0.9-4.3,2.3-5.9,4c-1.7,1.7-3,3.8-3.9,6.2
					c-0.9,2.4-1.4,5-1.4,7.8c0,3.1,0.5,5.8,1.5,8.2s2.3,4.5,4,6.2c1.7,1.7,3.7,3,5.9,3.9c2.3,0.9,4.7,1.3,7.4,1.3
					c1.9,0,3.7-0.3,5.5-0.8s3.4-1.3,5-2.2c0.7-0.3,1.3-0.4,2-0.3c0.7,0.1,1.2,0.4,1.6,1c0.6,0.7,0.8,1.5,0.7,2.3
					c-0.2,0.8-0.6,1.4-1.4,1.8c-1.2,0.7-2.5,1.3-4,1.9c-1.5,0.6-3,1-4.6,1.3c-1.6,0.3-3.2,0.5-4.8,0.5c-3.3,0-6.5-0.6-9.5-1.7
					s-5.6-2.8-7.9-5s-4.1-4.8-5.4-7.9c-1.3-3.1-2-6.6-2-10.5c0-3.6,0.6-6.9,1.9-9.9c1.3-3,3-5.7,5.2-7.9s4.8-4,7.8-5.2
					c3-1.2,6.3-1.8,9.8-1.8c2.4,0,4.8,0.3,7,0.9S811.2,911.5,813.1,912.8z"/>
				<path d="M853.8,916.8l-16.4,39.9c-0.2,0.6-0.5,1-1,1.4c-0.5,0.3-1,0.5-1.5,0.5c-0.9,0-1.5-0.2-2-0.7s-0.7-1.1-0.7-1.7
					c0-0.3,0-0.7,0.1-1l18.1-43.9c0.3-0.7,0.7-1.1,1.2-1.5c0.5-0.3,1-0.5,1.6-0.4c0.6,0,1.2,0.2,1.6,0.5c0.5,0.3,0.8,0.8,1,1.4
					l18,43.5c0.1,0.4,0.2,0.7,0.2,1.1c0,0.8-0.3,1.5-0.8,2c-0.6,0.5-1.2,0.8-1.9,0.8c-0.6,0-1.1-0.2-1.6-0.5c-0.5-0.3-0.8-0.8-1-1.4
					l-16.6-39.9L853.8,916.8z M840.9,945.3l2.4-5.4H864l1,5.4H840.9z"/>
				<path d="M915.9,909.5c3.4,0,6.5,0.6,9,1.9c2.6,1.3,4.7,3.1,6.5,5.3s3,4.9,3.9,7.8c0.9,3,1.3,6.1,1.3,9.3c0,4.5-0.8,8.6-2.3,12.3
					s-3.8,6.6-6.9,8.8s-6.9,3.3-11.5,3.3h-17.4c-0.8,0-1.5-0.3-2-0.8c-0.6-0.6-0.8-1.2-0.8-2v-43.1c0-0.8,0.3-1.5,0.8-2
					c0.6-0.6,1.2-0.8,2-0.8H915.9z M915.2,952.9c3.6,0,6.6-0.9,8.8-2.6c2.2-1.7,3.9-4,4.9-6.9c1-2.9,1.6-6,1.6-9.5
					c0-2.5-0.3-4.9-0.9-7.2c-0.6-2.3-1.5-4.3-2.7-6.1c-1.2-1.8-2.8-3.2-4.7-4.2s-4.2-1.5-6.9-1.5H901l0.6-0.6v39.3l-0.4-0.7H915.2z"
					/>
				<path d="M962.5,909.5h24.8c0.8,0,1.5,0.3,2,0.8c0.6,0.5,0.8,1.2,0.8,2c0,0.8-0.3,1.4-0.8,1.9c-0.6,0.5-1.2,0.7-2,0.7h-22.5
					l0.6-1.2v17.6l-0.7-0.8h19.4c0.8,0,1.5,0.3,2,0.8c0.6,0.5,0.8,1.2,0.8,2c0,0.8-0.3,1.4-0.8,1.9c-0.6,0.5-1.2,0.7-2,0.7h-19.2
					l0.5-0.7v18.1l-0.4-0.5h22.3c0.8,0,1.5,0.3,2,0.8s0.8,1.2,0.8,1.9c0,0.8-0.3,1.4-0.8,2c-0.6,0.5-1.2,0.8-2,0.8h-24.8
					c-0.8,0-1.5-0.3-2-0.8c-0.6-0.6-0.8-1.2-0.8-2v-43.1c0-0.8,0.3-1.5,0.8-2C961.1,909.8,961.8,909.5,962.5,909.5z"/>
				<path d="M1016.3,909.5c0.4,0,0.9,0.1,1.4,0.3c0.5,0.2,0.9,0.6,1.2,1l18.5,27.9l-2.5-0.1l18.7-27.8c0.7-0.9,1.4-1.3,2.4-1.3
					c0.7,0,1.4,0.3,2,0.9c0.6,0.5,0.9,1.2,0.9,2v43.2c0,0.8-0.3,1.5-0.8,2c-0.6,0.6-1.3,0.8-2.1,0.8c-0.9,0-1.6-0.3-2.1-0.8
					c-0.5-0.6-0.8-1.2-0.8-2v-37.8l1.7,0.3l-16.5,25.1c-0.3,0.4-0.6,0.7-1,0.9c-0.4,0.2-0.8,0.3-1.3,0.3c-0.4,0-0.8,0-1.3-0.3
					c-0.4-0.2-0.7-0.5-1-0.9l-16.3-25l1.5-1.9v39.4c0,0.8-0.3,1.5-0.8,2c-0.5,0.6-1.2,0.8-2,0.8s-1.4-0.3-2-0.8
					c-0.5-0.6-0.8-1.2-0.8-2v-43.2c0-0.7,0.3-1.4,0.8-2C1014.8,909.8,1015.5,909.5,1016.3,909.5z"/>
				<path d="M1114.7,909.3c0.8,0,1.5,0.3,2,0.8c0.5,0.6,0.8,1.2,0.8,2c0,0.3,0,0.6-0.1,0.9s-0.2,0.6-0.4,0.8l-16.2,22.6l0.9-3.4
					v22.5c0,0.8-0.3,1.5-0.8,2c-0.5,0.6-1.2,0.8-1.9,0.8c-0.8,0-1.5-0.3-2.1-0.8c-0.5-0.6-0.8-1.2-0.8-2v-22l0.4,1.9l-15.6-21.2
					c-0.3-0.4-0.5-0.7-0.6-1.1s-0.2-0.7-0.2-1c0-0.8,0.3-1.5,1-2c0.7-0.5,1.3-0.8,2-0.8c0.9,0,1.7,0.4,2.3,1.3l14.4,19.8l-1.3-0.2
					l13.8-19.5C1112.9,909.8,1113.7,909.3,1114.7,909.3z"/>
			</g>
		</g>
		<g class="st4">
			<path d="M251.4,669.4c153,0,305.1,0,458.3,0c-5.8,4.2-10.8,7.7-15.6,11.2c-13.8,10-26.5,21.2-38,33.8c-1.5,1.6-4.3,2.9-6.5,2.9
				c-78.4,0.2-156.8,0.2-235.3,0.2c-33.5,0-67.1,0-100.6,0.1c-3.6,0-6-1.1-8.4-3.8C289.7,696.5,271.8,682.2,251.4,669.4z"/>
			<g>
				<defs>
					<path id="SVGID_00000067235049446864019650000004343784726361778088_" d="M320.9,733.5c106.4,0,212.1,0,318.5,0
						c-0.9,1.8-1.6,3.1-2.3,4.4c-7.2,12.3-12.7,25.3-13.9,39.7c-0.3,3.8-2.6,3.7-5.2,3.7c-21.9,0-43.9,0-65.8,0c-25.5,0-51,0-76.4,0
						c-44.3,0-88.5,0-132.8,0.1c-3.9,0-5.4-1-5.8-5c-1.2-13.1-6.1-24.9-12.5-36.2C323.5,738.1,322.3,736.1,320.9,733.5z"/>
				</defs>
				<use xlink:href="#SVGID_00000067235049446864019650000004343784726361778088_"  style="overflow:visible;"/>
				<clipPath id="SVGID_00000013172704542030309210000005239309802510909332_">
					<use xlink:href="#SVGID_00000067235049446864019650000004343784726361778088_"  style="overflow:visible;"/>
				</clipPath>
			</g>
			<g>
				<g>
					<g>
						<defs>
							<path id="SVGID_00000127756387460355266960000005127593866763280566_" d="M551.5,910.8h-29.6c-1.3,0-2.3-1-2.3-2.3V795.3
								c0-1.3,1-2.3,2.3-2.3h29.6c1.3,0,2.3,1,2.3,2.3v113.2C553.7,909.8,552.7,910.8,551.5,910.8z"/>
						</defs>
						<use xlink:href="#SVGID_00000127756387460355266960000005127593866763280566_"  style="overflow:visible;"/>
						<clipPath id="SVGID_00000067207154139220126480000003743289429199243711_">
							<use xlink:href="#SVGID_00000127756387460355266960000005127593866763280566_"  style="overflow:visible;"/>
						</clipPath>
					</g>
					<g>
						<defs>
							<path id="SVGID_00000124883476967076340720000004785460411583411365_" d="M607.6,910.8H578c-1.3,0-2.3-1-2.3-2.3V795.3
								c0-1.3,1-2.3,2.3-2.3h29.6c1.3,0,2.3,1,2.3,2.3v113.2C609.9,909.8,608.9,910.8,607.6,910.8z"/>
						</defs>
						<use xlink:href="#SVGID_00000124883476967076340720000004785460411583411365_"  style="overflow:visible;"/>
						<clipPath id="SVGID_00000047770275687079621660000013665478675141975952_">
							<use xlink:href="#SVGID_00000124883476967076340720000004785460411583411365_"  style="overflow:visible;"/>
						</clipPath>
					</g>
					<g>
						<defs>
							<path id="SVGID_00000033332710125546518800000015478757212144152473_" d="M383,910.8h-29.6c-1.3,0-2.3-1-2.3-2.3V795.3
								c0-1.3,1-2.3,2.3-2.3H383c1.3,0,2.3,1,2.3,2.3v113.2C385.3,909.8,384.3,910.8,383,910.8z"/>
						</defs>
						<use xlink:href="#SVGID_00000033332710125546518800000015478757212144152473_"  style="overflow:visible;"/>
						<clipPath id="SVGID_00000127739855685975589580000009192530487125837737_">
							<use xlink:href="#SVGID_00000033332710125546518800000015478757212144152473_"  style="overflow:visible;"/>
						</clipPath>
					</g>
					<g>
						<defs>
							<path id="SVGID_00000142161000801947866220000012822802468460806079_" d="M439.2,910.8h-29.6c-1.3,0-2.3-1-2.3-2.3V795.3
								c0-1.3,1-2.3,2.3-2.3h29.6c1.3,0,2.3,1,2.3,2.3v113.2C441.4,909.8,440.4,910.8,439.2,910.8z"/>
						</defs>
						<use xlink:href="#SVGID_00000142161000801947866220000012822802468460806079_"  style="overflow:visible;"/>
						<clipPath id="SVGID_00000174568049017892057120000008632656001267081870_">
							<use xlink:href="#SVGID_00000142161000801947866220000012822802468460806079_"  style="overflow:visible;"/>
						</clipPath>
					</g>
					<g>
						<defs>
							<path id="SVGID_00000105424198061980789800000002207854140355014045_" d="M495.3,910.8h-29.6c-1.3,0-2.3-1-2.3-2.3V795.3
								c0-1.3,1-2.3,2.3-2.3h29.6c1.3,0,2.3,1,2.3,2.3v113.2C497.6,909.8,496.6,910.8,495.3,910.8z"/>
						</defs>
						<use xlink:href="#SVGID_00000105424198061980789800000002207854140355014045_"  style="overflow:visible;"/>
						<clipPath id="SVGID_00000032647867351018362610000007599679171477040258_">
							<use xlink:href="#SVGID_00000105424198061980789800000002207854140355014045_"  style="overflow:visible;"/>
						</clipPath>
					</g>
				</g>
				<path d="M385.3,952.7v-43.9c0-1.3-1-2.3-2.3-2.3h-29.6c-1.3,0-2.3,1-2.3,2.3v47.7C362.3,954.7,373.7,953.4,385.3,952.7z"/>
				<path d="M441.4,953.8v-44.9c0-1.3-1-2.3-2.3-2.3h-29.6c-1.3,0-2.3,1-2.3,2.3V952C418.8,952,430.2,952.6,441.4,953.8z"/>
				<path d="M497.6,964.1v-55.3c0-1.3-1-2.3-2.3-2.3h-29.6c-1.3,0-2.3,1-2.3,2.3v47.8C475,958.6,486.4,961.1,497.6,964.1z"/>
				<path d="M553.7,984.8v-76c0-1.3-1-2.3-2.3-2.3h-29.6c-1.3,0-2.3,1-2.3,2.3v62.1C531.2,974.9,542.7,979.6,553.7,984.8z"/>
				<path d="M609.9,1018.3V908.8c0-1.3-1-2.3-2.3-2.3H578c-1.3,0-2.3,1-2.3,2.3v87.4C587.6,1002.9,599,1010.3,609.9,1018.3z"/>
			</g>
		</g>
	</g>
</g>
</svg>
