<?xml version="1.0" encoding="utf-8"?>
<!-- Generator: Adobe Illustrator 26.0.0, SVG Export Plug-In . SVG Version: 6.00 Build 0)  -->
<svg version="1.1" xmlns="http://www.w3.org/2000/svg" xmlns:xlink="http://www.w3.org/1999/xlink" x="0px" y="0px"
	 viewBox="0 0 1600 1600" style="enable-background:new 0 0 1600 1600;" xml:space="preserve">
<style type="text/css">
	.st0{display:none;}
	.st1{display:inline;fill:#D89F55;}
	.st2{display:inline;fill:#FFFFFF;}
	.st3{display:inline;fill:#0A0A3D;}
	.st4{display:inline;}
	.st5{font-family:'GalleryModernRegular';}
	.st6{font-size:201.9435px;}
	.st7{fill:#FFFFFF;}
	.st8{fill:#0A0A3D;}
	.st9{fill:#D89F55;}
	.st10{opacity:0.26;}
	.st11{font-size:169.0367px;}
	.st12{font-size:197.9799px;}
</style>
<g id="Layer_3" class="st0">
</g>
<g id="Layer_1" class="st0">
</g>
<g id="Layer_2" class="st0">
	<rect x="1150.2" y="1697" class="st1" width="128" height="128"/>
	<rect x="995.8" y="1697" class="st2" width="128" height="128"/>
	<rect x="1304.6" y="1697" class="st3" width="128" height="128"/>
	<rect x="1459" y="1697" class="st4" width="128" height="128"/>
</g>
<g id="Logo" class="st0">
	<g>
		<path class="st2" d="M370.5,310c286.8,0,571.8,0,859.1,0c-11,7.8-20.2,14.3-29.3,21c-25.8,18.8-49.6,39.8-71.2,63.3
			c-2.8,3-8,5.5-12.1,5.5c-147,0.3-294,0.3-441,0.4c-62.9,0-125.8,0-188.7,0.2c-6.7,0-11.2-2.1-15.7-7.1
			C442.4,360.9,408.7,334.1,370.5,310z"/>
		<g class="st4">
			<defs>
				<path id="SVGID_1_" d="M500.7,430.2c199.5,0,397.5,0,597.1,0c-1.8,3.4-2.9,5.9-4.3,8.2c-13.6,23.1-23.7,47.5-26.1,74.4
					c-0.6,7.1-4.8,6.9-9.8,6.9c-41.1-0.1-82.3,0-123.4,0c-47.8,0-95.5,0-143.3,0c-83,0-166,0-248.9,0.3c-7.3,0-10.2-1.9-10.9-9.4
					c-2.2-24.5-11.4-46.7-23.4-67.9C505.7,438.9,503.5,435,500.7,430.2z"/>
			</defs>
			<use xlink:href="#SVGID_1_"  style="overflow:visible;fill:#FFFFFF;"/>
			<clipPath id="SVGID_00000070093925518388227000000001205804466774674310_">
				<use xlink:href="#SVGID_1_"  style="overflow:visible;"/>
			</clipPath>
		</g>
		<g class="st4">
			<g>
				<defs>
					<path id="SVGID_00000157994758493305887610000007602942803141701265_" d="M933,762.6h-55.5c-2.4,0-4.3-1.9-4.3-4.3V546.1
						c0-2.4,1.9-4.3,4.3-4.3H933c2.4,0,4.3,1.9,4.3,4.3v212.2C937.3,760.7,935.4,762.6,933,762.6z"/>
				</defs>
				<use xlink:href="#SVGID_00000157994758493305887610000007602942803141701265_"  style="overflow:visible;fill:#FFFFFF;"/>
				<clipPath id="SVGID_00000002361691897670739880000001865158459275777924_">
					<use xlink:href="#SVGID_00000157994758493305887610000007602942803141701265_"  style="overflow:visible;"/>
				</clipPath>
			</g>
			<g>
				<defs>
					<path id="SVGID_00000073686067299352512860000001519817988102521265_" d="M1038.3,762.6h-55.5c-2.4,0-4.3-1.9-4.3-4.3V546.1
						c0-2.4,1.9-4.3,4.3-4.3h55.5c2.4,0,4.3,1.9,4.3,4.3v212.2C1042.5,760.7,1040.6,762.6,1038.3,762.6z"/>
				</defs>
				<use xlink:href="#SVGID_00000073686067299352512860000001519817988102521265_"  style="overflow:visible;fill:#FFFFFF;"/>
				<clipPath id="SVGID_00000151526667213563810330000011043352370915787910_">
					<use xlink:href="#SVGID_00000073686067299352512860000001519817988102521265_"  style="overflow:visible;"/>
				</clipPath>
			</g>
			<g>
				<defs>
					<path id="SVGID_00000000924714116421404150000005507749559253293753_" d="M617.3,762.6h-55.5c-2.4,0-4.3-1.9-4.3-4.3V546.1
						c0-2.4,1.9-4.3,4.3-4.3h55.5c2.4,0,4.3,1.9,4.3,4.3v212.2C621.5,760.7,619.6,762.6,617.3,762.6z"/>
				</defs>
				<use xlink:href="#SVGID_00000000924714116421404150000005507749559253293753_"  style="overflow:visible;fill:#FFFFFF;"/>
				<clipPath id="SVGID_00000102530858935374773760000015558963143397919879_">
					<use xlink:href="#SVGID_00000000924714116421404150000005507749559253293753_"  style="overflow:visible;"/>
				</clipPath>
			</g>
			<g>
				<defs>
					<path id="SVGID_00000013915136519946497400000015369201051058017181_" d="M722.5,762.6H667c-2.4,0-4.3-1.9-4.3-4.3V546.1
						c0-2.4,1.9-4.3,4.3-4.3h55.5c2.4,0,4.3,1.9,4.3,4.3v212.2C726.8,760.7,724.9,762.6,722.5,762.6z"/>
				</defs>
				<use xlink:href="#SVGID_00000013915136519946497400000015369201051058017181_"  style="overflow:visible;fill:#FFFFFF;"/>
				<clipPath id="SVGID_00000145053213489674059020000006351710316140767898_">
					<use xlink:href="#SVGID_00000013915136519946497400000015369201051058017181_"  style="overflow:visible;"/>
				</clipPath>
			</g>
			<g>
				<defs>
					<path id="SVGID_00000048482434180859452830000011129139707143316919_" d="M827.8,762.6h-55.5c-2.4,0-4.3-1.9-4.3-4.3V546.1
						c0-2.4,1.9-4.3,4.3-4.3h55.5c2.4,0,4.3,1.9,4.3,4.3v212.2C832,760.7,830.1,762.6,827.8,762.6z"/>
				</defs>
				<use xlink:href="#SVGID_00000048482434180859452830000011129139707143316919_"  style="overflow:visible;fill:#FFFFFF;"/>
				<clipPath id="SVGID_00000165918352004130837670000000260839591297456279_">
					<use xlink:href="#SVGID_00000048482434180859452830000011129139707143316919_"  style="overflow:visible;"/>
				</clipPath>
			</g>
		</g>
		<text transform="matrix(1 0 0 1 413.084 946.9688)" class="st2 st5 st6">5pillars</text>
		<g class="st4">
			<g>
				<path class="st7" d="M586.2,998.1l-19.6,47.7c-0.2,0.7-0.6,1.2-1.2,1.6s-1.1,0.6-1.8,0.6c-1.1,0-1.8-0.3-2.3-0.9
					c-0.5-0.6-0.8-1.3-0.8-2c0-0.4,0.1-0.8,0.2-1.2l21.6-52.4c0.3-0.8,0.8-1.4,1.4-1.8c0.6-0.4,1.2-0.6,2-0.5c0.7,0,1.4,0.2,2,0.6
					c0.6,0.4,1,0.9,1.2,1.7l21.5,51.9c0.2,0.4,0.2,0.9,0.2,1.3c0,1-0.3,1.8-1,2.4c-0.7,0.6-1.4,0.9-2.3,0.9c-0.7,0-1.4-0.2-1.9-0.6
					c-0.6-0.4-1-1-1.3-1.7L584.3,998L586.2,998.1z M570.8,1032.2l2.8-6.5h24.8l1.3,6.5H570.8z"/>
				<path class="st7" d="M678.3,993.3c0.9,0.5,1.5,1.2,1.7,2.3c0.2,1-0.1,1.9-0.8,2.8c-0.5,0.7-1.1,1-1.9,1.1
					c-0.8,0.1-1.6-0.1-2.3-0.5c-1.8-1.1-3.8-2-5.9-2.6c-2.1-0.6-4.3-1-6.7-1c-3.3,0-6.3,0.6-9,1.7c-2.7,1.1-5.1,2.7-7.1,4.8
					c-2,2.1-3.6,4.5-4.7,7.4c-1.1,2.8-1.7,5.9-1.7,9.3c0,3.7,0.6,6.9,1.8,9.8s2.8,5.3,4.8,7.4c2,2,4.4,3.6,7.1,4.6
					c2.7,1.1,5.6,1.6,8.8,1.6c2.3,0,4.5-0.3,6.6-0.9c2.1-0.6,4.1-1.5,5.9-2.7c0.8-0.4,1.6-0.5,2.4-0.4c0.8,0.1,1.5,0.5,2,1.2
					c0.7,0.9,1,1.8,0.8,2.8c-0.2,1-0.7,1.7-1.6,2.2c-1.4,0.8-3,1.6-4.8,2.3c-1.8,0.7-3.6,1.2-5.5,1.6c-1.9,0.4-3.8,0.6-5.7,0.6
					c-4,0-7.8-0.7-11.3-2.1c-3.6-1.4-6.7-3.4-9.5-6s-4.9-5.7-6.5-9.4c-1.6-3.7-2.3-7.9-2.3-12.5c0-4.3,0.8-8.2,2.3-11.9
					c1.5-3.6,3.6-6.8,6.3-9.5c2.7-2.7,5.8-4.7,9.4-6.2c3.6-1.5,7.5-2.2,11.7-2.2c2.9,0,5.7,0.4,8.4,1.1
					C673.5,990.8,676,991.9,678.3,993.3z"/>
				<path class="st7" d="M726.9,998.1l-19.6,47.7c-0.2,0.7-0.6,1.2-1.2,1.6s-1.1,0.6-1.8,0.6c-1.1,0-1.8-0.3-2.3-0.9
					c-0.5-0.6-0.8-1.3-0.8-2c0-0.4,0.1-0.8,0.2-1.2l21.6-52.4c0.3-0.8,0.8-1.4,1.4-1.8c0.6-0.4,1.2-0.6,2-0.5c0.7,0,1.4,0.2,2,0.6
					c0.6,0.4,1,0.9,1.2,1.7l21.5,51.9c0.2,0.4,0.2,0.9,0.2,1.3c0,1-0.3,1.8-1,2.4c-0.7,0.6-1.4,0.9-2.3,0.9c-0.7,0-1.4-0.2-1.9-0.6
					c-0.6-0.4-1-1-1.3-1.7L725,998L726.9,998.1z M711.5,1032.2l2.8-6.5h24.8l1.3,6.5H711.5z"/>
				<path class="st7" d="M801.2,989.5c4.1,0,7.7,0.8,10.8,2.3c3.1,1.5,5.7,3.7,7.7,6.4c2.1,2.7,3.6,5.8,4.6,9.4
					c1,3.5,1.5,7.2,1.5,11.1c0,5.4-0.9,10.3-2.8,14.7c-1.8,4.4-4.6,7.9-8.2,10.5c-3.6,2.6-8.2,3.9-13.7,3.9h-20.8
					c-0.9,0-1.8-0.3-2.4-1s-1-1.5-1-2.4v-51.5c0-0.9,0.3-1.8,1-2.4s1.5-1,2.4-1H801.2z M800.3,1041.3c4.3,0,7.8-1,10.5-3.1
					c2.7-2.1,4.6-4.8,5.9-8.3c1.2-3.4,1.9-7.2,1.9-11.3c0-3-0.3-5.9-1-8.6c-0.7-2.7-1.8-5.1-3.3-7.3c-1.5-2.1-3.4-3.8-5.7-5
					c-2.3-1.2-5.1-1.8-8.3-1.8h-17l0.7-0.8v46.9l-0.5-0.8H800.3z"/>
				<path class="st7" d="M856.9,989.5h29.7c0.9,0,1.8,0.3,2.4,1c0.7,0.6,1,1.4,1,2.4c0,0.9-0.3,1.7-1,2.3c-0.7,0.6-1.5,0.9-2.4,0.9
					h-26.8l0.8-1.4v21l-0.8-0.9h23.2c0.9,0,1.8,0.3,2.4,0.9c0.7,0.6,1,1.4,1,2.4c0,0.9-0.3,1.7-1,2.3c-0.7,0.6-1.5,0.9-2.4,0.9
					h-22.9l0.6-0.8v21.6l-0.5-0.6h26.6c0.9,0,1.8,0.3,2.4,1s1,1.4,1,2.3c0,0.9-0.3,1.7-1,2.3c-0.7,0.6-1.5,0.9-2.4,0.9h-29.7
					c-0.9,0-1.8-0.3-2.4-1s-1-1.5-1-2.4v-51.5c0-0.9,0.3-1.8,1-2.4S855.9,989.5,856.9,989.5z"/>
				<path class="st7" d="M921.1,989.4c0.5,0,1,0.1,1.6,0.4c0.6,0.3,1,0.7,1.4,1.2l22.1,33.3l-3-0.1l22.3-33.3
					c0.8-1.1,1.7-1.6,2.8-1.6c0.9,0.1,1.7,0.4,2.4,1c0.7,0.6,1,1.4,1,2.4v51.6c0,0.9-0.3,1.8-1,2.4s-1.5,1-2.5,1
					c-1.1,0-1.9-0.3-2.5-1c-0.6-0.7-1-1.5-1-2.4v-45.2l2.1,0.3l-19.7,29.9c-0.3,0.4-0.7,0.8-1.2,1.1c-0.5,0.3-1,0.4-1.5,0.3
					c-0.5,0.1-1-0.1-1.5-0.3c-0.5-0.3-0.9-0.6-1.2-1.1l-19.4-29.8l1.8-2.3v47c0,0.9-0.3,1.8-0.9,2.4c-0.6,0.7-1.4,1-2.3,1
					c-0.9,0-1.7-0.3-2.3-1c-0.6-0.7-0.9-1.5-0.9-2.4v-51.6c0-0.9,0.3-1.7,1-2.4C919.3,989.7,920.1,989.4,921.1,989.4z"/>
				<path class="st7" d="M1038.6,989.2c0.9,0,1.7,0.3,2.4,1c0.6,0.7,1,1.4,1,2.3c0,0.4,0,0.8-0.1,1.1c-0.1,0.3-0.2,0.7-0.5,1
					l-19.3,27l1.1-4.1v26.8c0,0.9-0.3,1.8-1,2.4c-0.6,0.7-1.4,1-2.3,1c-1,0-1.8-0.3-2.5-1c-0.6-0.7-1-1.5-1-2.4v-26.3l0.5,2.3
					L998.2,995c-0.3-0.4-0.6-0.9-0.8-1.3c-0.2-0.4-0.2-0.8-0.2-1.2c0-1,0.4-1.8,1.2-2.4c0.8-0.6,1.6-0.9,2.4-0.9
					c1.1,0,2,0.5,2.8,1.5l17.3,23.7l-1.6-0.2l16.5-23.3C1036.5,989.7,1037.5,989.2,1038.6,989.2z"/>
			</g>
		</g>
		<path class="st2" d="M621.5,1167.1v-82.3c0-2.4-1.9-4.3-4.3-4.3h-55.5c-2.4,0-4.3,1.9-4.3,4.3v89.5
			C578.5,1170.9,599.9,1168.5,621.5,1167.1z"/>
		<path class="st2" d="M726.8,1169.1v-84.2c0-2.4-1.9-4.3-4.3-4.3H667c-2.4,0-4.3,1.9-4.3,4.3v81
			C684.3,1165.9,705.7,1167,726.8,1169.1z"/>
		<path class="st2" d="M832,1188.5v-103.6c0-2.4-1.9-4.3-4.3-4.3h-55.5c-2.4,0-4.3,1.9-4.3,4.3v89.7
			C789.7,1178.1,811.1,1182.8,832,1188.5z"/>
		<path class="st2" d="M937.3,1227.4v-142.5c0-2.4-1.9-4.3-4.3-4.3h-55.5c-2.4,0-4.3,1.9-4.3,4.3v116.4
			C895.1,1208.8,916.5,1217.5,937.3,1227.4z"/>
		<path class="st2" d="M1042.5,1290v-205.2c0-2.4-1.9-4.3-4.3-4.3h-55.5c-2.4,0-4.3,1.9-4.3,4.3v163.8
			C1000.7,1261.2,1022.1,1275,1042.5,1290z"/>
	</g>
	<g class="st4">
		<path class="st8" d="M370.5,310c286.8,0,571.8,0,859.1,0c-11,7.8-20.2,14.3-29.3,21c-25.8,18.8-49.6,39.8-71.2,63.3
			c-2.8,3-8,5.5-12.1,5.5c-147,0.3-294,0.3-441,0.4c-62.9,0-125.8,0-188.7,0.2c-6.7,0-11.2-2.1-15.7-7.1
			C442.4,360.9,408.7,334.1,370.5,310z"/>
		<g>
			<defs>
				<path id="SVGID_00000083796841939939724580000002305546136764064407_" d="M500.7,430.2c199.5,0,397.5,0,597.1,0
					c-1.8,3.4-2.9,5.9-4.3,8.2c-13.6,23.1-23.7,47.5-26.1,74.4c-0.6,7.1-4.8,6.9-9.8,6.9c-41.1-0.1-82.3,0-123.4,0
					c-47.8,0-95.5,0-143.3,0c-83,0-166,0-248.9,0.3c-7.3,0-10.2-1.9-10.9-9.4c-2.2-24.5-11.4-46.7-23.4-67.9
					C505.7,438.9,503.5,435,500.7,430.2z"/>
			</defs>
			<use xlink:href="#SVGID_00000083796841939939724580000002305546136764064407_"  style="overflow:visible;fill:#0A0A3D;"/>
			<clipPath id="SVGID_00000152978885630592033840000016456712821150619040_">
				<use xlink:href="#SVGID_00000083796841939939724580000002305546136764064407_"  style="overflow:visible;"/>
			</clipPath>
		</g>
		<g>
			<g>
				<defs>
					<path id="SVGID_00000088823899478123837970000005466224593290981557_" d="M933,762.6h-55.5c-2.4,0-4.3-1.9-4.3-4.3V546.1
						c0-2.4,1.9-4.3,4.3-4.3H933c2.4,0,4.3,1.9,4.3,4.3v212.2C937.3,760.7,935.4,762.6,933,762.6z"/>
				</defs>
				<use xlink:href="#SVGID_00000088823899478123837970000005466224593290981557_"  style="overflow:visible;fill:#D89F55;"/>
				<clipPath id="SVGID_00000083065703166746870430000001685847155914651052_">
					<use xlink:href="#SVGID_00000088823899478123837970000005466224593290981557_"  style="overflow:visible;"/>
				</clipPath>
			</g>
			<g>
				<defs>
					<path id="SVGID_00000093863878322438180740000005929965087387848590_" d="M1038.3,762.6h-55.5c-2.4,0-4.3-1.9-4.3-4.3V546.1
						c0-2.4,1.9-4.3,4.3-4.3h55.5c2.4,0,4.3,1.9,4.3,4.3v212.2C1042.5,760.7,1040.6,762.6,1038.3,762.6z"/>
				</defs>
				<use xlink:href="#SVGID_00000093863878322438180740000005929965087387848590_"  style="overflow:visible;fill:#D89F55;"/>
				<clipPath id="SVGID_00000129191007082285856640000011634109429639255200_">
					<use xlink:href="#SVGID_00000093863878322438180740000005929965087387848590_"  style="overflow:visible;"/>
				</clipPath>
			</g>
			<g>
				<defs>
					<path id="SVGID_00000011018040450232418350000011668718413353720471_" d="M617.3,762.6h-55.5c-2.4,0-4.3-1.9-4.3-4.3V546.1
						c0-2.4,1.9-4.3,4.3-4.3h55.5c2.4,0,4.3,1.9,4.3,4.3v212.2C621.5,760.7,619.6,762.6,617.3,762.6z"/>
				</defs>
				<use xlink:href="#SVGID_00000011018040450232418350000011668718413353720471_"  style="overflow:visible;fill:#D89F55;"/>
				<clipPath id="SVGID_00000094600558713548788840000008151387514593711253_">
					<use xlink:href="#SVGID_00000011018040450232418350000011668718413353720471_"  style="overflow:visible;"/>
				</clipPath>
			</g>
			<g>
				<defs>
					<path id="SVGID_00000004522773620636330440000012846037004466534047_" d="M722.5,762.6H667c-2.4,0-4.3-1.9-4.3-4.3V546.1
						c0-2.4,1.9-4.3,4.3-4.3h55.5c2.4,0,4.3,1.9,4.3,4.3v212.2C726.8,760.7,724.9,762.6,722.5,762.6z"/>
				</defs>
				<use xlink:href="#SVGID_00000004522773620636330440000012846037004466534047_"  style="overflow:visible;fill:#D89F55;"/>
				<clipPath id="SVGID_00000177445857251090815730000006526612719061450658_">
					<use xlink:href="#SVGID_00000004522773620636330440000012846037004466534047_"  style="overflow:visible;"/>
				</clipPath>
			</g>
			<g>
				<defs>
					<path id="SVGID_00000075129637588161509620000011100899702783396239_" d="M827.8,762.6h-55.5c-2.4,0-4.3-1.9-4.3-4.3V546.1
						c0-2.4,1.9-4.3,4.3-4.3h55.5c2.4,0,4.3,1.9,4.3,4.3v212.2C832,760.7,830.1,762.6,827.8,762.6z"/>
				</defs>
				<use xlink:href="#SVGID_00000075129637588161509620000011100899702783396239_"  style="overflow:visible;fill:#D89F55;"/>
				<clipPath id="SVGID_00000023995357306585056200000014013373116535865745_">
					<use xlink:href="#SVGID_00000075129637588161509620000011100899702783396239_"  style="overflow:visible;"/>
				</clipPath>
			</g>
		</g>
		<text transform="matrix(1 0 0 1 413.084 946.9688)" class="st9 st5 st6">5pillars</text>
		<g>
			<g>
				<path class="st8" d="M586.2,998.1l-19.6,47.7c-0.2,0.7-0.6,1.2-1.2,1.6s-1.1,0.6-1.8,0.6c-1.1,0-1.8-0.3-2.3-0.9
					c-0.5-0.6-0.8-1.3-0.8-2c0-0.4,0.1-0.8,0.2-1.2l21.6-52.4c0.3-0.8,0.8-1.4,1.4-1.8c0.6-0.4,1.2-0.6,2-0.5c0.7,0,1.4,0.2,2,0.6
					c0.6,0.4,1,0.9,1.2,1.7l21.5,51.9c0.2,0.4,0.2,0.9,0.2,1.3c0,1-0.3,1.8-1,2.4c-0.7,0.6-1.4,0.9-2.3,0.9c-0.7,0-1.4-0.2-1.9-0.6
					c-0.6-0.4-1-1-1.3-1.7L584.3,998L586.2,998.1z M570.8,1032.2l2.8-6.5h24.8l1.3,6.5H570.8z"/>
				<path class="st8" d="M678.3,993.3c0.9,0.5,1.5,1.2,1.7,2.3c0.2,1-0.1,1.9-0.8,2.8c-0.5,0.7-1.1,1-1.9,1.1
					c-0.8,0.1-1.6-0.1-2.3-0.5c-1.8-1.1-3.8-2-5.9-2.6c-2.1-0.6-4.3-1-6.7-1c-3.3,0-6.3,0.6-9,1.7c-2.7,1.1-5.1,2.7-7.1,4.8
					c-2,2.1-3.6,4.5-4.7,7.4c-1.1,2.8-1.7,5.9-1.7,9.3c0,3.7,0.6,6.9,1.8,9.8s2.8,5.3,4.8,7.4c2,2,4.4,3.6,7.1,4.6
					c2.7,1.1,5.6,1.6,8.8,1.6c2.3,0,4.5-0.3,6.6-0.9c2.1-0.6,4.1-1.5,5.9-2.7c0.8-0.4,1.6-0.5,2.4-0.4c0.8,0.1,1.5,0.5,2,1.2
					c0.7,0.9,1,1.8,0.8,2.8c-0.2,1-0.7,1.7-1.6,2.2c-1.4,0.8-3,1.6-4.8,2.3c-1.8,0.7-3.6,1.2-5.5,1.6c-1.9,0.4-3.8,0.6-5.7,0.6
					c-4,0-7.8-0.7-11.3-2.1c-3.6-1.4-6.7-3.4-9.5-6s-4.9-5.7-6.5-9.4c-1.6-3.7-2.3-7.9-2.3-12.5c0-4.3,0.8-8.2,2.3-11.9
					c1.5-3.6,3.6-6.8,6.3-9.5c2.7-2.7,5.8-4.7,9.4-6.2c3.6-1.5,7.5-2.2,11.7-2.2c2.9,0,5.7,0.4,8.4,1.1
					C673.5,990.8,676,991.9,678.3,993.3z"/>
				<path class="st8" d="M726.9,998.1l-19.6,47.7c-0.2,0.7-0.6,1.2-1.2,1.6s-1.1,0.6-1.8,0.6c-1.1,0-1.8-0.3-2.3-0.9
					c-0.5-0.6-0.8-1.3-0.8-2c0-0.4,0.1-0.8,0.2-1.2l21.6-52.4c0.3-0.8,0.8-1.4,1.4-1.8c0.6-0.4,1.2-0.6,2-0.5c0.7,0,1.4,0.2,2,0.6
					c0.6,0.4,1,0.9,1.2,1.7l21.5,51.9c0.2,0.4,0.2,0.9,0.2,1.3c0,1-0.3,1.8-1,2.4c-0.7,0.6-1.4,0.9-2.3,0.9c-0.7,0-1.4-0.2-1.9-0.6
					c-0.6-0.4-1-1-1.3-1.7L725,998L726.9,998.1z M711.5,1032.2l2.8-6.5h24.8l1.3,6.5H711.5z"/>
				<path class="st8" d="M801.2,989.5c4.1,0,7.7,0.8,10.8,2.3c3.1,1.5,5.7,3.7,7.7,6.4c2.1,2.7,3.6,5.8,4.6,9.4
					c1,3.5,1.5,7.2,1.5,11.1c0,5.4-0.9,10.3-2.8,14.7c-1.8,4.4-4.6,7.9-8.2,10.5c-3.6,2.6-8.2,3.9-13.7,3.9h-20.8
					c-0.9,0-1.8-0.3-2.4-1s-1-1.5-1-2.4v-51.5c0-0.9,0.3-1.8,1-2.4s1.5-1,2.4-1H801.2z M800.3,1041.3c4.3,0,7.8-1,10.5-3.1
					c2.7-2.1,4.6-4.8,5.9-8.3c1.2-3.4,1.9-7.2,1.9-11.3c0-3-0.3-5.9-1-8.6c-0.7-2.7-1.8-5.1-3.3-7.3c-1.5-2.1-3.4-3.8-5.7-5
					c-2.3-1.2-5.1-1.8-8.3-1.8h-17l0.7-0.8v46.9l-0.5-0.8H800.3z"/>
				<path class="st8" d="M856.9,989.5h29.7c0.9,0,1.8,0.3,2.4,1c0.7,0.6,1,1.4,1,2.4c0,0.9-0.3,1.7-1,2.3c-0.7,0.6-1.5,0.9-2.4,0.9
					h-26.8l0.8-1.4v21l-0.8-0.9h23.2c0.9,0,1.8,0.3,2.4,0.9c0.7,0.6,1,1.4,1,2.4c0,0.9-0.3,1.7-1,2.3c-0.7,0.6-1.5,0.9-2.4,0.9
					h-22.9l0.6-0.8v21.6l-0.5-0.6h26.6c0.9,0,1.8,0.3,2.4,1s1,1.4,1,2.3c0,0.9-0.3,1.7-1,2.3c-0.7,0.6-1.5,0.9-2.4,0.9h-29.7
					c-0.9,0-1.8-0.3-2.4-1s-1-1.5-1-2.4v-51.5c0-0.9,0.3-1.8,1-2.4S855.9,989.5,856.9,989.5z"/>
				<path class="st8" d="M921.1,989.4c0.5,0,1,0.1,1.6,0.4c0.6,0.3,1,0.7,1.4,1.2l22.1,33.3l-3-0.1l22.3-33.3
					c0.8-1.1,1.7-1.6,2.8-1.6c0.9,0.1,1.7,0.4,2.4,1c0.7,0.6,1,1.4,1,2.4v51.6c0,0.9-0.3,1.8-1,2.4s-1.5,1-2.5,1
					c-1.1,0-1.9-0.3-2.5-1c-0.6-0.7-1-1.5-1-2.4v-45.2l2.1,0.3l-19.7,29.9c-0.3,0.4-0.7,0.8-1.2,1.1c-0.5,0.3-1,0.4-1.5,0.3
					c-0.5,0.1-1-0.1-1.5-0.3c-0.5-0.3-0.9-0.6-1.2-1.1l-19.4-29.8l1.8-2.3v47c0,0.9-0.3,1.8-0.9,2.4c-0.6,0.7-1.4,1-2.3,1
					c-0.9,0-1.7-0.3-2.3-1c-0.6-0.7-0.9-1.5-0.9-2.4v-51.6c0-0.9,0.3-1.7,1-2.4C919.3,989.7,920.1,989.4,921.1,989.4z"/>
				<path class="st8" d="M1038.6,989.2c0.9,0,1.7,0.3,2.4,1c0.6,0.7,1,1.4,1,2.3c0,0.4,0,0.8-0.1,1.1c-0.1,0.3-0.2,0.7-0.5,1
					l-19.3,27l1.1-4.1v26.8c0,0.9-0.3,1.8-1,2.4c-0.6,0.7-1.4,1-2.3,1c-1,0-1.8-0.3-2.5-1c-0.6-0.7-1-1.5-1-2.4v-26.3l0.5,2.3
					L998.2,995c-0.3-0.4-0.6-0.9-0.8-1.3c-0.2-0.4-0.2-0.8-0.2-1.2c0-1,0.4-1.8,1.2-2.4c0.8-0.6,1.6-0.9,2.4-0.9
					c1.1,0,2,0.5,2.8,1.5l17.3,23.7l-1.6-0.2l16.5-23.3C1036.5,989.7,1037.5,989.2,1038.6,989.2z"/>
			</g>
		</g>
		<g>
			<path class="st9" d="M621.5,1167.1v-82.3c0-2.4-1.9-4.3-4.3-4.3h-55.5c-2.4,0-4.3,1.9-4.3,4.3v89.5
				C578.5,1170.9,599.9,1168.5,621.5,1167.1z"/>
		</g>
		<g>
			<path class="st9" d="M726.8,1169.1v-84.2c0-2.4-1.9-4.3-4.3-4.3H667c-2.4,0-4.3,1.9-4.3,4.3v81
				C684.3,1165.9,705.7,1167,726.8,1169.1z"/>
		</g>
		<g>
			<path class="st9" d="M832,1188.5v-103.6c0-2.4-1.9-4.3-4.3-4.3h-55.5c-2.4,0-4.3,1.9-4.3,4.3v89.7
				C789.7,1178.1,811.1,1182.8,832,1188.5z"/>
		</g>
		<g>
			<path class="st9" d="M937.3,1227.4v-142.5c0-2.4-1.9-4.3-4.3-4.3h-55.5c-2.4,0-4.3,1.9-4.3,4.3v116.4
				C895.1,1208.8,916.5,1217.5,937.3,1227.4z"/>
		</g>
		<g>
			<path class="st9" d="M1042.5,1290v-205.2c0-2.4-1.9-4.3-4.3-4.3h-55.5c-2.4,0-4.3,1.9-4.3,4.3v163.8
				C1000.7,1261.2,1022.1,1275,1042.5,1290z"/>
		</g>
	</g>
	<g>
		<path class="st3" d="M370.5,310c286.8,0,571.8,0,859.1,0c-11,7.8-20.2,14.3-29.3,21c-25.8,18.8-49.6,39.8-71.2,63.3
			c-2.8,3-8,5.5-12.1,5.5c-147,0.3-294,0.3-441,0.4c-62.9,0-125.8,0-188.7,0.2c-6.7,0-11.2-2.1-15.7-7.1
			C442.4,360.9,408.7,334.1,370.5,310z"/>
		<g class="st4">
			<defs>
				<path id="SVGID_00000170249651611732880670000009398831427255480727_" d="M500.7,430.2c199.5,0,397.5,0,597.1,0
					c-1.8,3.4-2.9,5.9-4.3,8.2c-13.6,23.1-23.7,47.5-26.1,74.4c-0.6,7.1-4.8,6.9-9.8,6.9c-41.1-0.1-82.3,0-123.4,0
					c-47.8,0-95.5,0-143.3,0c-83,0-166,0-248.9,0.3c-7.3,0-10.2-1.9-10.9-9.4c-2.2-24.5-11.4-46.7-23.4-67.9
					C505.7,438.9,503.5,435,500.7,430.2z"/>
			</defs>
			<use xlink:href="#SVGID_00000170249651611732880670000009398831427255480727_"  style="overflow:visible;fill:#0A0A3D;"/>
			<clipPath id="SVGID_00000075130537061783067390000013858653940017532045_">
				<use xlink:href="#SVGID_00000170249651611732880670000009398831427255480727_"  style="overflow:visible;"/>
			</clipPath>
		</g>
		<g class="st4">
			<g>
				<defs>
					<path id="SVGID_00000106142278847499730930000004265799223544678029_" d="M933,762.6h-55.5c-2.4,0-4.3-1.9-4.3-4.3V546.1
						c0-2.4,1.9-4.3,4.3-4.3H933c2.4,0,4.3,1.9,4.3,4.3v212.2C937.3,760.7,935.4,762.6,933,762.6z"/>
				</defs>
				<use xlink:href="#SVGID_00000106142278847499730930000004265799223544678029_"  style="overflow:visible;fill:#0A0A3D;"/>
				<clipPath id="SVGID_00000000931998195498679910000009524101348985848740_">
					<use xlink:href="#SVGID_00000106142278847499730930000004265799223544678029_"  style="overflow:visible;"/>
				</clipPath>
			</g>
			<g>
				<defs>
					<path id="SVGID_00000082350271675763041540000004877523979990333600_" d="M1038.3,762.6h-55.5c-2.4,0-4.3-1.9-4.3-4.3V546.1
						c0-2.4,1.9-4.3,4.3-4.3h55.5c2.4,0,4.3,1.9,4.3,4.3v212.2C1042.5,760.7,1040.6,762.6,1038.3,762.6z"/>
				</defs>
				<use xlink:href="#SVGID_00000082350271675763041540000004877523979990333600_"  style="overflow:visible;fill:#0A0A3D;"/>
				<clipPath id="SVGID_00000076587257941843121470000005801567739577973164_">
					<use xlink:href="#SVGID_00000082350271675763041540000004877523979990333600_"  style="overflow:visible;"/>
				</clipPath>
			</g>
			<g>
				<defs>
					<path id="SVGID_00000052808339193145849890000015435862204794532487_" d="M617.3,762.6h-55.5c-2.4,0-4.3-1.9-4.3-4.3V546.1
						c0-2.4,1.9-4.3,4.3-4.3h55.5c2.4,0,4.3,1.9,4.3,4.3v212.2C621.5,760.7,619.6,762.6,617.3,762.6z"/>
				</defs>
				<use xlink:href="#SVGID_00000052808339193145849890000015435862204794532487_"  style="overflow:visible;fill:#0A0A3D;"/>
				<clipPath id="SVGID_00000064340034463106895600000004331395110113510550_">
					<use xlink:href="#SVGID_00000052808339193145849890000015435862204794532487_"  style="overflow:visible;"/>
				</clipPath>
			</g>
			<g>
				<defs>
					<path id="SVGID_00000126292416600763136290000013529859992410689197_" d="M722.5,762.6H667c-2.4,0-4.3-1.9-4.3-4.3V546.1
						c0-2.4,1.9-4.3,4.3-4.3h55.5c2.4,0,4.3,1.9,4.3,4.3v212.2C726.8,760.7,724.9,762.6,722.5,762.6z"/>
				</defs>
				<use xlink:href="#SVGID_00000126292416600763136290000013529859992410689197_"  style="overflow:visible;fill:#0A0A3D;"/>
				<clipPath id="SVGID_00000111895862451816503560000012552095167311009978_">
					<use xlink:href="#SVGID_00000126292416600763136290000013529859992410689197_"  style="overflow:visible;"/>
				</clipPath>
			</g>
			<g>
				<defs>
					<path id="SVGID_00000174602792037179318760000016309797515876099232_" d="M827.8,762.6h-55.5c-2.4,0-4.3-1.9-4.3-4.3V546.1
						c0-2.4,1.9-4.3,4.3-4.3h55.5c2.4,0,4.3,1.9,4.3,4.3v212.2C832,760.7,830.1,762.6,827.8,762.6z"/>
				</defs>
				<use xlink:href="#SVGID_00000174602792037179318760000016309797515876099232_"  style="overflow:visible;fill:#0A0A3D;"/>
				<clipPath id="SVGID_00000008131076590913890620000008122490146580339880_">
					<use xlink:href="#SVGID_00000174602792037179318760000016309797515876099232_"  style="overflow:visible;"/>
				</clipPath>
			</g>
		</g>
		<text transform="matrix(1 0 0 1 413.084 946.9688)" class="st3 st5 st6">5pillars</text>
		<g class="st4">
			<g>
				<path class="st8" d="M586.2,998.1l-19.6,47.7c-0.2,0.7-0.6,1.2-1.2,1.6s-1.1,0.6-1.8,0.6c-1.1,0-1.8-0.3-2.3-0.9
					c-0.5-0.6-0.8-1.3-0.8-2c0-0.4,0.1-0.8,0.2-1.2l21.6-52.4c0.3-0.8,0.8-1.4,1.4-1.8c0.6-0.4,1.2-0.6,2-0.5c0.7,0,1.4,0.2,2,0.6
					c0.6,0.4,1,0.9,1.2,1.7l21.5,51.9c0.2,0.4,0.2,0.9,0.2,1.3c0,1-0.3,1.8-1,2.4c-0.7,0.6-1.4,0.9-2.3,0.9c-0.7,0-1.4-0.2-1.9-0.6
					c-0.6-0.4-1-1-1.3-1.7L584.3,998L586.2,998.1z M570.8,1032.2l2.8-6.5h24.8l1.3,6.5H570.8z"/>
				<path class="st8" d="M678.3,993.3c0.9,0.5,1.5,1.2,1.7,2.3c0.2,1-0.1,1.9-0.8,2.8c-0.5,0.7-1.1,1-1.9,1.1
					c-0.8,0.1-1.6-0.1-2.3-0.5c-1.8-1.1-3.8-2-5.9-2.6c-2.1-0.6-4.3-1-6.7-1c-3.3,0-6.3,0.6-9,1.7c-2.7,1.1-5.1,2.7-7.1,4.8
					c-2,2.1-3.6,4.5-4.7,7.4c-1.1,2.8-1.7,5.9-1.7,9.3c0,3.7,0.6,6.9,1.8,9.8s2.8,5.3,4.8,7.4c2,2,4.4,3.6,7.1,4.6
					c2.7,1.1,5.6,1.6,8.8,1.6c2.3,0,4.5-0.3,6.6-0.9c2.1-0.6,4.1-1.5,5.9-2.7c0.8-0.4,1.6-0.5,2.4-0.4c0.8,0.1,1.5,0.5,2,1.2
					c0.7,0.9,1,1.8,0.8,2.8c-0.2,1-0.7,1.7-1.6,2.2c-1.4,0.8-3,1.6-4.8,2.3c-1.8,0.7-3.6,1.2-5.5,1.6c-1.9,0.4-3.8,0.6-5.7,0.6
					c-4,0-7.8-0.7-11.3-2.1c-3.6-1.4-6.7-3.4-9.5-6s-4.9-5.7-6.5-9.4c-1.6-3.7-2.3-7.9-2.3-12.5c0-4.3,0.8-8.2,2.3-11.9
					c1.5-3.6,3.6-6.8,6.3-9.5c2.7-2.7,5.8-4.7,9.4-6.2c3.6-1.5,7.5-2.2,11.7-2.2c2.9,0,5.7,0.4,8.4,1.1
					C673.5,990.8,676,991.9,678.3,993.3z"/>
				<path class="st8" d="M726.9,998.1l-19.6,47.7c-0.2,0.7-0.6,1.2-1.2,1.6s-1.1,0.6-1.8,0.6c-1.1,0-1.8-0.3-2.3-0.9
					c-0.5-0.6-0.8-1.3-0.8-2c0-0.4,0.1-0.8,0.2-1.2l21.6-52.4c0.3-0.8,0.8-1.4,1.4-1.8c0.6-0.4,1.2-0.6,2-0.5c0.7,0,1.4,0.2,2,0.6
					c0.6,0.4,1,0.9,1.2,1.7l21.5,51.9c0.2,0.4,0.2,0.9,0.2,1.3c0,1-0.3,1.8-1,2.4c-0.7,0.6-1.4,0.9-2.3,0.9c-0.7,0-1.4-0.2-1.9-0.6
					c-0.6-0.4-1-1-1.3-1.7L725,998L726.9,998.1z M711.5,1032.2l2.8-6.5h24.8l1.3,6.5H711.5z"/>
				<path class="st8" d="M801.2,989.5c4.1,0,7.7,0.8,10.8,2.3c3.1,1.5,5.7,3.7,7.7,6.4c2.1,2.7,3.6,5.8,4.6,9.4
					c1,3.5,1.5,7.2,1.5,11.1c0,5.4-0.9,10.3-2.8,14.7c-1.8,4.4-4.6,7.9-8.2,10.5c-3.6,2.6-8.2,3.9-13.7,3.9h-20.8
					c-0.9,0-1.8-0.3-2.4-1s-1-1.5-1-2.4v-51.5c0-0.9,0.3-1.8,1-2.4s1.5-1,2.4-1H801.2z M800.3,1041.3c4.3,0,7.8-1,10.5-3.1
					c2.7-2.1,4.6-4.8,5.9-8.3c1.2-3.4,1.9-7.2,1.9-11.3c0-3-0.3-5.9-1-8.6c-0.7-2.7-1.8-5.1-3.3-7.3c-1.5-2.1-3.4-3.8-5.7-5
					c-2.3-1.2-5.1-1.8-8.3-1.8h-17l0.7-0.8v46.9l-0.5-0.8H800.3z"/>
				<path class="st8" d="M856.9,989.5h29.7c0.9,0,1.8,0.3,2.4,1c0.7,0.6,1,1.4,1,2.4c0,0.9-0.3,1.7-1,2.3c-0.7,0.6-1.5,0.9-2.4,0.9
					h-26.8l0.8-1.4v21l-0.8-0.9h23.2c0.9,0,1.8,0.3,2.4,0.9c0.7,0.6,1,1.4,1,2.4c0,0.9-0.3,1.7-1,2.3c-0.7,0.6-1.5,0.9-2.4,0.9
					h-22.9l0.6-0.8v21.6l-0.5-0.6h26.6c0.9,0,1.8,0.3,2.4,1s1,1.4,1,2.3c0,0.9-0.3,1.7-1,2.3c-0.7,0.6-1.5,0.9-2.4,0.9h-29.7
					c-0.9,0-1.8-0.3-2.4-1s-1-1.5-1-2.4v-51.5c0-0.9,0.3-1.8,1-2.4S855.9,989.5,856.9,989.5z"/>
				<path class="st8" d="M921.1,989.4c0.5,0,1,0.1,1.6,0.4c0.6,0.3,1,0.7,1.4,1.2l22.1,33.3l-3-0.1l22.3-33.3
					c0.8-1.1,1.7-1.6,2.8-1.6c0.9,0.1,1.7,0.4,2.4,1c0.7,0.6,1,1.4,1,2.4v51.6c0,0.9-0.3,1.8-1,2.4s-1.5,1-2.5,1
					c-1.1,0-1.9-0.3-2.5-1c-0.6-0.7-1-1.5-1-2.4v-45.2l2.1,0.3l-19.7,29.9c-0.3,0.4-0.7,0.8-1.2,1.1c-0.5,0.3-1,0.4-1.5,0.3
					c-0.5,0.1-1-0.1-1.5-0.3c-0.5-0.3-0.9-0.6-1.2-1.1l-19.4-29.8l1.8-2.3v47c0,0.9-0.3,1.8-0.9,2.4c-0.6,0.7-1.4,1-2.3,1
					c-0.9,0-1.7-0.3-2.3-1c-0.6-0.7-0.9-1.5-0.9-2.4v-51.6c0-0.9,0.3-1.7,1-2.4C919.3,989.7,920.1,989.4,921.1,989.4z"/>
				<path class="st8" d="M1038.6,989.2c0.9,0,1.7,0.3,2.4,1c0.6,0.7,1,1.4,1,2.3c0,0.4,0,0.8-0.1,1.1c-0.1,0.3-0.2,0.7-0.5,1
					l-19.3,27l1.1-4.1v26.8c0,0.9-0.3,1.8-1,2.4c-0.6,0.7-1.4,1-2.3,1c-1,0-1.8-0.3-2.5-1c-0.6-0.7-1-1.5-1-2.4v-26.3l0.5,2.3
					L998.2,995c-0.3-0.4-0.6-0.9-0.8-1.3c-0.2-0.4-0.2-0.8-0.2-1.2c0-1,0.4-1.8,1.2-2.4c0.8-0.6,1.6-0.9,2.4-0.9
					c1.1,0,2,0.5,2.8,1.5l17.3,23.7l-1.6-0.2l16.5-23.3C1036.5,989.7,1037.5,989.2,1038.6,989.2z"/>
			</g>
		</g>
		<path class="st3" d="M621.5,1167.1v-82.3c0-2.4-1.9-4.3-4.3-4.3h-55.5c-2.4,0-4.3,1.9-4.3,4.3v89.5
			C578.5,1170.9,599.9,1168.5,621.5,1167.1z"/>
		<path class="st3" d="M726.8,1169.1v-84.2c0-2.4-1.9-4.3-4.3-4.3H667c-2.4,0-4.3,1.9-4.3,4.3v81
			C684.3,1165.9,705.7,1167,726.8,1169.1z"/>
		<path class="st3" d="M832,1188.5v-103.6c0-2.4-1.9-4.3-4.3-4.3h-55.5c-2.4,0-4.3,1.9-4.3,4.3v89.7
			C789.7,1178.1,811.1,1182.8,832,1188.5z"/>
		<path class="st3" d="M937.3,1227.4v-142.5c0-2.4-1.9-4.3-4.3-4.3h-55.5c-2.4,0-4.3,1.9-4.3,4.3v116.4
			C895.1,1208.8,916.5,1217.5,937.3,1227.4z"/>
		<path class="st3" d="M1042.5,1290v-205.2c0-2.4-1.9-4.3-4.3-4.3h-55.5c-2.4,0-4.3,1.9-4.3,4.3v163.8
			C1000.7,1261.2,1022.1,1275,1042.5,1290z"/>
	</g>
	<g>
		<path class="st4" d="M370.5,310c286.8,0,571.8,0,859.1,0c-11,7.8-20.2,14.3-29.3,21c-25.8,18.8-49.6,39.8-71.2,63.3
			c-2.8,3-8,5.5-12.1,5.5c-147,0.3-294,0.3-441,0.4c-62.9,0-125.8,0-188.7,0.2c-6.7,0-11.2-2.1-15.7-7.1
			C442.4,360.9,408.7,334.1,370.5,310z"/>
		<g class="st4">
			<defs>
				<path id="SVGID_00000016796757238149397690000002643847977910582922_" d="M500.7,430.2c199.5,0,397.5,0,597.1,0
					c-1.8,3.4-2.9,5.9-4.3,8.2c-13.6,23.1-23.7,47.5-26.1,74.4c-0.6,7.1-4.8,6.9-9.8,6.9c-41.1-0.1-82.3,0-123.4,0
					c-47.8,0-95.5,0-143.3,0c-83,0-166,0-248.9,0.3c-7.3,0-10.2-1.9-10.9-9.4c-2.2-24.5-11.4-46.7-23.4-67.9
					C505.7,438.9,503.5,435,500.7,430.2z"/>
			</defs>
			<use xlink:href="#SVGID_00000016796757238149397690000002643847977910582922_"  style="overflow:visible;"/>
			<clipPath id="SVGID_00000107546197323257588540000009044014948970032827_">
				<use xlink:href="#SVGID_00000016796757238149397690000002643847977910582922_"  style="overflow:visible;"/>
			</clipPath>
		</g>
		<g class="st4">
			<g>
				<defs>
					<path id="SVGID_00000096059425418474688400000005482935304417406380_" d="M933,762.6h-55.5c-2.4,0-4.3-1.9-4.3-4.3V546.1
						c0-2.4,1.9-4.3,4.3-4.3H933c2.4,0,4.3,1.9,4.3,4.3v212.2C937.3,760.7,935.4,762.6,933,762.6z"/>
				</defs>
				<use xlink:href="#SVGID_00000096059425418474688400000005482935304417406380_"  style="overflow:visible;"/>
				<clipPath id="SVGID_00000061456802297240476030000012557647046595882905_">
					<use xlink:href="#SVGID_00000096059425418474688400000005482935304417406380_"  style="overflow:visible;"/>
				</clipPath>
			</g>
			<g>
				<defs>
					<path id="SVGID_00000070092734334156523230000009967387723205528970_" d="M1038.3,762.6h-55.5c-2.4,0-4.3-1.9-4.3-4.3V546.1
						c0-2.4,1.9-4.3,4.3-4.3h55.5c2.4,0,4.3,1.9,4.3,4.3v212.2C1042.5,760.7,1040.6,762.6,1038.3,762.6z"/>
				</defs>
				<use xlink:href="#SVGID_00000070092734334156523230000009967387723205528970_"  style="overflow:visible;"/>
				<clipPath id="SVGID_00000092450796110790919070000002611406976827283376_">
					<use xlink:href="#SVGID_00000070092734334156523230000009967387723205528970_"  style="overflow:visible;"/>
				</clipPath>
			</g>
			<g>
				<defs>
					<path id="SVGID_00000105421691640929416910000008169777302600560540_" d="M617.3,762.6h-55.5c-2.4,0-4.3-1.9-4.3-4.3V546.1
						c0-2.4,1.9-4.3,4.3-4.3h55.5c2.4,0,4.3,1.9,4.3,4.3v212.2C621.5,760.7,619.6,762.6,617.3,762.6z"/>
				</defs>
				<use xlink:href="#SVGID_00000105421691640929416910000008169777302600560540_"  style="overflow:visible;"/>
				<clipPath id="SVGID_00000139267580436308554190000002687942629670871730_">
					<use xlink:href="#SVGID_00000105421691640929416910000008169777302600560540_"  style="overflow:visible;"/>
				</clipPath>
			</g>
			<g>
				<defs>
					<path id="SVGID_00000061470368566339076460000001410582405243774623_" d="M722.5,762.6H667c-2.4,0-4.3-1.9-4.3-4.3V546.1
						c0-2.4,1.9-4.3,4.3-4.3h55.5c2.4,0,4.3,1.9,4.3,4.3v212.2C726.8,760.7,724.9,762.6,722.5,762.6z"/>
				</defs>
				<use xlink:href="#SVGID_00000061470368566339076460000001410582405243774623_"  style="overflow:visible;"/>
				<clipPath id="SVGID_00000162310913861590548410000011311415119527656102_">
					<use xlink:href="#SVGID_00000061470368566339076460000001410582405243774623_"  style="overflow:visible;"/>
				</clipPath>
			</g>
			<g>
				<defs>
					<path id="SVGID_00000172404345044919623320000001126287046392788870_" d="M827.8,762.6h-55.5c-2.4,0-4.3-1.9-4.3-4.3V546.1
						c0-2.4,1.9-4.3,4.3-4.3h55.5c2.4,0,4.3,1.9,4.3,4.3v212.2C832,760.7,830.1,762.6,827.8,762.6z"/>
				</defs>
				<use xlink:href="#SVGID_00000172404345044919623320000001126287046392788870_"  style="overflow:visible;"/>
				<clipPath id="SVGID_00000029757291420235929470000010636592427338441132_">
					<use xlink:href="#SVGID_00000172404345044919623320000001126287046392788870_"  style="overflow:visible;"/>
				</clipPath>
			</g>
		</g>
		<text transform="matrix(1 0 0 1 413.084 946.9688)" class="st4 st5 st6">5pillars</text>
		<g class="st4">
			<g>
				<path d="M586.2,998.1l-19.6,47.7c-0.2,0.7-0.6,1.2-1.2,1.6s-1.1,0.6-1.8,0.6c-1.1,0-1.8-0.3-2.3-0.9c-0.5-0.6-0.8-1.3-0.8-2
					c0-0.4,0.1-0.8,0.2-1.2l21.6-52.4c0.3-0.8,0.8-1.4,1.4-1.8c0.6-0.4,1.2-0.6,2-0.5c0.7,0,1.4,0.2,2,0.6c0.6,0.4,1,0.9,1.2,1.7
					l21.5,51.9c0.2,0.4,0.2,0.9,0.2,1.3c0,1-0.3,1.8-1,2.4c-0.7,0.6-1.4,0.9-2.3,0.9c-0.7,0-1.4-0.2-1.9-0.6c-0.6-0.4-1-1-1.3-1.7
					L584.3,998L586.2,998.1z M570.8,1032.2l2.8-6.5h24.8l1.3,6.5H570.8z"/>
				<path d="M678.3,993.3c0.9,0.5,1.5,1.2,1.7,2.3c0.2,1-0.1,1.9-0.8,2.8c-0.5,0.7-1.1,1-1.9,1.1c-0.8,0.1-1.6-0.1-2.3-0.5
					c-1.8-1.1-3.8-2-5.9-2.6c-2.1-0.6-4.3-1-6.7-1c-3.3,0-6.3,0.6-9,1.7c-2.7,1.1-5.1,2.7-7.1,4.8c-2,2.1-3.6,4.5-4.7,7.4
					c-1.1,2.8-1.7,5.9-1.7,9.3c0,3.7,0.6,6.9,1.8,9.8s2.8,5.3,4.8,7.4c2,2,4.4,3.6,7.1,4.6c2.7,1.1,5.6,1.6,8.8,1.6
					c2.3,0,4.5-0.3,6.6-0.9c2.1-0.6,4.1-1.5,5.9-2.7c0.8-0.4,1.6-0.5,2.4-0.4c0.8,0.1,1.5,0.5,2,1.2c0.7,0.9,1,1.8,0.8,2.8
					c-0.2,1-0.7,1.7-1.6,2.2c-1.4,0.8-3,1.6-4.8,2.3c-1.8,0.7-3.6,1.2-5.5,1.6c-1.9,0.4-3.8,0.6-5.7,0.6c-4,0-7.8-0.7-11.3-2.1
					c-3.6-1.4-6.7-3.4-9.5-6s-4.9-5.7-6.5-9.4c-1.6-3.7-2.3-7.9-2.3-12.5c0-4.3,0.8-8.2,2.3-11.9c1.5-3.6,3.6-6.8,6.3-9.5
					c2.7-2.7,5.8-4.7,9.4-6.2c3.6-1.5,7.5-2.2,11.7-2.2c2.9,0,5.7,0.4,8.4,1.1C673.5,990.8,676,991.9,678.3,993.3z"/>
				<path d="M726.9,998.1l-19.6,47.7c-0.2,0.7-0.6,1.2-1.2,1.6s-1.1,0.6-1.8,0.6c-1.1,0-1.8-0.3-2.3-0.9c-0.5-0.6-0.8-1.3-0.8-2
					c0-0.4,0.1-0.8,0.2-1.2l21.6-52.4c0.3-0.8,0.8-1.4,1.4-1.8c0.6-0.4,1.2-0.6,2-0.5c0.7,0,1.4,0.2,2,0.6c0.6,0.4,1,0.9,1.2,1.7
					l21.5,51.9c0.2,0.4,0.2,0.9,0.2,1.3c0,1-0.3,1.8-1,2.4c-0.7,0.6-1.4,0.9-2.3,0.9c-0.7,0-1.4-0.2-1.9-0.6c-0.6-0.4-1-1-1.3-1.7
					L725,998L726.9,998.1z M711.5,1032.2l2.8-6.5h24.8l1.3,6.5H711.5z"/>
				<path d="M801.2,989.5c4.1,0,7.7,0.8,10.8,2.3c3.1,1.5,5.7,3.7,7.7,6.4c2.1,2.7,3.6,5.8,4.6,9.4c1,3.5,1.5,7.2,1.5,11.1
					c0,5.4-0.9,10.3-2.8,14.7c-1.8,4.4-4.6,7.9-8.2,10.5c-3.6,2.6-8.2,3.9-13.7,3.9h-20.8c-0.9,0-1.8-0.3-2.4-1s-1-1.5-1-2.4v-51.5
					c0-0.9,0.3-1.8,1-2.4s1.5-1,2.4-1H801.2z M800.3,1041.3c4.3,0,7.8-1,10.5-3.1c2.7-2.1,4.6-4.8,5.9-8.3c1.2-3.4,1.9-7.2,1.9-11.3
					c0-3-0.3-5.9-1-8.6c-0.7-2.7-1.8-5.1-3.3-7.3c-1.5-2.1-3.4-3.8-5.7-5c-2.3-1.2-5.1-1.8-8.3-1.8h-17l0.7-0.8v46.9l-0.5-0.8H800.3
					z"/>
				<path d="M856.9,989.5h29.7c0.9,0,1.8,0.3,2.4,1c0.7,0.6,1,1.4,1,2.4c0,0.9-0.3,1.7-1,2.3c-0.7,0.6-1.5,0.9-2.4,0.9h-26.8
					l0.8-1.4v21l-0.8-0.9h23.2c0.9,0,1.8,0.3,2.4,0.9c0.7,0.6,1,1.4,1,2.4c0,0.9-0.3,1.7-1,2.3c-0.7,0.6-1.5,0.9-2.4,0.9h-22.9
					l0.6-0.8v21.6l-0.5-0.6h26.6c0.9,0,1.8,0.3,2.4,1s1,1.4,1,2.3c0,0.9-0.3,1.7-1,2.3c-0.7,0.6-1.5,0.9-2.4,0.9h-29.7
					c-0.9,0-1.8-0.3-2.4-1s-1-1.5-1-2.4v-51.5c0-0.9,0.3-1.8,1-2.4S855.9,989.5,856.9,989.5z"/>
				<path d="M921.1,989.4c0.5,0,1,0.1,1.6,0.4c0.6,0.3,1,0.7,1.4,1.2l22.1,33.3l-3-0.1l22.3-33.3c0.8-1.1,1.7-1.6,2.8-1.6
					c0.9,0.1,1.7,0.4,2.4,1c0.7,0.6,1,1.4,1,2.4v51.6c0,0.9-0.3,1.8-1,2.4s-1.5,1-2.5,1c-1.1,0-1.9-0.3-2.5-1c-0.6-0.7-1-1.5-1-2.4
					v-45.2l2.1,0.3l-19.7,29.9c-0.3,0.4-0.7,0.8-1.2,1.1c-0.5,0.3-1,0.4-1.5,0.3c-0.5,0.1-1-0.1-1.5-0.3c-0.5-0.3-0.9-0.6-1.2-1.1
					l-19.4-29.8l1.8-2.3v47c0,0.9-0.3,1.8-0.9,2.4c-0.6,0.7-1.4,1-2.3,1c-0.9,0-1.7-0.3-2.3-1c-0.6-0.7-0.9-1.5-0.9-2.4v-51.6
					c0-0.9,0.3-1.7,1-2.4C919.3,989.7,920.1,989.4,921.1,989.4z"/>
				<path d="M1038.6,989.2c0.9,0,1.7,0.3,2.4,1c0.6,0.7,1,1.4,1,2.3c0,0.4,0,0.8-0.1,1.1c-0.1,0.3-0.2,0.7-0.5,1l-19.3,27l1.1-4.1
					v26.8c0,0.9-0.3,1.8-1,2.4c-0.6,0.7-1.4,1-2.3,1c-1,0-1.8-0.3-2.5-1c-0.6-0.7-1-1.5-1-2.4v-26.3l0.5,2.3L998.2,995
					c-0.3-0.4-0.6-0.9-0.8-1.3c-0.2-0.4-0.2-0.8-0.2-1.2c0-1,0.4-1.8,1.2-2.4c0.8-0.6,1.6-0.9,2.4-0.9c1.1,0,2,0.5,2.8,1.5
					l17.3,23.7l-1.6-0.2l16.5-23.3C1036.5,989.7,1037.5,989.2,1038.6,989.2z"/>
			</g>
		</g>
		<path class="st4" d="M621.5,1167.1v-82.3c0-2.4-1.9-4.3-4.3-4.3h-55.5c-2.4,0-4.3,1.9-4.3,4.3v89.5
			C578.5,1170.9,599.9,1168.5,621.5,1167.1z"/>
		<path class="st4" d="M726.8,1169.1v-84.2c0-2.4-1.9-4.3-4.3-4.3H667c-2.4,0-4.3,1.9-4.3,4.3v81
			C684.3,1165.9,705.7,1167,726.8,1169.1z"/>
		<path class="st4" d="M832,1188.5v-103.6c0-2.4-1.9-4.3-4.3-4.3h-55.5c-2.4,0-4.3,1.9-4.3,4.3v89.7
			C789.7,1178.1,811.1,1182.8,832,1188.5z"/>
		<path class="st4" d="M937.3,1227.4v-142.5c0-2.4-1.9-4.3-4.3-4.3h-55.5c-2.4,0-4.3,1.9-4.3,4.3v116.4
			C895.1,1208.8,916.5,1217.5,937.3,1227.4z"/>
		<path class="st4" d="M1042.5,1290v-205.2c0-2.4-1.9-4.3-4.3-4.3h-55.5c-2.4,0-4.3,1.9-4.3,4.3v163.8
			C1000.7,1261.2,1022.1,1275,1042.5,1290z"/>
	</g>
</g>
<g id="Website">
	<g class="st0">
		<g class="st4">
			<g>
				
					<image style="display:none;overflow:visible;" width="225" height="225" xlink:href="D47C3546.jpg"  transform="matrix(2.037 0 0 2.037 274.4884 470.2624)">
				</image>
				<g class="st10">
					
						<image style="display:none;overflow:visible;" width="225" height="225" xlink:href="D47C354A.jpg"  transform="matrix(2.037 0 0 2.037 274.4884 470.2624)">
					</image>
				</g>
				<g class="st10">
					
						<image style="display:none;overflow:visible;" width="225" height="225" xlink:href="D47C354D.jpg"  transform="matrix(2.037 0 0 2.037 274.4884 470.2624)">
					</image>
				</g>
				<g class="st10">
					
						<image style="display:none;overflow:visible;" width="225" height="225" xlink:href="D47C354E.jpg"  transform="matrix(2.037 0 0 2.037 274.4884 470.2624)">
					</image>
				</g>
				<g class="st10">
					
						<image style="display:none;overflow:visible;" width="225" height="225" xlink:href="D47C354C.jpg"  transform="matrix(2.037 0 0 2.037 274.4884 470.2624)">
					</image>
				</g>
				<g class="st10">
					
						<image style="display:none;overflow:visible;" width="225" height="225" xlink:href="D47C354B.jpg"  transform="matrix(2.037 0 0 2.037 274.4884 470.2624)">
					</image>
				</g>
			</g>
			<g>
				<g class="st10">
					
						<image style="display:none;overflow:visible;" width="225" height="225" xlink:href="D47C3545.jpg"  transform="matrix(2.037 0 0 2.037 245.1071 671.4183)">
					</image>
				</g>
				<g class="st10">
					
						<image style="display:none;overflow:visible;" width="225" height="225" xlink:href="D47C3547.jpg"  transform="matrix(2.037 0 0 2.037 245.1071 671.4183)">
					</image>
				</g>
				<g class="st10">
					
						<image style="display:none;overflow:visible;" width="225" height="225" xlink:href="D47C3544.jpg"  transform="matrix(2.037 0 0 2.037 245.1071 671.4183)">
					</image>
				</g>
				<g class="st10">
					
						<image style="display:none;overflow:visible;" width="225" height="225" xlink:href="B5F3B379.jpg"  transform="matrix(2.037 0 0 2.037 245.1071 671.4183)">
					</image>
				</g>
				<g class="st10">
					
						<image style="display:none;overflow:visible;" width="225" height="225" xlink:href="B5F3B37F.jpg"  transform="matrix(2.037 0 0 2.037 245.1071 671.4183)">
					</image>
				</g>
			</g>
		</g>
		<text transform="matrix(1 0 0 1 707.1587 873.9782)" class="st2 st5 st11">5pillars</text>
		<g class="st4">
			<g>
				<path class="st7" d="M736,916.8l-16.4,39.9c-0.2,0.6-0.5,1-1,1.4c-0.5,0.3-1,0.5-1.5,0.5c-0.9,0-1.5-0.2-2-0.7s-0.7-1.1-0.7-1.7
					c0-0.3,0-0.7,0.1-1l18.1-43.9c0.3-0.7,0.7-1.1,1.2-1.5c0.5-0.3,1-0.5,1.6-0.4c0.6,0,1.2,0.2,1.6,0.5c0.5,0.3,0.8,0.8,1,1.4
					l18,43.5c0.1,0.4,0.2,0.7,0.2,1.1c0,0.8-0.3,1.5-0.8,2c-0.6,0.5-1.2,0.8-1.9,0.8c-0.6,0-1.1-0.2-1.6-0.5c-0.5-0.3-0.8-0.8-1-1.4
					l-16.6-39.9L736,916.8z M723.1,945.3l2.4-5.4h20.7l1,5.4H723.1z"/>
				<path class="st7" d="M813.1,912.8c0.8,0.4,1.3,1,1.4,1.9c0.1,0.8-0.1,1.6-0.6,2.4c-0.4,0.6-1,0.9-1.6,0.9
					c-0.7,0.1-1.3-0.1-2-0.4c-1.5-0.9-3.2-1.7-5-2.2c-1.8-0.5-3.6-0.8-5.6-0.8c-2.7,0-5.3,0.5-7.5,1.4c-2.3,0.9-4.3,2.3-5.9,4
					c-1.7,1.7-3,3.8-3.9,6.2c-0.9,2.4-1.4,5-1.4,7.8c0,3.1,0.5,5.8,1.5,8.2s2.3,4.5,4,6.2c1.7,1.7,3.7,3,5.9,3.9
					c2.3,0.9,4.7,1.3,7.4,1.3c1.9,0,3.7-0.3,5.5-0.8s3.4-1.3,5-2.2c0.7-0.3,1.3-0.4,2-0.3c0.7,0.1,1.2,0.4,1.6,1
					c0.6,0.7,0.8,1.5,0.7,2.3c-0.2,0.8-0.6,1.4-1.4,1.8c-1.2,0.7-2.5,1.3-4,1.9c-1.5,0.6-3,1-4.6,1.3c-1.6,0.3-3.2,0.5-4.8,0.5
					c-3.3,0-6.5-0.6-9.5-1.7s-5.6-2.8-7.9-5s-4.1-4.8-5.4-7.9c-1.3-3.1-2-6.6-2-10.5c0-3.6,0.6-6.9,1.9-9.9c1.3-3,3-5.7,5.2-7.9
					s4.8-4,7.8-5.2c3-1.2,6.3-1.8,9.8-1.8c2.4,0,4.8,0.3,7,0.9S811.2,911.5,813.1,912.8z"/>
				<path class="st7" d="M853.8,916.8l-16.4,39.9c-0.2,0.6-0.5,1-1,1.4c-0.5,0.3-1,0.5-1.5,0.5c-0.9,0-1.5-0.2-2-0.7
					s-0.7-1.1-0.7-1.7c0-0.3,0-0.7,0.1-1l18.1-43.9c0.3-0.7,0.7-1.1,1.2-1.5c0.5-0.3,1-0.5,1.6-0.4c0.6,0,1.2,0.2,1.6,0.5
					c0.5,0.3,0.8,0.8,1,1.4l18,43.5c0.1,0.4,0.2,0.7,0.2,1.1c0,0.8-0.3,1.5-0.8,2c-0.6,0.5-1.2,0.8-1.9,0.8c-0.6,0-1.1-0.2-1.6-0.5
					c-0.5-0.3-0.8-0.8-1-1.4l-16.6-39.9L853.8,916.8z M840.9,945.3l2.4-5.4H864l1,5.4H840.9z"/>
				<path class="st7" d="M915.9,909.5c3.4,0,6.5,0.6,9,1.9c2.6,1.3,4.7,3.1,6.5,5.3s3,4.9,3.9,7.8c0.9,3,1.3,6.1,1.3,9.3
					c0,4.5-0.8,8.6-2.3,12.3s-3.8,6.6-6.9,8.8s-6.9,3.3-11.5,3.3h-17.4c-0.8,0-1.5-0.3-2-0.8c-0.6-0.6-0.8-1.2-0.8-2v-43.1
					c0-0.8,0.3-1.5,0.8-2c0.6-0.6,1.2-0.8,2-0.8H915.9z M915.2,952.9c3.6,0,6.6-0.9,8.8-2.6c2.2-1.7,3.9-4,4.9-6.9
					c1-2.9,1.6-6,1.6-9.5c0-2.5-0.3-4.9-0.9-7.2c-0.6-2.3-1.5-4.3-2.7-6.1c-1.2-1.8-2.8-3.2-4.7-4.2s-4.2-1.5-6.9-1.5H901l0.6-0.6
					v39.3l-0.4-0.7H915.2z"/>
				<path class="st7" d="M962.5,909.5h24.8c0.8,0,1.5,0.3,2,0.8c0.6,0.5,0.8,1.2,0.8,2c0,0.8-0.3,1.4-0.8,1.9
					c-0.6,0.5-1.2,0.7-2,0.7h-22.5l0.6-1.2v17.6l-0.7-0.8h19.4c0.8,0,1.5,0.3,2,0.8c0.6,0.5,0.8,1.2,0.8,2c0,0.8-0.3,1.4-0.8,1.9
					c-0.6,0.5-1.2,0.7-2,0.7h-19.2l0.5-0.7v18.1l-0.4-0.5h22.3c0.8,0,1.5,0.3,2,0.8s0.8,1.2,0.8,1.9c0,0.8-0.3,1.4-0.8,2
					c-0.6,0.5-1.2,0.8-2,0.8h-24.8c-0.8,0-1.5-0.3-2-0.8c-0.6-0.6-0.8-1.2-0.8-2v-43.1c0-0.8,0.3-1.5,0.8-2
					C961.1,909.8,961.8,909.5,962.5,909.5z"/>
				<path class="st7" d="M1016.3,909.5c0.4,0,0.9,0.1,1.4,0.3c0.5,0.2,0.9,0.6,1.2,1l18.5,27.9l-2.5-0.1l18.7-27.8
					c0.7-0.9,1.4-1.3,2.4-1.3c0.7,0,1.4,0.3,2,0.9c0.6,0.5,0.9,1.2,0.9,2v43.2c0,0.8-0.3,1.5-0.8,2c-0.6,0.6-1.3,0.8-2.1,0.8
					c-0.9,0-1.6-0.3-2.1-0.8c-0.5-0.6-0.8-1.2-0.8-2v-37.8l1.7,0.3l-16.5,25.1c-0.3,0.4-0.6,0.7-1,0.9c-0.4,0.2-0.8,0.3-1.3,0.3
					c-0.4,0-0.8,0-1.3-0.3c-0.4-0.2-0.7-0.5-1-0.9l-16.3-25l1.5-1.9v39.4c0,0.8-0.3,1.5-0.8,2c-0.5,0.6-1.2,0.8-2,0.8
					s-1.4-0.3-2-0.8c-0.5-0.6-0.8-1.2-0.8-2v-43.2c0-0.7,0.3-1.4,0.8-2C1014.8,909.8,1015.5,909.5,1016.3,909.5z"/>
				<path class="st7" d="M1114.7,909.3c0.8,0,1.5,0.3,2,0.8c0.5,0.6,0.8,1.2,0.8,2c0,0.3,0,0.6-0.1,0.9s-0.2,0.6-0.4,0.8l-16.2,22.6
					l0.9-3.4v22.5c0,0.8-0.3,1.5-0.8,2c-0.5,0.6-1.2,0.8-1.9,0.8c-0.8,0-1.5-0.3-2.1-0.8c-0.5-0.6-0.8-1.2-0.8-2v-22l0.4,1.9
					l-15.6-21.2c-0.3-0.4-0.5-0.7-0.6-1.1s-0.2-0.7-0.2-1c0-0.8,0.3-1.5,1-2c0.7-0.5,1.3-0.8,2-0.8c0.9,0,1.7,0.4,2.3,1.3l14.4,19.8
					l-1.3-0.2l13.8-19.5C1112.9,909.8,1113.7,909.3,1114.7,909.3z"/>
			</g>
		</g>
		<g class="st4">
			<path class="st7" d="M251.4,669.4c153,0,305.1,0,458.3,0c-5.8,4.2-10.8,7.7-15.6,11.2c-13.8,10-26.5,21.2-38,33.8
				c-1.5,1.6-4.3,2.9-6.5,2.9c-78.4,0.2-156.8,0.2-235.3,0.2c-33.5,0-67.1,0-100.6,0.1c-3.6,0-6-1.1-8.4-3.8
				C289.7,696.5,271.8,682.2,251.4,669.4z"/>
			<g>
				<defs>
					<path id="SVGID_00000016053194410070740200000016644837659215249060_" d="M320.9,733.5c106.4,0,212.1,0,318.5,0
						c-0.9,1.8-1.6,3.1-2.3,4.4c-7.2,12.3-12.7,25.3-13.9,39.7c-0.3,3.8-2.6,3.7-5.2,3.7c-21.9,0-43.9,0-65.8,0c-25.5,0-51,0-76.4,0
						c-44.3,0-88.5,0-132.8,0.1c-3.9,0-5.4-1-5.8-5c-1.2-13.1-6.1-24.9-12.5-36.2C323.5,738.1,322.3,736.1,320.9,733.5z"/>
				</defs>
				<use xlink:href="#SVGID_00000016053194410070740200000016644837659215249060_"  style="overflow:visible;fill:#FFFFFF;"/>
				<clipPath id="SVGID_00000131363914289726644130000014166658857692662949_">
					<use xlink:href="#SVGID_00000016053194410070740200000016644837659215249060_"  style="overflow:visible;"/>
				</clipPath>
			</g>
			<g>
				<g>
					<g>
						<defs>
							<path id="SVGID_00000050662689824632302540000008729701215330926992_" d="M551.5,910.8h-29.6c-1.3,0-2.3-1-2.3-2.3V795.3
								c0-1.3,1-2.3,2.3-2.3h29.6c1.3,0,2.3,1,2.3,2.3v113.2C553.7,909.8,552.7,910.8,551.5,910.8z"/>
						</defs>
						<use xlink:href="#SVGID_00000050662689824632302540000008729701215330926992_"  style="overflow:visible;fill:#FFFFFF;"/>
						<clipPath id="SVGID_00000165933375429174499730000003561640928262394021_">
							<use xlink:href="#SVGID_00000050662689824632302540000008729701215330926992_"  style="overflow:visible;"/>
						</clipPath>
					</g>
					<g>
						<defs>
							<path id="SVGID_00000114031388196738482010000002997065477873745565_" d="M607.6,910.8H578c-1.3,0-2.3-1-2.3-2.3V795.3
								c0-1.3,1-2.3,2.3-2.3h29.6c1.3,0,2.3,1,2.3,2.3v113.2C609.9,909.8,608.9,910.8,607.6,910.8z"/>
						</defs>
						<use xlink:href="#SVGID_00000114031388196738482010000002997065477873745565_"  style="overflow:visible;fill:#FFFFFF;"/>
						<clipPath id="SVGID_00000138556606051041331420000005148064744387248265_">
							<use xlink:href="#SVGID_00000114031388196738482010000002997065477873745565_"  style="overflow:visible;"/>
						</clipPath>
					</g>
					<g>
						<defs>
							<path id="SVGID_00000127731095868116265560000008180195585438198945_" d="M383,910.8h-29.6c-1.3,0-2.3-1-2.3-2.3V795.3
								c0-1.3,1-2.3,2.3-2.3H383c1.3,0,2.3,1,2.3,2.3v113.2C385.3,909.8,384.3,910.8,383,910.8z"/>
						</defs>
						<use xlink:href="#SVGID_00000127731095868116265560000008180195585438198945_"  style="overflow:visible;fill:#FFFFFF;"/>
						<clipPath id="SVGID_00000078750181627663222650000011515573284689060738_">
							<use xlink:href="#SVGID_00000127731095868116265560000008180195585438198945_"  style="overflow:visible;"/>
						</clipPath>
					</g>
					<g>
						<defs>
							<path id="SVGID_00000029009926475295434090000000818064795366827937_" d="M439.2,910.8h-29.6c-1.3,0-2.3-1-2.3-2.3V795.3
								c0-1.3,1-2.3,2.3-2.3h29.6c1.3,0,2.3,1,2.3,2.3v113.2C441.4,909.8,440.4,910.8,439.2,910.8z"/>
						</defs>
						<use xlink:href="#SVGID_00000029009926475295434090000000818064795366827937_"  style="overflow:visible;fill:#FFFFFF;"/>
						<clipPath id="SVGID_00000003087200793424556660000009599805561440393662_">
							<use xlink:href="#SVGID_00000029009926475295434090000000818064795366827937_"  style="overflow:visible;"/>
						</clipPath>
					</g>
					<g>
						<defs>
							<path id="SVGID_00000146485680230000951280000006547620571918982059_" d="M495.3,910.8h-29.6c-1.3,0-2.3-1-2.3-2.3V795.3
								c0-1.3,1-2.3,2.3-2.3h29.6c1.3,0,2.3,1,2.3,2.3v113.2C497.6,909.8,496.6,910.8,495.3,910.8z"/>
						</defs>
						<use xlink:href="#SVGID_00000146485680230000951280000006547620571918982059_"  style="overflow:visible;fill:#FFFFFF;"/>
						<clipPath id="SVGID_00000132068786982426429200000016330072775882172294_">
							<use xlink:href="#SVGID_00000146485680230000951280000006547620571918982059_"  style="overflow:visible;"/>
						</clipPath>
					</g>
				</g>
				<path class="st7" d="M385.3,952.7v-43.9c0-1.3-1-2.3-2.3-2.3h-29.6c-1.3,0-2.3,1-2.3,2.3v47.7
					C362.3,954.7,373.7,953.4,385.3,952.7z"/>
				<path class="st7" d="M441.4,953.8v-44.9c0-1.3-1-2.3-2.3-2.3h-29.6c-1.3,0-2.3,1-2.3,2.3V952C418.8,952,430.2,952.6,441.4,953.8
					z"/>
				<path class="st7" d="M497.6,964.1v-55.3c0-1.3-1-2.3-2.3-2.3h-29.6c-1.3,0-2.3,1-2.3,2.3v47.8
					C475,958.6,486.4,961.1,497.6,964.1z"/>
				<path class="st7" d="M553.7,984.8v-76c0-1.3-1-2.3-2.3-2.3h-29.6c-1.3,0-2.3,1-2.3,2.3v62.1
					C531.2,974.9,542.7,979.6,553.7,984.8z"/>
				<path class="st7" d="M609.9,1018.3V908.8c0-1.3-1-2.3-2.3-2.3H578c-1.3,0-2.3,1-2.3,2.3v87.4
					C587.6,1002.9,599,1010.3,609.9,1018.3z"/>
			</g>
		</g>
	</g>
	<g>
		<g>
			
				<image style="display:none;overflow:visible;" width="225" height="225" xlink:href="B5F3B378.jpg"  transform="matrix(2.037 0 0 2.037 274.4884 470.2624)">
			</image>
			<g class="st10">
				
					<image style="display:none;overflow:visible;" width="225" height="225" xlink:href="B5F3B37B.jpg"  transform="matrix(2.037 0 0 2.037 274.4884 470.2624)">
				</image>
			</g>
			<g class="st10">
				
					<image style="display:none;overflow:visible;" width="225" height="225" xlink:href="B5F3B367.jpg"  transform="matrix(2.037 0 0 2.037 274.4884 470.2624)">
				</image>
			</g>
			<g class="st10">
				
					<image style="display:none;overflow:visible;" width="225" height="225" xlink:href="B5F3B377.jpg"  transform="matrix(2.037 0 0 2.037 274.4884 470.2624)">
				</image>
			</g>
			<g class="st10">
				
					<image style="display:none;overflow:visible;" width="225" height="225" xlink:href="B5F3B369.jpg"  transform="matrix(2.037 0 0 2.037 274.4884 470.2624)">
				</image>
			</g>
			<g class="st10">
				
					<image style="display:none;overflow:visible;" width="225" height="225" xlink:href="B5F3B36B.jpg"  transform="matrix(2.037 0 0 2.037 274.4884 470.2624)">
				</image>
			</g>
		</g>
		<g>
			<g class="st10">
				
					<image style="display:none;overflow:visible;" width="225" height="225" xlink:href="B5F3B368.jpg"  transform="matrix(2.037 0 0 2.037 245.1071 671.4183)">
				</image>
			</g>
			<g class="st10">
				
					<image style="display:none;overflow:visible;" width="225" height="225" xlink:href="B5F3B36F.jpg"  transform="matrix(2.037 0 0 2.037 245.1071 671.4183)">
				</image>
			</g>
			<g class="st10">
				
					<image style="display:none;overflow:visible;" width="225" height="225" xlink:href="B5F3B38C.jpg"  transform="matrix(2.037 0 0 2.037 245.1071 671.4183)">
				</image>
			</g>
			<g class="st10">
				
					<image style="display:none;overflow:visible;" width="225" height="225" xlink:href="B5F3B38F.jpg"  transform="matrix(2.037 0 0 2.037 245.1071 671.4183)">
				</image>
			</g>
			<g class="st10">
				
					<image style="display:none;overflow:visible;" width="225" height="225" xlink:href="B5F3B38D.jpg"  transform="matrix(2.037 0 0 2.037 245.1071 671.4183)">
				</image>
			</g>
		</g>
	</g>
	<g>
		<text transform="matrix(1 0 0 1 687.6046 835.3235)" class="st9 st5 st12">5pillars</text>
		<g>
			<g>
				<path class="st8" d="M721.4,885.5l-19.2,46.7c-0.2,0.7-0.6,1.2-1.1,1.6c-0.5,0.4-1.1,0.6-1.7,0.6c-1,0-1.8-0.3-2.3-0.9
					c-0.5-0.6-0.8-1.2-0.8-2c0-0.4,0.1-0.8,0.2-1.2l21.2-51.4c0.3-0.8,0.8-1.3,1.3-1.7c0.6-0.4,1.2-0.5,1.9-0.5
					c0.7,0,1.3,0.2,1.9,0.6c0.6,0.4,1,0.9,1.2,1.6l21.1,50.9c0.2,0.4,0.2,0.9,0.2,1.3c0,1-0.3,1.8-1,2.4c-0.7,0.6-1.4,0.9-2.2,0.9
					c-0.7,0-1.3-0.2-1.9-0.6c-0.5-0.4-1-1-1.2-1.7l-19.5-46.7L721.4,885.5z M706.2,918.9l2.8-6.4h24.3l1.2,6.4H706.2z"/>
				<path class="st8" d="M811.7,880.7c0.9,0.5,1.5,1.2,1.6,2.2c0.2,1-0.1,1.9-0.7,2.8c-0.5,0.7-1.1,1-1.9,1.1
					c-0.8,0.1-1.5-0.1-2.3-0.5c-1.8-1.1-3.7-1.9-5.8-2.6c-2.1-0.6-4.2-0.9-6.5-0.9c-3.2,0-6.2,0.5-8.8,1.6c-2.7,1.1-5,2.7-6.9,4.7
					c-2,2-3.5,4.5-4.6,7.2c-1.1,2.8-1.6,5.8-1.6,9.2c0,3.6,0.6,6.8,1.7,9.6c1.1,2.8,2.7,5.2,4.7,7.2c2,2,4.3,3.5,6.9,4.5
					c2.6,1,5.5,1.6,8.6,1.6c2.2,0,4.4-0.3,6.5-0.9c2.1-0.6,4-1.5,5.8-2.6c0.8-0.4,1.5-0.5,2.3-0.4c0.8,0.1,1.4,0.5,1.9,1.1
					c0.7,0.9,1,1.8,0.8,2.7c-0.2,1-0.7,1.7-1.6,2.2c-1.4,0.8-2.9,1.6-4.7,2.2c-1.7,0.7-3.6,1.2-5.4,1.6s-3.7,0.6-5.6,0.6
					c-3.9,0-7.6-0.7-11.1-2c-3.5-1.4-6.6-3.3-9.3-5.8s-4.8-5.6-6.3-9.2c-1.5-3.6-2.3-7.7-2.3-12.3c0-4.2,0.7-8.1,2.2-11.6
					c1.5-3.6,3.5-6.7,6.1-9.3s5.7-4.6,9.2-6.1c3.5-1.4,7.3-2.2,11.5-2.2c2.8,0,5.6,0.4,8.3,1.1C807,878.2,809.4,879.3,811.7,880.7z"
					/>
				<path class="st8" d="M859.3,885.5l-19.2,46.7c-0.2,0.7-0.6,1.2-1.1,1.6c-0.5,0.4-1.1,0.6-1.7,0.6c-1,0-1.8-0.3-2.3-0.9
					c-0.5-0.6-0.8-1.2-0.8-2c0-0.4,0.1-0.8,0.2-1.2l21.2-51.4c0.3-0.8,0.8-1.3,1.3-1.7c0.6-0.4,1.2-0.5,1.9-0.5
					c0.7,0,1.3,0.2,1.9,0.6c0.6,0.4,1,0.9,1.2,1.6l21.1,50.9c0.2,0.4,0.2,0.9,0.2,1.3c0,1-0.3,1.8-1,2.4c-0.7,0.6-1.4,0.9-2.2,0.9
					c-0.7,0-1.3-0.2-1.9-0.6c-0.5-0.4-1-1-1.2-1.7l-19.5-46.7L859.3,885.5z M844.2,918.9l2.8-6.4h24.3l1.2,6.4H844.2z"/>
				<path class="st8" d="M932.1,877c4,0,7.6,0.8,10.6,2.2c3,1.5,5.5,3.6,7.6,6.3c2,2.7,3.5,5.7,4.5,9.2c1,3.5,1.5,7.1,1.5,10.9
					c0,5.3-0.9,10.1-2.7,14.4c-1.8,4.3-4.5,7.8-8.1,10.3c-3.6,2.6-8,3.8-13.4,3.8h-20.4c-0.9,0-1.7-0.3-2.4-1c-0.7-0.7-1-1.4-1-2.4
					v-50.5c0-0.9,0.3-1.7,1-2.4c0.7-0.7,1.4-1,2.4-1H932.1z M931.3,927.8c4.2,0,7.7-1,10.3-3c2.6-2,4.5-4.7,5.8-8.1
					c1.2-3.4,1.8-7.1,1.8-11.1c0-2.9-0.3-5.7-1-8.4c-0.7-2.7-1.7-5-3.2-7.1c-1.4-2.1-3.3-3.7-5.6-4.9c-2.3-1.2-5-1.8-8.1-1.8h-16.7
					l0.7-0.7v46l-0.5-0.8H931.3z"/>
				<path class="st8" d="M986.7,877h29.1c0.9,0,1.7,0.3,2.4,0.9c0.7,0.6,1,1.4,1,2.3c0,0.9-0.3,1.7-1,2.2c-0.7,0.6-1.4,0.9-2.4,0.9
					h-26.3l0.7-1.4v20.6l-0.8-0.9h22.7c0.9,0,1.7,0.3,2.4,0.9c0.7,0.6,1,1.4,1,2.4c0,0.9-0.3,1.7-1,2.2c-0.7,0.6-1.4,0.9-2.4,0.9
					h-22.5l0.6-0.8v21.2l-0.5-0.6h26.1c0.9,0,1.7,0.3,2.4,1c0.7,0.7,1,1.4,1,2.2c0,0.9-0.3,1.7-1,2.3c-0.7,0.6-1.4,0.9-2.4,0.9
					h-29.1c-0.9,0-1.7-0.3-2.4-1c-0.7-0.7-1-1.4-1-2.4v-50.5c0-0.9,0.3-1.7,1-2.4C985,877.3,985.8,877,986.7,877z"/>
				<path class="st8" d="M1049.7,876.9c0.5,0,1,0.1,1.6,0.4c0.6,0.3,1,0.7,1.3,1.1l21.7,32.7l-2.9-0.1l21.9-32.6
					c0.8-1,1.7-1.6,2.8-1.6c0.9,0.1,1.6,0.4,2.3,1c0.7,0.6,1,1.4,1,2.3v50.6c0,0.9-0.3,1.7-1,2.4c-0.7,0.7-1.5,1-2.5,1
					c-1,0-1.9-0.3-2.5-1c-0.6-0.7-0.9-1.4-0.9-2.4v-44.3l2,0.3l-19.3,29.3c-0.3,0.4-0.7,0.8-1.2,1.1c-0.5,0.3-1,0.4-1.5,0.3
					c-0.5,0.1-1-0.1-1.5-0.3c-0.5-0.3-0.9-0.6-1.1-1.1l-19-29.3l1.7-2.2v46.1c0,0.9-0.3,1.7-0.9,2.4c-0.6,0.7-1.4,1-2.3,1
					c-0.9,0-1.7-0.3-2.3-1c-0.6-0.7-0.9-1.4-0.9-2.4v-50.6c0-0.9,0.3-1.6,1-2.3C1047.9,877.2,1048.8,876.9,1049.7,876.9z"/>
				<path class="st8" d="M1164.9,876.7c0.9,0,1.7,0.3,2.3,1c0.6,0.7,0.9,1.4,0.9,2.3c0,0.4,0,0.7-0.1,1.1c-0.1,0.3-0.2,0.7-0.4,1
					l-19,26.5l1.1-4v26.3c0,0.9-0.3,1.7-0.9,2.4c-0.6,0.7-1.4,1-2.2,1c-1,0-1.8-0.3-2.4-1c-0.6-0.7-0.9-1.4-0.9-2.4v-25.7l0.5,2.2
					l-18.3-24.8c-0.3-0.4-0.6-0.9-0.7-1.3c-0.2-0.4-0.2-0.8-0.2-1.2c0-1,0.4-1.8,1.2-2.4c0.8-0.6,1.6-0.9,2.3-0.9
					c1.1,0,2,0.5,2.7,1.5l16.9,23.2l-1.6-0.2l16.2-22.9C1162.9,877.3,1163.8,876.7,1164.9,876.7z"/>
			</g>
		</g>
		<path class="st8" d="M153.8,595.7c179.2,0,357.3,0,536.8,0c-6.8,4.9-12.6,9-18.3,13.1c-16.1,11.7-31,24.9-44.5,39.6
			c-1.7,1.9-5,3.4-7.6,3.4c-91.8,0.2-183.7,0.2-275.5,0.2c-39.3,0-78.6,0-117.9,0.1c-4.2,0-7-1.3-9.8-4.4
			C198.7,627.5,177.6,610.7,153.8,595.7z"/>
		<g>
			<defs>
				<path id="SVGID_00000066512177597670403080000010154524696955018657_" d="M235.2,670.8c124.6,0,248.4,0,373.1,0
					c-1.1,2.1-1.8,3.7-2.7,5.1c-8.5,14.4-14.8,29.7-16.3,46.5c-0.4,4.5-3,4.3-6.1,4.3c-25.7,0-51.4,0-77.1,0c-29.8,0-59.7,0-89.5,0
					c-51.8,0-103.7,0-155.5,0.2c-4.6,0-6.4-1.2-6.8-5.9c-1.4-15.3-7.1-29.2-14.6-42.5C238.2,676.2,236.9,673.8,235.2,670.8z"/>
			</defs>
			<use xlink:href="#SVGID_00000066512177597670403080000010154524696955018657_"  style="overflow:visible;fill:#0A0A3D;"/>
			<clipPath id="SVGID_00000160154385955639311070000014331877603077546112_">
				<use xlink:href="#SVGID_00000066512177597670403080000010154524696955018657_"  style="overflow:visible;"/>
			</clipPath>
		</g>
		<g>
			<g>
				<g>
					<defs>
						<path id="SVGID_00000089539077780904231450000007271293220686489494_" d="M505.2,878.5h-34.7c-1.5,0-2.7-1.2-2.7-2.7V743.2
							c0-1.5,1.2-2.7,2.7-2.7h34.7c1.5,0,2.7,1.2,2.7,2.7v132.6C507.9,877.3,506.7,878.5,505.2,878.5z"/>
					</defs>
					<use xlink:href="#SVGID_00000089539077780904231450000007271293220686489494_"  style="overflow:visible;fill:#D89F55;"/>
					<clipPath id="SVGID_00000050621187637116405350000005283120549350940605_">
						<use xlink:href="#SVGID_00000089539077780904231450000007271293220686489494_"  style="overflow:visible;"/>
					</clipPath>
				</g>
				<g>
					<defs>
						<path id="SVGID_00000060739410525930645010000009338708475621852809_" d="M571,878.5h-34.7c-1.5,0-2.7-1.2-2.7-2.7V743.2
							c0-1.5,1.2-2.7,2.7-2.7H571c1.5,0,2.7,1.2,2.7,2.7v132.6C573.7,877.3,572.5,878.5,571,878.5z"/>
					</defs>
					<use xlink:href="#SVGID_00000060739410525930645010000009338708475621852809_"  style="overflow:visible;fill:#D89F55;"/>
					<clipPath id="SVGID_00000105424249162579086390000014556970231144657564_">
						<use xlink:href="#SVGID_00000060739410525930645010000009338708475621852809_"  style="overflow:visible;"/>
					</clipPath>
				</g>
				<g>
					<defs>
						<path id="SVGID_00000142863576676157099440000004204201289183072183_" d="M308,878.5h-34.7c-1.5,0-2.7-1.2-2.7-2.7V743.2
							c0-1.5,1.2-2.7,2.7-2.7H308c1.5,0,2.7,1.2,2.7,2.7v132.6C310.6,877.3,309.4,878.5,308,878.5z"/>
					</defs>
					<use xlink:href="#SVGID_00000142863576676157099440000004204201289183072183_"  style="overflow:visible;fill:#D89F55;"/>
					<clipPath id="SVGID_00000075843862997864826210000003095278608353941168_">
						<use xlink:href="#SVGID_00000142863576676157099440000004204201289183072183_"  style="overflow:visible;"/>
					</clipPath>
				</g>
				<g>
					<defs>
						<path id="SVGID_00000094584332091277007740000003973894306379862415_" d="M373.7,878.5H339c-1.5,0-2.7-1.2-2.7-2.7V743.2
							c0-1.5,1.2-2.7,2.7-2.7h34.7c1.5,0,2.7,1.2,2.7,2.7v132.6C376.4,877.3,375.2,878.5,373.7,878.5z"/>
					</defs>
					<use xlink:href="#SVGID_00000094584332091277007740000003973894306379862415_"  style="overflow:visible;fill:#D89F55;"/>
					<clipPath id="SVGID_00000077326202015151446630000005716062151441951404_">
						<use xlink:href="#SVGID_00000094584332091277007740000003973894306379862415_"  style="overflow:visible;"/>
					</clipPath>
				</g>
				<g>
					<defs>
						<path id="SVGID_00000039849602582878923040000017621081688813094298_" d="M439.5,878.5h-34.7c-1.5,0-2.7-1.2-2.7-2.7V743.2
							c0-1.5,1.2-2.7,2.7-2.7h34.7c1.5,0,2.7,1.2,2.7,2.7v132.6C442.2,877.3,441,878.5,439.5,878.5z"/>
					</defs>
					<use xlink:href="#SVGID_00000039849602582878923040000017621081688813094298_"  style="overflow:visible;fill:#D89F55;"/>
					<clipPath id="SVGID_00000178891581780935186930000012400394101766403205_">
						<use xlink:href="#SVGID_00000039849602582878923040000017621081688813094298_"  style="overflow:visible;"/>
					</clipPath>
				</g>
			</g>
			<path class="st9" d="M310.6,927.5v-51.4c0-1.5-1.2-2.7-2.7-2.7h-34.7c-1.5,0-2.7,1.2-2.7,2.7V932
				C283.7,929.9,297.1,928.4,310.6,927.5z"/>
			<path class="st9" d="M376.4,928.8v-52.6c0-1.5-1.2-2.7-2.7-2.7H339c-1.5,0-2.7,1.2-2.7,2.7v50.6
				C349.9,926.8,363.2,927.4,376.4,928.8z"/>
			<path class="st9" d="M442.2,940.9v-64.8c0-1.5-1.2-2.7-2.7-2.7h-34.7c-1.5,0-2.7,1.2-2.7,2.7v56
				C415.7,934.4,429.1,937.3,442.2,940.9z"/>
			<path class="st9" d="M507.9,965.2v-89c0-1.5-1.2-2.7-2.7-2.7h-34.7c-1.5,0-2.7,1.2-2.7,2.7v72.7
				C481.6,953.6,494.9,959,507.9,965.2z"/>
			<path class="st9" d="M573.7,1004.3V876.1c0-1.5-1.2-2.7-2.7-2.7h-34.7c-1.5,0-2.7,1.2-2.7,2.7v102.4
				C547.5,986.3,560.9,994.9,573.7,1004.3z"/>
		</g>
	</g>
	<g class="st0">
		<text transform="matrix(1 0 0 1 707.1587 1155.9783)" class="st3 st5 st11">5pillars</text>
		<g class="st4">
			<g>
				<g>
					<path class="st9" d="M736,1198.8l-16.4,39.9c-0.2,0.6-0.5,1-1,1.4c-0.5,0.3-1,0.5-1.5,0.5c-0.9,0-1.5-0.2-2-0.7
						s-0.7-1.1-0.7-1.7c0-0.3,0-0.7,0.1-1l18.1-43.9c0.3-0.7,0.7-1.1,1.2-1.5c0.5-0.3,1-0.5,1.6-0.4c0.6,0,1.2,0.2,1.6,0.5
						c0.5,0.3,0.8,0.8,1,1.4l18,43.5c0.1,0.4,0.2,0.7,0.2,1.1c0,0.8-0.3,1.5-0.8,2c-0.6,0.5-1.2,0.8-1.9,0.8c-0.6,0-1.1-0.2-1.6-0.5
						c-0.5-0.3-0.8-0.8-1-1.4l-16.6-39.9L736,1198.8z M723.1,1227.3l2.4-5.4h20.7l1,5.4H723.1z"/>
					<path class="st9" d="M813.1,1194.8c0.8,0.4,1.3,1,1.4,1.9c0.1,0.8-0.1,1.6-0.6,2.4c-0.4,0.6-1,0.9-1.6,0.9
						c-0.7,0.1-1.3-0.1-2-0.4c-1.5-0.9-3.2-1.7-5-2.2c-1.8-0.5-3.6-0.8-5.6-0.8c-2.7,0-5.3,0.5-7.5,1.4c-2.3,0.9-4.3,2.3-5.9,4
						c-1.7,1.7-3,3.8-3.9,6.2c-0.9,2.4-1.4,5-1.4,7.8c0,3.1,0.5,5.8,1.5,8.2s2.3,4.5,4,6.2c1.7,1.7,3.7,3,5.9,3.9
						c2.3,0.9,4.7,1.3,7.4,1.3c1.9,0,3.7-0.3,5.5-0.8s3.4-1.3,5-2.2c0.7-0.3,1.3-0.4,2-0.3c0.7,0.1,1.2,0.4,1.6,1
						c0.6,0.7,0.8,1.5,0.7,2.3c-0.2,0.8-0.6,1.4-1.4,1.8c-1.2,0.7-2.5,1.3-4,1.9c-1.5,0.6-3,1-4.6,1.3c-1.6,0.3-3.2,0.5-4.8,0.5
						c-3.3,0-6.5-0.6-9.5-1.7s-5.6-2.8-7.9-5s-4.1-4.8-5.4-7.9c-1.3-3.1-2-6.6-2-10.5c0-3.6,0.6-6.9,1.9-9.9c1.3-3,3-5.7,5.2-7.9
						s4.8-4,7.8-5.2c3-1.2,6.3-1.8,9.8-1.8c2.4,0,4.8,0.3,7,0.9S811.2,1193.5,813.1,1194.8z"/>
					<path class="st9" d="M853.8,1198.8l-16.4,39.9c-0.2,0.6-0.5,1-1,1.4c-0.5,0.3-1,0.5-1.5,0.5c-0.9,0-1.5-0.2-2-0.7
						s-0.7-1.1-0.7-1.7c0-0.3,0-0.7,0.1-1l18.1-43.9c0.3-0.7,0.7-1.1,1.2-1.5c0.5-0.3,1-0.5,1.6-0.4c0.6,0,1.2,0.2,1.6,0.5
						c0.5,0.3,0.8,0.8,1,1.4l18,43.5c0.1,0.4,0.2,0.7,0.2,1.1c0,0.8-0.3,1.5-0.8,2c-0.6,0.5-1.2,0.8-1.9,0.8c-0.6,0-1.1-0.2-1.6-0.5
						c-0.5-0.3-0.8-0.8-1-1.4l-16.6-39.9L853.8,1198.8z M840.9,1227.3l2.4-5.4H864l1,5.4H840.9z"/>
					<path class="st9" d="M915.9,1191.5c3.4,0,6.5,0.6,9,1.9c2.6,1.3,4.7,3.1,6.5,5.3s3,4.9,3.9,7.8c0.9,3,1.3,6.1,1.3,9.3
						c0,4.5-0.8,8.6-2.3,12.3s-3.8,6.6-6.9,8.8s-6.9,3.3-11.5,3.3h-17.4c-0.8,0-1.5-0.3-2-0.8c-0.6-0.6-0.8-1.2-0.8-2v-43.1
						c0-0.8,0.3-1.5,0.8-2c0.6-0.6,1.2-0.8,2-0.8H915.9z M915.2,1234.9c3.6,0,6.6-0.9,8.8-2.6c2.2-1.7,3.9-4,4.9-6.9
						c1-2.9,1.6-6,1.6-9.5c0-2.5-0.3-4.9-0.9-7.2c-0.6-2.3-1.5-4.3-2.7-6.1c-1.2-1.8-2.8-3.2-4.7-4.2s-4.2-1.5-6.9-1.5H901l0.6-0.6
						v39.3l-0.4-0.7H915.2z"/>
					<path class="st9" d="M962.5,1191.5h24.8c0.8,0,1.5,0.3,2,0.8c0.6,0.5,0.8,1.2,0.8,2c0,0.8-0.3,1.4-0.8,1.9
						c-0.6,0.5-1.2,0.7-2,0.7h-22.5l0.6-1.2v17.6l-0.7-0.8h19.4c0.8,0,1.5,0.3,2,0.8c0.6,0.5,0.8,1.2,0.8,2c0,0.8-0.3,1.4-0.8,1.9
						c-0.6,0.5-1.2,0.7-2,0.7h-19.2l0.5-0.7v18.1l-0.4-0.5h22.3c0.8,0,1.5,0.3,2,0.8s0.8,1.2,0.8,1.9c0,0.8-0.3,1.4-0.8,2
						c-0.6,0.5-1.2,0.8-2,0.8h-24.8c-0.8,0-1.5-0.3-2-0.8c-0.6-0.6-0.8-1.2-0.8-2v-43.1c0-0.8,0.3-1.5,0.8-2
						C961.1,1191.8,961.8,1191.5,962.5,1191.5z"/>
					<path class="st9" d="M1016.3,1191.5c0.4,0,0.9,0.1,1.4,0.3c0.5,0.2,0.9,0.6,1.2,1l18.5,27.9l-2.5-0.1l18.7-27.8
						c0.7-0.9,1.4-1.3,2.4-1.3c0.7,0,1.4,0.3,2,0.9c0.6,0.5,0.9,1.2,0.9,2v43.2c0,0.8-0.3,1.5-0.8,2c-0.6,0.6-1.3,0.8-2.1,0.8
						c-0.9,0-1.6-0.3-2.1-0.8c-0.5-0.6-0.8-1.2-0.8-2v-37.8l1.7,0.3l-16.5,25.1c-0.3,0.4-0.6,0.7-1,0.9c-0.4,0.2-0.8,0.3-1.3,0.3
						c-0.4,0-0.8,0-1.3-0.3c-0.4-0.2-0.7-0.5-1-0.9l-16.3-25l1.5-1.9v39.4c0,0.8-0.3,1.5-0.8,2c-0.5,0.6-1.2,0.8-2,0.8
						s-1.4-0.3-2-0.8c-0.5-0.6-0.8-1.2-0.8-2v-43.2c0-0.7,0.3-1.4,0.8-2C1014.8,1191.8,1015.5,1191.5,1016.3,1191.5z"/>
					<path class="st9" d="M1114.7,1191.3c0.8,0,1.5,0.3,2,0.8c0.5,0.6,0.8,1.2,0.8,2c0,0.3,0,0.6-0.1,0.9s-0.2,0.6-0.4,0.8
						l-16.2,22.6l0.9-3.4v22.5c0,0.8-0.3,1.5-0.8,2c-0.5,0.6-1.2,0.8-1.9,0.8c-0.8,0-1.5-0.3-2.1-0.8c-0.5-0.6-0.8-1.2-0.8-2v-22
						l0.4,1.9l-15.6-21.2c-0.3-0.4-0.5-0.7-0.6-1.1s-0.2-0.7-0.2-1c0-0.8,0.3-1.5,1-2c0.7-0.5,1.3-0.8,2-0.8c0.9,0,1.7,0.4,2.3,1.3
						l14.4,19.8l-1.3-0.2l13.8-19.5C1112.9,1191.8,1113.7,1191.3,1114.7,1191.3z"/>
				</g>
			</g>
		</g>
		<path class="st1" d="M251.4,951.4c153,0,305.1,0,458.3,0c-5.8,4.2-10.8,7.7-15.6,11.2c-13.8,10-26.5,21.2-38,33.8
			c-1.5,1.6-4.3,2.9-6.5,2.9c-78.4,0.2-156.8,0.2-235.3,0.2c-33.5,0-67.1,0-100.6,0.1c-3.6,0-6-1.1-8.4-3.8
			C289.7,978.5,271.8,964.2,251.4,951.4z"/>
		<g class="st4">
			<defs>
				<path id="SVGID_00000176025897947582342310000005411941424589274010_" d="M320.9,1015.5c106.4,0,212.1,0,318.5,0
					c-0.9,1.8-1.6,3.1-2.3,4.4c-7.2,12.3-12.7,25.3-13.9,39.7c-0.3,3.8-2.6,3.7-5.2,3.7c-21.9,0-43.9,0-65.8,0c-25.5,0-51,0-76.4,0
					c-44.3,0-88.5,0-132.8,0.1c-3.9,0-5.4-1-5.8-5c-1.2-13.1-6.1-24.9-12.5-36.2C323.5,1020.1,322.3,1018.1,320.9,1015.5z"/>
			</defs>
			<use xlink:href="#SVGID_00000176025897947582342310000005411941424589274010_"  style="overflow:visible;fill:#D89F55;"/>
			<clipPath id="SVGID_00000114758559876984466400000001907397468609829818_">
				<use xlink:href="#SVGID_00000176025897947582342310000005411941424589274010_"  style="overflow:visible;"/>
			</clipPath>
		</g>
		<g class="st4">
			<g>
				<g>
					<defs>
						<path id="SVGID_00000004522418368309757860000002059776524594931609_" d="M551.5,1192.8h-29.6c-1.3,0-2.3-1-2.3-2.3v-113.2
							c0-1.3,1-2.3,2.3-2.3h29.6c1.3,0,2.3,1,2.3,2.3v113.2C553.7,1191.8,552.7,1192.8,551.5,1192.8z"/>
					</defs>
					<use xlink:href="#SVGID_00000004522418368309757860000002059776524594931609_"  style="overflow:visible;fill:#0A0A3D;"/>
					<clipPath id="SVGID_00000076563060911177535370000012836695382187105701_">
						<use xlink:href="#SVGID_00000004522418368309757860000002059776524594931609_"  style="overflow:visible;"/>
					</clipPath>
				</g>
				<g>
					<defs>
						<path id="SVGID_00000003103569808532773360000009111300322498530221_" d="M607.6,1192.8H578c-1.3,0-2.3-1-2.3-2.3v-113.2
							c0-1.3,1-2.3,2.3-2.3h29.6c1.3,0,2.3,1,2.3,2.3v113.2C609.9,1191.8,608.9,1192.8,607.6,1192.8z"/>
					</defs>
					<use xlink:href="#SVGID_00000003103569808532773360000009111300322498530221_"  style="overflow:visible;fill:#0A0A3D;"/>
					<clipPath id="SVGID_00000002359075966091735700000002673563166877452203_">
						<use xlink:href="#SVGID_00000003103569808532773360000009111300322498530221_"  style="overflow:visible;"/>
					</clipPath>
				</g>
				<g>
					<defs>
						<path id="SVGID_00000077288124458450232800000000699715766475076796_" d="M383,1192.8h-29.6c-1.3,0-2.3-1-2.3-2.3v-113.2
							c0-1.3,1-2.3,2.3-2.3H383c1.3,0,2.3,1,2.3,2.3v113.2C385.3,1191.8,384.3,1192.8,383,1192.8z"/>
					</defs>
					<use xlink:href="#SVGID_00000077288124458450232800000000699715766475076796_"  style="overflow:visible;fill:#0A0A3D;"/>
					<clipPath id="SVGID_00000137104828676664274930000001195400372888011692_">
						<use xlink:href="#SVGID_00000077288124458450232800000000699715766475076796_"  style="overflow:visible;"/>
					</clipPath>
				</g>
				<g>
					<defs>
						<path id="SVGID_00000083050476113289963780000003312076034425857435_" d="M439.2,1192.8h-29.6c-1.3,0-2.3-1-2.3-2.3v-113.2
							c0-1.3,1-2.3,2.3-2.3h29.6c1.3,0,2.3,1,2.3,2.3v113.2C441.4,1191.8,440.4,1192.8,439.2,1192.8z"/>
					</defs>
					<use xlink:href="#SVGID_00000083050476113289963780000003312076034425857435_"  style="overflow:visible;fill:#0A0A3D;"/>
					<clipPath id="SVGID_00000078767767695057912170000000692592266561946033_">
						<use xlink:href="#SVGID_00000083050476113289963780000003312076034425857435_"  style="overflow:visible;"/>
					</clipPath>
				</g>
				<g>
					<defs>
						<path id="SVGID_00000086690390915502875480000003172505960349705906_" d="M495.3,1192.8h-29.6c-1.3,0-2.3-1-2.3-2.3v-113.2
							c0-1.3,1-2.3,2.3-2.3h29.6c1.3,0,2.3,1,2.3,2.3v113.2C497.6,1191.8,496.6,1192.8,495.3,1192.8z"/>
					</defs>
					<use xlink:href="#SVGID_00000086690390915502875480000003172505960349705906_"  style="overflow:visible;fill:#0A0A3D;"/>
					<clipPath id="SVGID_00000157996028366203660300000014727263657190260629_">
						<use xlink:href="#SVGID_00000086690390915502875480000003172505960349705906_"  style="overflow:visible;"/>
					</clipPath>
				</g>
			</g>
			<path class="st8" d="M385.3,1234.7v-43.9c0-1.3-1-2.3-2.3-2.3h-29.6c-1.3,0-2.3,1-2.3,2.3v47.7
				C362.3,1236.7,373.7,1235.4,385.3,1234.7z"/>
			<path class="st8" d="M441.4,1235.8v-44.9c0-1.3-1-2.3-2.3-2.3h-29.6c-1.3,0-2.3,1-2.3,2.3v43.2
				C418.8,1234,430.2,1234.6,441.4,1235.8z"/>
			<path class="st8" d="M497.6,1246.1v-55.3c0-1.3-1-2.3-2.3-2.3h-29.6c-1.3,0-2.3,1-2.3,2.3v47.8
				C475,1240.6,486.4,1243.1,497.6,1246.1z"/>
			<path class="st8" d="M553.7,1266.8v-76c0-1.3-1-2.3-2.3-2.3h-29.6c-1.3,0-2.3,1-2.3,2.3v62.1
				C531.2,1256.9,542.7,1261.6,553.7,1266.8z"/>
			<path class="st8" d="M609.9,1300.3v-109.4c0-1.3-1-2.3-2.3-2.3H578c-1.3,0-2.3,1-2.3,2.3v87.4
				C587.6,1284.9,599,1292.3,609.9,1300.3z"/>
		</g>
	</g>
	<g class="st0">
		<g class="st4">
			<g>
				
					<image style="display:none;overflow:visible;" width="225" height="225" xlink:href="B5F3B383.jpg"  transform="matrix(2.037 0 0 2.037 274.4884 470.2624)">
				</image>
				<g class="st10">
					
						<image style="display:none;overflow:visible;" width="225" height="225" xlink:href="B5F3B384.jpg"  transform="matrix(2.037 0 0 2.037 274.4884 470.2624)">
					</image>
				</g>
				<g class="st10">
					
						<image style="display:none;overflow:visible;" width="225" height="225" xlink:href="B5F3B387.jpg"  transform="matrix(2.037 0 0 2.037 274.4884 470.2624)">
					</image>
				</g>
				<g class="st10">
					
						<image style="display:none;overflow:visible;" width="225" height="225" xlink:href="B5F3B385.jpg"  transform="matrix(2.037 0 0 2.037 274.4884 470.2624)">
					</image>
				</g>
				<g class="st10">
					
						<image style="display:none;overflow:visible;" width="225" height="225" xlink:href="B5F3B382.jpg"  transform="matrix(2.037 0 0 2.037 274.4884 470.2624)">
					</image>
				</g>
				<g class="st10">
					
						<image style="display:none;overflow:visible;" width="225" height="225" xlink:href="B5F3B3BC.jpg"  transform="matrix(2.037 0 0 2.037 274.4884 470.2624)">
					</image>
				</g>
			</g>
			<g>
				<g class="st10">
					
						<image style="display:none;overflow:visible;" width="225" height="225" xlink:href="B5F3B3BF.jpg"  transform="matrix(2.037 0 0 2.037 245.1071 671.4183)">
					</image>
				</g>
				<g class="st10">
					
						<image style="display:none;overflow:visible;" width="225" height="225" xlink:href="B5F3B3A3.jpg"  transform="matrix(2.037 0 0 2.037 245.1071 671.4183)">
					</image>
				</g>
				<g class="st10">
					
						<image style="display:none;overflow:visible;" width="225" height="225" xlink:href="B5F3B3A1.jpg"  transform="matrix(2.037 0 0 2.037 245.1071 671.4183)">
					</image>
				</g>
				<g class="st10">
					
						<image style="display:none;overflow:visible;" width="225" height="225" xlink:href="B5F3B39F.jpg"  transform="matrix(2.037 0 0 2.037 245.1071 671.4183)">
					</image>
				</g>
				<g class="st10">
					
						<image style="display:none;overflow:visible;" width="225" height="225" xlink:href="B5F3B3E1.jpg"  transform="matrix(2.037 0 0 2.037 245.1071 671.4183)">
					</image>
				</g>
			</g>
		</g>
		<text transform="matrix(1 0 0 1 707.1587 873.9782)" class="st3 st5 st11">5pillars</text>
		<g class="st4">
			<g>
				<path class="st8" d="M736,916.8l-16.4,39.9c-0.2,0.6-0.5,1-1,1.4c-0.5,0.3-1,0.5-1.5,0.5c-0.9,0-1.5-0.2-2-0.7s-0.7-1.1-0.7-1.7
					c0-0.3,0-0.7,0.1-1l18.1-43.9c0.3-0.7,0.7-1.1,1.2-1.5c0.5-0.3,1-0.5,1.6-0.4c0.6,0,1.2,0.2,1.6,0.5c0.5,0.3,0.8,0.8,1,1.4
					l18,43.5c0.1,0.4,0.2,0.7,0.2,1.1c0,0.8-0.3,1.5-0.8,2c-0.6,0.5-1.2,0.8-1.9,0.8c-0.6,0-1.1-0.2-1.6-0.5c-0.5-0.3-0.8-0.8-1-1.4
					l-16.6-39.9L736,916.8z M723.1,945.3l2.4-5.4h20.7l1,5.4H723.1z"/>
				<path class="st8" d="M813.1,912.8c0.8,0.4,1.3,1,1.4,1.9c0.1,0.8-0.1,1.6-0.6,2.4c-0.4,0.6-1,0.9-1.6,0.9
					c-0.7,0.1-1.3-0.1-2-0.4c-1.5-0.9-3.2-1.7-5-2.2c-1.8-0.5-3.6-0.8-5.6-0.8c-2.7,0-5.3,0.5-7.5,1.4c-2.3,0.9-4.3,2.3-5.9,4
					c-1.7,1.7-3,3.8-3.9,6.2c-0.9,2.4-1.4,5-1.4,7.8c0,3.1,0.5,5.8,1.5,8.2s2.3,4.5,4,6.2c1.7,1.7,3.7,3,5.9,3.9
					c2.3,0.9,4.7,1.3,7.4,1.3c1.9,0,3.7-0.3,5.5-0.8s3.4-1.3,5-2.2c0.7-0.3,1.3-0.4,2-0.3c0.7,0.1,1.2,0.4,1.6,1
					c0.6,0.7,0.8,1.5,0.7,2.3c-0.2,0.8-0.6,1.4-1.4,1.8c-1.2,0.7-2.5,1.3-4,1.9c-1.5,0.6-3,1-4.6,1.3c-1.6,0.3-3.2,0.5-4.8,0.5
					c-3.3,0-6.5-0.6-9.5-1.7s-5.6-2.8-7.9-5s-4.1-4.8-5.4-7.9c-1.3-3.1-2-6.6-2-10.5c0-3.6,0.6-6.9,1.9-9.9c1.3-3,3-5.7,5.2-7.9
					s4.8-4,7.8-5.2c3-1.2,6.3-1.8,9.8-1.8c2.4,0,4.8,0.3,7,0.9S811.2,911.5,813.1,912.8z"/>
				<path class="st8" d="M853.8,916.8l-16.4,39.9c-0.2,0.6-0.5,1-1,1.4c-0.5,0.3-1,0.5-1.5,0.5c-0.9,0-1.5-0.2-2-0.7
					s-0.7-1.1-0.7-1.7c0-0.3,0-0.7,0.1-1l18.1-43.9c0.3-0.7,0.7-1.1,1.2-1.5c0.5-0.3,1-0.5,1.6-0.4c0.6,0,1.2,0.2,1.6,0.5
					c0.5,0.3,0.8,0.8,1,1.4l18,43.5c0.1,0.4,0.2,0.7,0.2,1.1c0,0.8-0.3,1.5-0.8,2c-0.6,0.5-1.2,0.8-1.9,0.8c-0.6,0-1.1-0.2-1.6-0.5
					c-0.5-0.3-0.8-0.8-1-1.4l-16.6-39.9L853.8,916.8z M840.9,945.3l2.4-5.4H864l1,5.4H840.9z"/>
				<path class="st8" d="M915.9,909.5c3.4,0,6.5,0.6,9,1.9c2.6,1.3,4.7,3.1,6.5,5.3s3,4.9,3.9,7.8c0.9,3,1.3,6.1,1.3,9.3
					c0,4.5-0.8,8.6-2.3,12.3s-3.8,6.6-6.9,8.8s-6.9,3.3-11.5,3.3h-17.4c-0.8,0-1.5-0.3-2-0.8c-0.6-0.6-0.8-1.2-0.8-2v-43.1
					c0-0.8,0.3-1.5,0.8-2c0.6-0.6,1.2-0.8,2-0.8H915.9z M915.2,952.9c3.6,0,6.6-0.9,8.8-2.6c2.2-1.7,3.9-4,4.9-6.9
					c1-2.9,1.6-6,1.6-9.5c0-2.5-0.3-4.9-0.9-7.2c-0.6-2.3-1.5-4.3-2.7-6.1c-1.2-1.8-2.8-3.2-4.7-4.2s-4.2-1.5-6.9-1.5H901l0.6-0.6
					v39.3l-0.4-0.7H915.2z"/>
				<path class="st8" d="M962.5,909.5h24.8c0.8,0,1.5,0.3,2,0.8c0.6,0.5,0.8,1.2,0.8,2c0,0.8-0.3,1.4-0.8,1.9
					c-0.6,0.5-1.2,0.7-2,0.7h-22.5l0.6-1.2v17.6l-0.7-0.8h19.4c0.8,0,1.5,0.3,2,0.8c0.6,0.5,0.8,1.2,0.8,2c0,0.8-0.3,1.4-0.8,1.9
					c-0.6,0.5-1.2,0.7-2,0.7h-19.2l0.5-0.7v18.1l-0.4-0.5h22.3c0.8,0,1.5,0.3,2,0.8s0.8,1.2,0.8,1.9c0,0.8-0.3,1.4-0.8,2
					c-0.6,0.5-1.2,0.8-2,0.8h-24.8c-0.8,0-1.5-0.3-2-0.8c-0.6-0.6-0.8-1.2-0.8-2v-43.1c0-0.8,0.3-1.5,0.8-2
					C961.1,909.8,961.8,909.5,962.5,909.5z"/>
				<path class="st8" d="M1016.3,909.5c0.4,0,0.9,0.1,1.4,0.3c0.5,0.2,0.9,0.6,1.2,1l18.5,27.9l-2.5-0.1l18.7-27.8
					c0.7-0.9,1.4-1.3,2.4-1.3c0.7,0,1.4,0.3,2,0.9c0.6,0.5,0.9,1.2,0.9,2v43.2c0,0.8-0.3,1.5-0.8,2c-0.6,0.6-1.3,0.8-2.1,0.8
					c-0.9,0-1.6-0.3-2.1-0.8c-0.5-0.6-0.8-1.2-0.8-2v-37.8l1.7,0.3l-16.5,25.1c-0.3,0.4-0.6,0.7-1,0.9c-0.4,0.2-0.8,0.3-1.3,0.3
					c-0.4,0-0.8,0-1.3-0.3c-0.4-0.2-0.7-0.5-1-0.9l-16.3-25l1.5-1.9v39.4c0,0.8-0.3,1.5-0.8,2c-0.5,0.6-1.2,0.8-2,0.8
					s-1.4-0.3-2-0.8c-0.5-0.6-0.8-1.2-0.8-2v-43.2c0-0.7,0.3-1.4,0.8-2C1014.8,909.8,1015.5,909.5,1016.3,909.5z"/>
				<path class="st8" d="M1114.7,909.3c0.8,0,1.5,0.3,2,0.8c0.5,0.6,0.8,1.2,0.8,2c0,0.3,0,0.6-0.1,0.9s-0.2,0.6-0.4,0.8l-16.2,22.6
					l0.9-3.4v22.5c0,0.8-0.3,1.5-0.8,2c-0.5,0.6-1.2,0.8-1.9,0.8c-0.8,0-1.5-0.3-2.1-0.8c-0.5-0.6-0.8-1.2-0.8-2v-22l0.4,1.9
					l-15.6-21.2c-0.3-0.4-0.5-0.7-0.6-1.1s-0.2-0.7-0.2-1c0-0.8,0.3-1.5,1-2c0.7-0.5,1.3-0.8,2-0.8c0.9,0,1.7,0.4,2.3,1.3l14.4,19.8
					l-1.3-0.2l13.8-19.5C1112.9,909.8,1113.7,909.3,1114.7,909.3z"/>
			</g>
		</g>
		<g class="st4">
			<path class="st8" d="M251.4,669.4c153,0,305.1,0,458.3,0c-5.8,4.2-10.8,7.7-15.6,11.2c-13.8,10-26.5,21.2-38,33.8
				c-1.5,1.6-4.3,2.9-6.5,2.9c-78.4,0.2-156.8,0.2-235.3,0.2c-33.5,0-67.1,0-100.6,0.1c-3.6,0-6-1.1-8.4-3.8
				C289.7,696.5,271.8,682.2,251.4,669.4z"/>
			<g>
				<defs>
					<path id="SVGID_00000106126678299393575740000017526330547160685199_" d="M320.9,733.5c106.4,0,212.1,0,318.5,0
						c-0.9,1.8-1.6,3.1-2.3,4.4c-7.2,12.3-12.7,25.3-13.9,39.7c-0.3,3.8-2.6,3.7-5.2,3.7c-21.9,0-43.9,0-65.8,0c-25.5,0-51,0-76.4,0
						c-44.3,0-88.5,0-132.8,0.1c-3.9,0-5.4-1-5.8-5c-1.2-13.1-6.1-24.9-12.5-36.2C323.5,738.1,322.3,736.1,320.9,733.5z"/>
				</defs>
				<use xlink:href="#SVGID_00000106126678299393575740000017526330547160685199_"  style="overflow:visible;fill:#0A0A3D;"/>
				<clipPath id="SVGID_00000000924616340330832470000001740867924909219474_">
					<use xlink:href="#SVGID_00000106126678299393575740000017526330547160685199_"  style="overflow:visible;"/>
				</clipPath>
			</g>
			<g>
				<g>
					<g>
						<defs>
							<path id="SVGID_00000055691316956751985900000011982033029087176866_" d="M551.5,910.8h-29.6c-1.3,0-2.3-1-2.3-2.3V795.3
								c0-1.3,1-2.3,2.3-2.3h29.6c1.3,0,2.3,1,2.3,2.3v113.2C553.7,909.8,552.7,910.8,551.5,910.8z"/>
						</defs>
						<use xlink:href="#SVGID_00000055691316956751985900000011982033029087176866_"  style="overflow:visible;fill:#0A0A3D;"/>
						<clipPath id="SVGID_00000100341505771892715220000011235569761264611968_">
							<use xlink:href="#SVGID_00000055691316956751985900000011982033029087176866_"  style="overflow:visible;"/>
						</clipPath>
					</g>
					<g>
						<defs>
							<path id="SVGID_00000019672309487435151110000012394054099253791635_" d="M607.6,910.8H578c-1.3,0-2.3-1-2.3-2.3V795.3
								c0-1.3,1-2.3,2.3-2.3h29.6c1.3,0,2.3,1,2.3,2.3v113.2C609.9,909.8,608.9,910.8,607.6,910.8z"/>
						</defs>
						<use xlink:href="#SVGID_00000019672309487435151110000012394054099253791635_"  style="overflow:visible;fill:#0A0A3D;"/>
						<clipPath id="SVGID_00000080180766988254507730000009486578971668883115_">
							<use xlink:href="#SVGID_00000019672309487435151110000012394054099253791635_"  style="overflow:visible;"/>
						</clipPath>
					</g>
					<g>
						<defs>
							<path id="SVGID_00000183214822780629020840000001137886203610818983_" d="M383,910.8h-29.6c-1.3,0-2.3-1-2.3-2.3V795.3
								c0-1.3,1-2.3,2.3-2.3H383c1.3,0,2.3,1,2.3,2.3v113.2C385.3,909.8,384.3,910.8,383,910.8z"/>
						</defs>
						<use xlink:href="#SVGID_00000183214822780629020840000001137886203610818983_"  style="overflow:visible;fill:#0A0A3D;"/>
						<clipPath id="SVGID_00000056408228654180102460000000977364662554473100_">
							<use xlink:href="#SVGID_00000183214822780629020840000001137886203610818983_"  style="overflow:visible;"/>
						</clipPath>
					</g>
					<g>
						<defs>
							<path id="SVGID_00000146479676189765016550000017957966509139796619_" d="M439.2,910.8h-29.6c-1.3,0-2.3-1-2.3-2.3V795.3
								c0-1.3,1-2.3,2.3-2.3h29.6c1.3,0,2.3,1,2.3,2.3v113.2C441.4,909.8,440.4,910.8,439.2,910.8z"/>
						</defs>
						<use xlink:href="#SVGID_00000146479676189765016550000017957966509139796619_"  style="overflow:visible;fill:#0A0A3D;"/>
						<clipPath id="SVGID_00000026122616072269568020000017908310031031841457_">
							<use xlink:href="#SVGID_00000146479676189765016550000017957966509139796619_"  style="overflow:visible;"/>
						</clipPath>
					</g>
					<g>
						<defs>
							<path id="SVGID_00000062882620667162281760000010905534386642443947_" d="M495.3,910.8h-29.6c-1.3,0-2.3-1-2.3-2.3V795.3
								c0-1.3,1-2.3,2.3-2.3h29.6c1.3,0,2.3,1,2.3,2.3v113.2C497.6,909.8,496.6,910.8,495.3,910.8z"/>
						</defs>
						<use xlink:href="#SVGID_00000062882620667162281760000010905534386642443947_"  style="overflow:visible;fill:#0A0A3D;"/>
						<clipPath id="SVGID_00000022543319901787976350000014435147823586628490_">
							<use xlink:href="#SVGID_00000062882620667162281760000010905534386642443947_"  style="overflow:visible;"/>
						</clipPath>
					</g>
				</g>
				<path class="st8" d="M385.3,952.7v-43.9c0-1.3-1-2.3-2.3-2.3h-29.6c-1.3,0-2.3,1-2.3,2.3v47.7
					C362.3,954.7,373.7,953.4,385.3,952.7z"/>
				<path class="st8" d="M441.4,953.8v-44.9c0-1.3-1-2.3-2.3-2.3h-29.6c-1.3,0-2.3,1-2.3,2.3V952C418.8,952,430.2,952.6,441.4,953.8
					z"/>
				<path class="st8" d="M497.6,964.1v-55.3c0-1.3-1-2.3-2.3-2.3h-29.6c-1.3,0-2.3,1-2.3,2.3v47.8
					C475,958.6,486.4,961.1,497.6,964.1z"/>
				<path class="st8" d="M553.7,984.8v-76c0-1.3-1-2.3-2.3-2.3h-29.6c-1.3,0-2.3,1-2.3,2.3v62.1
					C531.2,974.9,542.7,979.6,553.7,984.8z"/>
				<path class="st8" d="M609.9,1018.3V908.8c0-1.3-1-2.3-2.3-2.3H578c-1.3,0-2.3,1-2.3,2.3v87.4
					C587.6,1002.9,599,1010.3,609.9,1018.3z"/>
			</g>
		</g>
	</g>
	<g class="st0">
		<g class="st4">
			<g>
				
					<image style="display:none;overflow:visible;" width="225" height="225" xlink:href="B5F3B3E3.jpg"  transform="matrix(2.037 0 0 2.037 274.4884 470.2624)">
				</image>
				<g class="st10">
					
						<image style="display:none;overflow:visible;" width="225" height="225" xlink:href="B5F3B3E6.jpg"  transform="matrix(2.037 0 0 2.037 274.4884 470.2624)">
					</image>
				</g>
				<g class="st10">
					
						<image style="display:none;overflow:visible;" width="225" height="225" xlink:href="B5F3B3E7.jpg"  transform="matrix(2.037 0 0 2.037 274.4884 470.2624)">
					</image>
				</g>
				<g class="st10">
					
						<image style="display:none;overflow:visible;" width="225" height="225" xlink:href="B5F3B3E2.jpg"  transform="matrix(2.037 0 0 2.037 274.4884 470.2624)">
					</image>
				</g>
				<g class="st10">
					
						<image style="display:none;overflow:visible;" width="225" height="225" xlink:href="B5F3B3ED.jpg"  transform="matrix(2.037 0 0 2.037 274.4884 470.2624)">
					</image>
				</g>
				<g class="st10">
					
						<image style="display:none;overflow:visible;" width="225" height="225" xlink:href="B5F3B3EE.jpg"  transform="matrix(2.037 0 0 2.037 274.4884 470.2624)">
					</image>
				</g>
			</g>
			<g>
				<g class="st10">
					
						<image style="display:none;overflow:visible;" width="225" height="225" xlink:href="B5F3B3CA.jpg"  transform="matrix(2.037 0 0 2.037 245.1071 671.4183)">
					</image>
				</g>
				<g class="st10">
					
						<image style="display:none;overflow:visible;" width="225" height="225" xlink:href="B5F3B3C9.jpg"  transform="matrix(2.037 0 0 2.037 245.1071 671.4183)">
					</image>
				</g>
				<g class="st10">
					
						<image style="display:none;overflow:visible;" width="225" height="225" xlink:href="B5F3B3CE.jpg"  transform="matrix(2.037 0 0 2.037 245.1071 671.4183)">
					</image>
				</g>
				<g class="st10">
					
						<image style="display:none;overflow:visible;" width="225" height="225" xlink:href="B5F3B3C8.jpg"  transform="matrix(2.037 0 0 2.037 245.1071 671.4183)">
					</image>
				</g>
				<g class="st10">
					
						<image style="display:none;overflow:visible;" width="225" height="225" xlink:href="B5F3B3CB.jpg"  transform="matrix(2.037 0 0 2.037 245.1071 671.4183)">
					</image>
				</g>
			</g>
		</g>
		<text transform="matrix(1 0 0 1 707.1587 873.9782)" class="st4 st5 st11">5pillars</text>
		<g class="st4">
			<g>
				<path d="M736,916.8l-16.4,39.9c-0.2,0.6-0.5,1-1,1.4c-0.5,0.3-1,0.5-1.5,0.5c-0.9,0-1.5-0.2-2-0.7s-0.7-1.1-0.7-1.7
					c0-0.3,0-0.7,0.1-1l18.1-43.9c0.3-0.7,0.7-1.1,1.2-1.5c0.5-0.3,1-0.5,1.6-0.4c0.6,0,1.2,0.2,1.6,0.5c0.5,0.3,0.8,0.8,1,1.4
					l18,43.5c0.1,0.4,0.2,0.7,0.2,1.1c0,0.8-0.3,1.5-0.8,2c-0.6,0.5-1.2,0.8-1.9,0.8c-0.6,0-1.1-0.2-1.6-0.5c-0.5-0.3-0.8-0.8-1-1.4
					l-16.6-39.9L736,916.8z M723.1,945.3l2.4-5.4h20.7l1,5.4H723.1z"/>
				<path d="M813.1,912.8c0.8,0.4,1.3,1,1.4,1.9c0.1,0.8-0.1,1.6-0.6,2.4c-0.4,0.6-1,0.9-1.6,0.9c-0.7,0.1-1.3-0.1-2-0.4
					c-1.5-0.9-3.2-1.7-5-2.2c-1.8-0.5-3.6-0.8-5.6-0.8c-2.7,0-5.3,0.5-7.5,1.4c-2.3,0.9-4.3,2.3-5.9,4c-1.7,1.7-3,3.8-3.9,6.2
					c-0.9,2.4-1.4,5-1.4,7.8c0,3.1,0.5,5.8,1.5,8.2s2.3,4.5,4,6.2c1.7,1.7,3.7,3,5.9,3.9c2.3,0.9,4.7,1.3,7.4,1.3
					c1.9,0,3.7-0.3,5.5-0.8s3.4-1.3,5-2.2c0.7-0.3,1.3-0.4,2-0.3c0.7,0.1,1.2,0.4,1.6,1c0.6,0.7,0.8,1.5,0.7,2.3
					c-0.2,0.8-0.6,1.4-1.4,1.8c-1.2,0.7-2.5,1.3-4,1.9c-1.5,0.6-3,1-4.6,1.3c-1.6,0.3-3.2,0.5-4.8,0.5c-3.3,0-6.5-0.6-9.5-1.7
					s-5.6-2.8-7.9-5s-4.1-4.8-5.4-7.9c-1.3-3.1-2-6.6-2-10.5c0-3.6,0.6-6.9,1.9-9.9c1.3-3,3-5.7,5.2-7.9s4.8-4,7.8-5.2
					c3-1.2,6.3-1.8,9.8-1.8c2.4,0,4.8,0.3,7,0.9S811.2,911.5,813.1,912.8z"/>
				<path d="M853.8,916.8l-16.4,39.9c-0.2,0.6-0.5,1-1,1.4c-0.5,0.3-1,0.5-1.5,0.5c-0.9,0-1.5-0.2-2-0.7s-0.7-1.1-0.7-1.7
					c0-0.3,0-0.7,0.1-1l18.1-43.9c0.3-0.7,0.7-1.1,1.2-1.5c0.5-0.3,1-0.5,1.6-0.4c0.6,0,1.2,0.2,1.6,0.5c0.5,0.3,0.8,0.8,1,1.4
					l18,43.5c0.1,0.4,0.2,0.7,0.2,1.1c0,0.8-0.3,1.5-0.8,2c-0.6,0.5-1.2,0.8-1.9,0.8c-0.6,0-1.1-0.2-1.6-0.5c-0.5-0.3-0.8-0.8-1-1.4
					l-16.6-39.9L853.8,916.8z M840.9,945.3l2.4-5.4H864l1,5.4H840.9z"/>
				<path d="M915.9,909.5c3.4,0,6.5,0.6,9,1.9c2.6,1.3,4.7,3.1,6.5,5.3s3,4.9,3.9,7.8c0.9,3,1.3,6.1,1.3,9.3c0,4.5-0.8,8.6-2.3,12.3
					s-3.8,6.6-6.9,8.8s-6.9,3.3-11.5,3.3h-17.4c-0.8,0-1.5-0.3-2-0.8c-0.6-0.6-0.8-1.2-0.8-2v-43.1c0-0.8,0.3-1.5,0.8-2
					c0.6-0.6,1.2-0.8,2-0.8H915.9z M915.2,952.9c3.6,0,6.6-0.9,8.8-2.6c2.2-1.7,3.9-4,4.9-6.9c1-2.9,1.6-6,1.6-9.5
					c0-2.5-0.3-4.9-0.9-7.2c-0.6-2.3-1.5-4.3-2.7-6.1c-1.2-1.8-2.8-3.2-4.7-4.2s-4.2-1.5-6.9-1.5H901l0.6-0.6v39.3l-0.4-0.7H915.2z"
					/>
				<path d="M962.5,909.5h24.8c0.8,0,1.5,0.3,2,0.8c0.6,0.5,0.8,1.2,0.8,2c0,0.8-0.3,1.4-0.8,1.9c-0.6,0.5-1.2,0.7-2,0.7h-22.5
					l0.6-1.2v17.6l-0.7-0.8h19.4c0.8,0,1.5,0.3,2,0.8c0.6,0.5,0.8,1.2,0.8,2c0,0.8-0.3,1.4-0.8,1.9c-0.6,0.5-1.2,0.7-2,0.7h-19.2
					l0.5-0.7v18.1l-0.4-0.5h22.3c0.8,0,1.5,0.3,2,0.8s0.8,1.2,0.8,1.9c0,0.8-0.3,1.4-0.8,2c-0.6,0.5-1.2,0.8-2,0.8h-24.8
					c-0.8,0-1.5-0.3-2-0.8c-0.6-0.6-0.8-1.2-0.8-2v-43.1c0-0.8,0.3-1.5,0.8-2C961.1,909.8,961.8,909.5,962.5,909.5z"/>
				<path d="M1016.3,909.5c0.4,0,0.9,0.1,1.4,0.3c0.5,0.2,0.9,0.6,1.2,1l18.5,27.9l-2.5-0.1l18.7-27.8c0.7-0.9,1.4-1.3,2.4-1.3
					c0.7,0,1.4,0.3,2,0.9c0.6,0.5,0.9,1.2,0.9,2v43.2c0,0.8-0.3,1.5-0.8,2c-0.6,0.6-1.3,0.8-2.1,0.8c-0.9,0-1.6-0.3-2.1-0.8
					c-0.5-0.6-0.8-1.2-0.8-2v-37.8l1.7,0.3l-16.5,25.1c-0.3,0.4-0.6,0.7-1,0.9c-0.4,0.2-0.8,0.3-1.3,0.3c-0.4,0-0.8,0-1.3-0.3
					c-0.4-0.2-0.7-0.5-1-0.9l-16.3-25l1.5-1.9v39.4c0,0.8-0.3,1.5-0.8,2c-0.5,0.6-1.2,0.8-2,0.8s-1.4-0.3-2-0.8
					c-0.5-0.6-0.8-1.2-0.8-2v-43.2c0-0.7,0.3-1.4,0.8-2C1014.8,909.8,1015.5,909.5,1016.3,909.5z"/>
				<path d="M1114.7,909.3c0.8,0,1.5,0.3,2,0.8c0.5,0.6,0.8,1.2,0.8,2c0,0.3,0,0.6-0.1,0.9s-0.2,0.6-0.4,0.8l-16.2,22.6l0.9-3.4
					v22.5c0,0.8-0.3,1.5-0.8,2c-0.5,0.6-1.2,0.8-1.9,0.8c-0.8,0-1.5-0.3-2.1-0.8c-0.5-0.6-0.8-1.2-0.8-2v-22l0.4,1.9l-15.6-21.2
					c-0.3-0.4-0.5-0.7-0.6-1.1s-0.2-0.7-0.2-1c0-0.8,0.3-1.5,1-2c0.7-0.5,1.3-0.8,2-0.8c0.9,0,1.7,0.4,2.3,1.3l14.4,19.8l-1.3-0.2
					l13.8-19.5C1112.9,909.8,1113.7,909.3,1114.7,909.3z"/>
			</g>
		</g>
		<g class="st4">
			<path d="M251.4,669.4c153,0,305.1,0,458.3,0c-5.8,4.2-10.8,7.7-15.6,11.2c-13.8,10-26.5,21.2-38,33.8c-1.5,1.6-4.3,2.9-6.5,2.9
				c-78.4,0.2-156.8,0.2-235.3,0.2c-33.5,0-67.1,0-100.6,0.1c-3.6,0-6-1.1-8.4-3.8C289.7,696.5,271.8,682.2,251.4,669.4z"/>
			<g>
				<defs>
					<path id="SVGID_00000158008278783588996190000004888086539393794984_" d="M320.9,733.5c106.4,0,212.1,0,318.5,0
						c-0.9,1.8-1.6,3.1-2.3,4.4c-7.2,12.3-12.7,25.3-13.9,39.7c-0.3,3.8-2.6,3.7-5.2,3.7c-21.9,0-43.9,0-65.8,0c-25.5,0-51,0-76.4,0
						c-44.3,0-88.5,0-132.8,0.1c-3.9,0-5.4-1-5.8-5c-1.2-13.1-6.1-24.9-12.5-36.2C323.5,738.1,322.3,736.1,320.9,733.5z"/>
				</defs>
				<use xlink:href="#SVGID_00000158008278783588996190000004888086539393794984_"  style="overflow:visible;"/>
				<clipPath id="SVGID_00000007404609361526084460000005743882389683254404_">
					<use xlink:href="#SVGID_00000158008278783588996190000004888086539393794984_"  style="overflow:visible;"/>
				</clipPath>
			</g>
			<g>
				<g>
					<g>
						<defs>
							<path id="SVGID_00000047751433925839575140000002623060046724269702_" d="M551.5,910.8h-29.6c-1.3,0-2.3-1-2.3-2.3V795.3
								c0-1.3,1-2.3,2.3-2.3h29.6c1.3,0,2.3,1,2.3,2.3v113.2C553.7,909.8,552.7,910.8,551.5,910.8z"/>
						</defs>
						<use xlink:href="#SVGID_00000047751433925839575140000002623060046724269702_"  style="overflow:visible;"/>
						<clipPath id="SVGID_00000083059196689417038710000012557273790624620455_">
							<use xlink:href="#SVGID_00000047751433925839575140000002623060046724269702_"  style="overflow:visible;"/>
						</clipPath>
					</g>
					<g>
						<defs>
							<path id="SVGID_00000045617103759779961270000014468490511916448178_" d="M607.6,910.8H578c-1.3,0-2.3-1-2.3-2.3V795.3
								c0-1.3,1-2.3,2.3-2.3h29.6c1.3,0,2.3,1,2.3,2.3v113.2C609.9,909.8,608.9,910.8,607.6,910.8z"/>
						</defs>
						<use xlink:href="#SVGID_00000045617103759779961270000014468490511916448178_"  style="overflow:visible;"/>
						<clipPath id="SVGID_00000052819302824533240260000015044564618858632879_">
							<use xlink:href="#SVGID_00000045617103759779961270000014468490511916448178_"  style="overflow:visible;"/>
						</clipPath>
					</g>
					<g>
						<defs>
							<path id="SVGID_00000090983239146859454560000013159631614147553197_" d="M383,910.8h-29.6c-1.3,0-2.3-1-2.3-2.3V795.3
								c0-1.3,1-2.3,2.3-2.3H383c1.3,0,2.3,1,2.3,2.3v113.2C385.3,909.8,384.3,910.8,383,910.8z"/>
						</defs>
						<use xlink:href="#SVGID_00000090983239146859454560000013159631614147553197_"  style="overflow:visible;"/>
						<clipPath id="SVGID_00000156582670060007555080000007234733325777204127_">
							<use xlink:href="#SVGID_00000090983239146859454560000013159631614147553197_"  style="overflow:visible;"/>
						</clipPath>
					</g>
					<g>
						<defs>
							<path id="SVGID_00000146472890994889829260000015092251609434585224_" d="M439.2,910.8h-29.6c-1.3,0-2.3-1-2.3-2.3V795.3
								c0-1.3,1-2.3,2.3-2.3h29.6c1.3,0,2.3,1,2.3,2.3v113.2C441.4,909.8,440.4,910.8,439.2,910.8z"/>
						</defs>
						<use xlink:href="#SVGID_00000146472890994889829260000015092251609434585224_"  style="overflow:visible;"/>
						<clipPath id="SVGID_00000135656004656724693530000003966045127963773573_">
							<use xlink:href="#SVGID_00000146472890994889829260000015092251609434585224_"  style="overflow:visible;"/>
						</clipPath>
					</g>
					<g>
						<defs>
							<path id="SVGID_00000000220793428083987490000002542507761260625824_" d="M495.3,910.8h-29.6c-1.3,0-2.3-1-2.3-2.3V795.3
								c0-1.3,1-2.3,2.3-2.3h29.6c1.3,0,2.3,1,2.3,2.3v113.2C497.6,909.8,496.6,910.8,495.3,910.8z"/>
						</defs>
						<use xlink:href="#SVGID_00000000220793428083987490000002542507761260625824_"  style="overflow:visible;"/>
						<clipPath id="SVGID_00000132783803074377518610000018131778949158657688_">
							<use xlink:href="#SVGID_00000000220793428083987490000002542507761260625824_"  style="overflow:visible;"/>
						</clipPath>
					</g>
				</g>
				<path d="M385.3,952.7v-43.9c0-1.3-1-2.3-2.3-2.3h-29.6c-1.3,0-2.3,1-2.3,2.3v47.7C362.3,954.7,373.7,953.4,385.3,952.7z"/>
				<path d="M441.4,953.8v-44.9c0-1.3-1-2.3-2.3-2.3h-29.6c-1.3,0-2.3,1-2.3,2.3V952C418.8,952,430.2,952.6,441.4,953.8z"/>
				<path d="M497.6,964.1v-55.3c0-1.3-1-2.3-2.3-2.3h-29.6c-1.3,0-2.3,1-2.3,2.3v47.8C475,958.6,486.4,961.1,497.6,964.1z"/>
				<path d="M553.7,984.8v-76c0-1.3-1-2.3-2.3-2.3h-29.6c-1.3,0-2.3,1-2.3,2.3v62.1C531.2,974.9,542.7,979.6,553.7,984.8z"/>
				<path d="M609.9,1018.3V908.8c0-1.3-1-2.3-2.3-2.3H578c-1.3,0-2.3,1-2.3,2.3v87.4C587.6,1002.9,599,1010.3,609.9,1018.3z"/>
			</g>
		</g>
	</g>
</g>
</svg>
